SplineFontDB: 3.0
FontName: Meera
FullName: Meera
FamilyName: Meera
Weight: Book
Copyright: Copyleft 2007,2011,2013 Hussain K H,Suresh P,Swathanthra Malayalam Computing(http://smc.org.in,https://savannah.nongnu.org/projects/smc)
FontLog: "04-2:+AAoA-This is a bug-fixed version of 04. The glyphs(an R inside a circle) at unallocated Unicode code points are removed.+AAoACgAA-04-4:+AAoA* Wrong glyph for 'th1s1r3u1' fixed.+AAoA* Breaking up of conjunct 'l3k1k1' fixed.+AAoA* Shaping issues for 'r3cil'+----'l3l3' context fixed.+AAoACgAA-05.1:+AAoA* Glyphs are scaled by 20%.+AAoA* Ascent changed from 1147 to 1434.+AAoA* Descent changed from 901 to 614.+AAoA* Licence upgraded to GPLv3(with font exception)+AAoACgAA-06.2:+AAoA* Wrong glyph for Malayalam Numeral Zero fixed.+AAoA* Added glyphs for r2 (Vocalic RR sign), r5 (Reph), l5 (Vocalic L sign), l6 (Vocalic LL sign), Malayalam Date sign.+AAoA* Added ligature glyphs for k2r3, k2r3u1, l2r3u2, nht2u1, nht2u2.+AAoA* Added support for V2 indic script tag for Malayalam (mlm2).+AAoA* Removed ligature glyphs for reph conjuncts." 
Version: Meera:06;Revision:2.0
ItalicAngle: 0
UnderlinePosition: -942
UnderlineWidth: 61
Ascent: 1434
Descent: 614
LayerCount: 2
Layer: 0 1 "Back"  1
Layer: 1 1 "Fore"  0
XUID: [1021 984 1046805320 2612511]
FSType: 8
OS2Version: 0
OS2_WeightWidthSlopeOnly: 0
OS2_UseTypoMetrics: 0
CreationTime: 1201144287
ModificationTime: 1378455367
PfmFamily: 17
TTFWeight: 400
TTFWidth: 5
LineGap: 0
VLineGap: 0
Panose: 2 0 6 3 0 0 0 0 0 0
OS2TypoAscent: 0
OS2TypoAOffset: 1
OS2TypoDescent: 0
OS2TypoDOffset: 1
OS2TypoLinegap: 0
OS2WinAscent: 0
OS2WinAOffset: 1
OS2WinDescent: 0
OS2WinDOffset: 1
HheadAscent: 0
HheadAOffset: 1
HheadDescent: 0
HheadDOffset: 1
OS2SubXSize: 1327
OS2SubYSize: 1225
OS2SubXOff: 0
OS2SubYOff: 150
OS2SupXSize: 1327
OS2SupYSize: 1427
OS2SupXOff: 0
OS2SupYOff: 977
OS2StrikeYSize: 98
OS2StrikeYPos: 512
OS2Vendor: 'PfEd'

StartChar: .notdef
Encoding: 65536 -1 0
Width: 692
VWidth: 2442
GlyphClass: 2
Flags: MW
LayerCount: 2
Fore
SplineSet
45 1 m 5,0,-1
 45 1119 l 5,1,-1
 606 1119 l 5,2,-1
 606 1 l 5,3,-1
 45 1 l 5,0,-1
102 55 m 5,4,-1
 552 55 l 5,5,-1
 552 1063 l 5,6,-1
 102 1063 l 5,7,-1
 102 55 l 5,4,-1
EndSplineSet
Validated: 1
EndChar

StartChar: r5
Encoding: 65537 -1 1
Width: 599
VWidth: 2478
GlyphClass: 2
Flags: MW
LayerCount: 2
Fore
SplineSet
659 -63 m 1,0,-1
 642 -202 l 1,1,2
 543 -225 543 -225 487 -225 c 256,3,4
 135 -225 135 -225 135 178 c 256,5,6
 135 334 135 334 173.5 575 c 128,-1,7
 212 816 212 816 253 920 c 1,8,-1
 373 920 l 1,9,10
 263 463 263 463 263 201 c 256,11,12
 263 -110 263 -110 489 -110 c 256,13,14
 565 -110 565 -110 659 -63 c 1,0,-1
EndSplineSet
Validated: 1
Ligature2: "Meera-Post Base Forms in Malay+AQEA-lam lookup 8 subtable" r3 xx
EndChar

StartChar: y2
Encoding: 65538 -1 2
Width: 517
VWidth: 2494
GlyphClass: 2
Flags: MW
LayerCount: 2
Fore
SplineSet
577 79 m 24,0,1
 652 -30 652 -30 652 -149 c 256,2,3
 652 -267 652 -267 553 -345.5 c 128,-1,4
 454 -424 454 -424 330 -424 c 256,5,6
 206 -424 206 -424 122 -369 c 128,-1,7
 38 -314 38 -314 38 -221 c 256,8,9
 38 -104 38 -104 152 -53 c 0,10,11
 192 -34 192 -34 196 8 c 2,12,-1
 199 43 l 1,13,-1
 319 43 l 1,14,-1
 319 22 l 2,15,16
 319 -74 319 -74 247.5 -114 c 128,-1,17
 176 -154 176 -154 176 -208 c 256,18,19
 176 -299 176 -299 311 -299 c 256,20,21
 389 -299 389 -299 448.5 -255 c 128,-1,22
 508 -211 508 -211 508 -126 c 256,23,24
 508 -41 508 -41 434 57 c 0,25,26
 214 346 214 346 208 500 c 256,27,28
 207 518 207 518 203 920 c 1,29,-1
 338 920 l 1,30,31
 337 867 337 867 337 777 c 256,32,33
 337 688 337 688 343.5 549 c 128,-1,34
 350 410 350 410 577 79 c 24,0,1
EndSplineSet
Validated: 1
Ligature2: "Meera-Post Base Forms in Malay+AQEA-lam lookup 8 subtable" y1 xx
Ligature2: "Meera-Post Base Forms in Malay+AQEA-lam2 lookup 8 subtable" xx y1
EndChar

StartChar: exclam
Encoding: 33 33 4
Width: 607
VWidth: 2476
GlyphClass: 2
Flags: MW
LayerCount: 2
Fore
SplineSet
303 -1 m 1,0,-1
 303 164 l 1,1,-1
 450 164 l 1,2,-1
 450 -1 l 1,3,-1
 303 -1 l 1,0,-1
450 687 m 1,4,-1
 406 299 l 1,5,-1
 350 299 l 1,6,7
 305 683 305 683 305 687 c 9,8,-1
 303 1280 l 1,9,-1
 450 1280 l 1,10,-1
 450 687 l 1,4,-1
EndSplineSet
Validated: 3073
EndChar

StartChar: quotedbl
Encoding: 34 34 5
Width: 782
VWidth: 2395
GlyphClass: 2
Flags: MW
LayerCount: 2
Fore
SplineSet
663 952 m 6,0,-1
 639 832 l 5,1,-1
 585 832 l 5,2,-1
 560 952 l 6,3,4
 539 1053 539 1053 539 1067 c 6,5,-1
 539 1262 l 5,6,-1
 686 1262 l 5,7,-1
 686 1067 l 5,8,9
 681 1039 681 1039 663 952 c 6,0,-1
427 952 m 2,10,-1
 402 832 l 1,11,-1
 350 832 l 1,12,-1
 326 952 l 1,13,14
 303 1053 303 1053 301 1067 c 1,15,-1
 301 1262 l 1,16,-1
 451 1262 l 1,17,-1
 451 1067 l 1,18,19
 446 1039 446 1039 427 952 c 2,10,-1
EndSplineSet
Validated: 3073
EndChar

StartChar: numbersign
Encoding: 35 35 6
Width: 942
VWidth: 2484
GlyphClass: 2
Flags: MW
LayerCount: 2
Fore
SplineSet
807 781 m 1,0,-1
 746 450 l 1,1,-1
 938 450 l 1,2,-1
 938 349 l 1,3,-1
 728 349 l 1,4,-1
 659 -28 l 1,5,-1
 544 -28 l 1,6,-1
 612 349 l 1,7,-1
 366 349 l 1,8,-1
 296 -28 l 1,9,-1
 183 -28 l 1,10,-1
 251 349 l 1,11,-1
 68 349 l 1,12,-1
 68 450 l 1,13,-1
 272 450 l 1,14,-1
 330 781 l 1,15,-1
 134 781 l 1,16,-1
 134 882 l 1,17,-1
 350 882 l 1,18,-1
 413 1231 l 1,19,-1
 530 1231 l 1,20,-1
 462 882 l 1,21,-1
 711 882 l 1,22,-1
 774 1231 l 1,23,-1
 891 1231 l 1,24,-1
 824 882 l 1,25,-1
 996 882 l 1,26,-1
 996 781 l 1,27,-1
 807 781 l 1,0,-1
446 781 m 1,28,-1
 384 450 l 1,29,-1
 633 450 l 1,30,-1
 692 781 l 1,31,-1
 446 781 l 1,28,-1
EndSplineSet
Validated: 3073
EndChar

StartChar: dollar
Encoding: 36 36 7
Width: 955
VWidth: 2489
GlyphClass: 2
Flags: MW
LayerCount: 2
Fore
SplineSet
566 -31 m 1,0,-1
 566 -212 l 1,1,-1
 483 -212 l 1,2,-1
 483 -31 l 1,3,4
 293 -18 293 -18 198.5 76 c 128,-1,5
 104 170 104 170 104 360 c 1,6,-1
 225 360 l 1,7,8
 237 222 237 222 287.5 155 c 128,-1,9
 338 88 338 88 483 70 c 1,10,-1
 483 576 l 1,11,12
 301 630 301 630 214 699 c 128,-1,13
 127 768 127 768 127 921 c 256,14,15
 127 1223 127 1223 483 1267 c 1,16,-1
 483 1362 l 1,17,-1
 566 1362 l 1,18,-1
 566 1267 l 1,19,20
 727 1254 727 1254 820 1169.5 c 128,-1,21
 913 1085 913 1085 915 937 c 1,22,-1
 795 937 l 1,23,24
 791 1033 791 1033 732 1097.5 c 128,-1,25
 673 1162 673 1162 566 1164 c 1,26,-1
 566 699 l 1,27,28
 800 636 800 636 877.5 568.5 c 128,-1,29
 955 501 955 501 955 348 c 256,30,31
 955 -3 955 -3 566 -31 c 1,0,-1
483 1164 m 1,32,33
 249 1132 249 1132 249 937 c 256,34,35
 249 768 249 768 483 707 c 1,36,-1
 483 1164 l 1,32,33
566 567 m 1,37,-1
 566 70 l 1,38,39
 829 100 829 100 830 326 c 256,40,41
 830 510 830 510 566 567 c 1,37,-1
EndSplineSet
Validated: 3073
EndChar

StartChar: percent
Encoding: 37 37 8
Width: 1485
VWidth: 2482
GlyphClass: 2
Flags: MW
LayerCount: 2
Fore
SplineSet
1397.5 56.5 m 128,-1,1
 1312 -30 1312 -30 1190 -30 c 256,2,3
 1068 -30 1068 -30 984 56 c 128,-1,4
 900 142 900 142 899 264 c 256,5,6
 899 386 899 386 984.5 472 c 128,-1,7
 1070 558 1070 558 1193 558 c 256,8,9
 1316 558 1316 558 1399 473 c 128,-1,10
 1482 388 1482 388 1483 263 c 0,11,0
 1483 143 1483 143 1397.5 56.5 c 128,-1,1
505 -30 m 1,12,-1
 413 -30 l 1,13,-1
 1105 1251 l 1,14,-1
 1196 1251 l 1,15,-1
 505 -30 l 1,12,-1
623.5 705.5 m 128,-1,17
 538 620 538 620 416 620 c 256,18,19
 294 620 294 620 209.5 704.5 c 128,-1,20
 125 789 125 789 125 913 c 256,21,22
 125 1037 125 1037 209.5 1121.5 c 128,-1,23
 294 1206 294 1206 418 1206 c 256,24,25
 540 1206 540 1206 624.5 1120.5 c 128,-1,26
 709 1035 709 1035 709 913 c 256,27,16
 709 791 709 791 623.5 705.5 c 128,-1,17
1192 458 m 256,28,29
 1110 458 1110 458 1055 402.5 c 128,-1,30
 1000 347 1000 347 1000 266 c 256,31,32
 1000 185 1000 185 1055 129.5 c 128,-1,33
 1110 74 1110 74 1190 74 c 256,34,35
 1270 74 1270 74 1327 129.5 c 128,-1,36
 1384 185 1384 185 1384 265 c 256,37,38
 1384 345 1384 345 1328 401.5 c 128,-1,39
 1272 458 1272 458 1192 458 c 256,28,29
418 1107 m 256,40,41
 336 1107 336 1107 281 1050 c 128,-1,42
 226 993 226 993 226 913 c 256,43,44
 226 833 226 833 281 778 c 128,-1,45
 336 723 336 723 418 723 c 256,46,47
 498 723 498 723 553 778 c 128,-1,48
 608 833 608 833 608 913 c 256,49,50
 608 993 608 993 553 1050 c 128,-1,51
 498 1107 498 1107 418 1107 c 256,40,41
EndSplineSet
Validated: 3073
EndChar

StartChar: ampersand
Encoding: 38 38 9
Width: 1107
VWidth: 2483
GlyphClass: 2
Flags: MW
LayerCount: 2
Fore
SplineSet
947 2 m 1,0,-1
 832 147 l 1,1,2
 640 -38 640 -38 466 -38 c 256,3,4
 292 -38 292 -38 194 54 c 0,5,6
 96 148 96 148 96 292 c 256,7,8
 96 436 96 436 169 515 c 128,-1,9
 242 594 242 594 394 682 c 1,10,11
 242 872 242 872 242 984 c 256,12,13
 242 1096 242 1096 329 1171.5 c 128,-1,14
 416 1247 416 1247 539 1247 c 256,15,16
 662 1247 662 1247 740.5 1173.5 c 128,-1,17
 819 1100 819 1100 819 987 c 256,18,19
 819 874 819 874 755.5 806 c 128,-1,20
 692 738 692 738 566 670 c 1,21,-1
 824 356 l 1,22,23
 886 466 886 466 888 576 c 1,24,-1
 1011 576 l 1,25,26
 1006 417 1006 417 903 260 c 1,27,-1
 1112 2 l 1,28,-1
 947 2 l 1,0,-1
534 1144 m 256,29,30
 368 1144 368 1144 368 980 c 256,31,32
 368 902 368 902 453 803 c 1,33,-1
 502 747 l 1,34,35
 701 872 701 872 701 982 c 256,36,37
 701 1054 701 1054 653 1099 c 128,-1,38
 605 1144 605 1144 534 1144 c 256,29,30
458 609 m 1,39,40
 225 461 225 461 225 318 c 256,41,42
 225 218 225 218 297.5 147.5 c 128,-1,43
 370 77 370 77 473 77 c 256,44,45
 617 77 617 77 758 236 c 1,46,-1
 458 609 l 1,39,40
EndSplineSet
Validated: 3073
EndChar

StartChar: quotesingle
Encoding: 39 39 10
Width: 577
VWidth: 2395
GlyphClass: 2
Flags: MW
LayerCount: 2
Fore
SplineSet
425 952 m 2,0,-1
 401 832 l 1,1,-1
 347 832 l 1,2,-1
 322 952 l 2,3,4
 301 1053 301 1053 301 1067 c 2,5,-1
 301 1262 l 1,6,-1
 448 1262 l 1,7,-1
 448 1067 l 1,8,9
 443 1039 443 1039 425 952 c 2,0,-1
EndSplineSet
Validated: 3073
EndChar

StartChar: parenleft
Encoding: 40 40 11
Width: 500
VWidth: 2508
GlyphClass: 2
Flags: MW
LayerCount: 2
Fore
SplineSet
425 -343 m 1,0,1
 127 33 127 33 127 484 c 256,2,3
 127 935 127 935 425 1311 c 1,4,-1
 500 1311 l 1,5,6
 254 922 254 922 254 484 c 256,7,8
 254 46 254 46 500 -343 c 1,9,-1
 425 -343 l 1,0,1
EndSplineSet
Validated: 3073
EndChar

StartChar: parenright
Encoding: 41 41 12
Width: 714
VWidth: 2508
GlyphClass: 2
Flags: MW
LayerCount: 2
Fore
SplineSet
215 -343 m 1,0,-1
 138 -343 l 1,1,2
 384 46 384 46 384 484 c 256,3,4
 384 922 384 922 138 1311 c 1,5,-1
 215 1311 l 1,6,7
 512 935 512 935 512 484 c 256,8,9
 512 33 512 33 215 -343 c 1,0,-1
EndSplineSet
Validated: 3073
EndChar

StartChar: asterisk
Encoding: 42 42 13
Width: 655
VWidth: 2412
GlyphClass: 2
Flags: MW
LayerCount: 2
Fore
SplineSet
445 925 m 5,0,-1
 578 757 l 5,1,-1
 504 703 l 5,2,-1
 386 881 l 5,3,-1
 268 703 l 5,4,-1
 196 755 l 5,5,-1
 325 925 l 5,6,-1
 123 982 l 5,7,-1
 150 1067 l 5,8,-1
 349 994 l 5,9,-1
 339 1205 l 5,10,-1
 433 1205 l 5,11,-1
 423 994 l 5,12,-1
 622 1067 l 5,13,-1
 649 982 l 5,14,-1
 445 925 l 5,0,-1
EndSplineSet
Validated: 3073
EndChar

StartChar: plus
Encoding: 43 43 14
Width: 955
VWidth: 2515
GlyphClass: 2
Flags: MW
LayerCount: 2
Fore
SplineSet
592 373 m 5,0,-1
 592 0 l 5,1,-1
 488 0 l 5,2,-1
 488 373 l 5,3,-1
 115 373 l 5,4,-1
 115 477 l 5,5,-1
 488 477 l 5,6,-1
 488 850 l 5,7,-1
 592 850 l 5,8,-1
 592 477 l 5,9,-1
 965 477 l 5,10,-1
 965 373 l 5,11,-1
 592 373 l 5,0,-1
EndSplineSet
Validated: 3073
EndChar

StartChar: comma
Encoding: 44 44 15
Width: 385
VWidth: 2536
GlyphClass: 2
Flags: MW
LayerCount: 2
Fore
SplineSet
127 -263 m 1,0,-1
 127 -216 l 1,1,2
 212 -209 212 -209 235 -143 c 28,3,4
 244 -117 244 -117 244 0 c 1,5,-1
 127 0 l 1,6,-1
 127 164 l 1,7,-1
 310 164 l 1,8,-1
 310 -40 l 2,9,10
 310 -256 310 -256 127 -263 c 1,0,-1
EndSplineSet
Validated: 3073
EndChar

StartChar: hyphen
Encoding: 45 45 16
Width: 555
VWidth: 2502
GlyphClass: 2
Flags: MW
LayerCount: 2
Fore
SplineSet
109 368 m 1,0,-1
 109 494 l 1,1,-1
 527 494 l 1,2,-1
 527 368 l 1,3,-1
 109 368 l 1,0,-1
EndSplineSet
Validated: 3073
EndChar

StartChar: period
Encoding: 46 46 17
Width: 432
VWidth: 2506
GlyphClass: 2
Flags: MW
LayerCount: 2
Fore
SplineSet
127 0 m 1,0,-1
 127 166 l 1,1,-1
 308 166 l 1,2,-1
 308 0 l 1,3,-1
 127 0 l 1,0,-1
EndSplineSet
Validated: 3073
EndChar

StartChar: slash
Encoding: 47 47 18
Width: 572
VWidth: 2479
GlyphClass: 2
Flags: MW
LayerCount: 2
Fore
SplineSet
211 -30 m 1,0,-1
 74 -30 l 1,1,-1
 501 1286 l 1,2,-1
 638 1286 l 1,3,-1
 211 -30 l 1,0,-1
EndSplineSet
Validated: 3073
EndChar

StartChar: zero
Encoding: 48 48 19
Width: 964
VWidth: 2580
GlyphClass: 2
Flags: MW
LayerCount: 2
Fore
SplineSet
573 -22 m 260,0,1
 150 -22 150 -22 150 622 c 4,2,3
 150 1303 150 1303 573 1303 c 260,4,5
 996 1303 996 1303 996 636 c 4,6,7
 996 -22 996 -22 573 -22 c 260,0,1
852 640 m 260,8,9
 852 1188 852 1188 573 1188 c 260,10,11
 294 1188 294 1188 294 640 c 260,12,13
 294 93 294 93 568 93 c 4,14,15
 852 93 852 93 852 640 c 260,8,9
EndSplineSet
Validated: 3073
EndChar

StartChar: one
Encoding: 49 49 20
Width: 561
VWidth: 2580
GlyphClass: 2
Flags: MW
LayerCount: 2
Fore
SplineSet
432 0 m 1,0,-1
 432 920 l 1,1,-1
 131 920 l 1,2,-1
 131 1014 l 1,3,4
 323 1033 323 1033 378.5 1088.5 c 128,-1,5
 434 1144 434 1144 435 1280 c 1,6,-1
 577 1280 l 1,7,-1
 577 0 l 1,8,-1
 432 0 l 1,0,-1
EndSplineSet
Validated: 3073
EndChar

StartChar: two
Encoding: 50 50 21
Width: 959
VWidth: 2578
GlyphClass: 2
Flags: MW
LayerCount: 2
Fore
SplineSet
362 296 m 128,-1,1
 305 238 305 238 298 125 c 1,2,-1
 985 125 l 1,3,-1
 985 0 l 1,4,-1
 133 0 l 1,5,6
 141 217 141 217 219 327.5 c 128,-1,7
 297 438 297 438 494 550 c 2,8,-1
 667 648 l 2,9,10
 818 734 818 734 818 924 c 256,11,12
 818 1040 818 1040 743.5 1114 c 128,-1,13
 669 1188 669 1188 553 1188 c 256,14,15
 303 1188 303 1188 276 868 c 1,16,-1
 131 868 l 1,17,18
 148 1303 148 1303 557 1303 c 260,19,20
 738 1303 738 1303 855 1202.5 c 128,-1,21
 972 1102 972 1102 972 902 c 0,22,23
 972 692 972 692 801 587 c 2,24,-1
 635 486 l 2,25,0
 419 354 419 354 362 296 c 128,-1,1
EndSplineSet
Validated: 3073
EndChar

StartChar: three
Encoding: 51 51 22
Width: 966
VWidth: 2580
GlyphClass: 2
Flags: MW
LayerCount: 2
Fore
SplineSet
550 -22 m 256,0,1
 162 -22 162 -22 122 373 c 1,2,-1
 267 373 l 1,3,4
 289 93 289 93 556 93 c 256,5,6
 844 93 844 93 844 368 c 256,7,8
 844 577 844 577 660 606 c 0,9,10
 641 609 641 609 478 615 c 1,11,-1
 481 736 l 1,12,13
 614 739 614 739 657 749 c 0,14,15
 806 785 806 785 806 954 c 256,16,17
 806 1188 806 1188 557 1188 c 256,18,19
 308 1188 308 1188 293 908 c 1,20,-1
 151 908 l 1,21,22
 164 1303 164 1303 556 1303 c 256,23,24
 737 1303 737 1303 844.5 1216 c 128,-1,25
 952 1129 952 1129 952 959 c 256,26,27
 952 761 952 761 742 679 c 1,28,29
 877 635 877 635 934 560 c 128,-1,30
 991 485 991 485 991 371 c 256,31,32
 991 185 991 185 868.5 81.5 c 128,-1,33
 746 -22 746 -22 550 -22 c 256,0,1
EndSplineSet
Validated: 3073
EndChar

StartChar: four
Encoding: 52 52 23
Width: 1006
VWidth: 2580
GlyphClass: 2
Flags: MW
LayerCount: 2
Fore
SplineSet
847 293 m 1,0,-1
 847 0 l 1,1,-1
 702 0 l 1,2,-1
 702 293 l 1,3,-1
 144 293 l 1,4,-1
 144 450 l 1,5,-1
 742 1280 l 1,6,-1
 847 1280 l 1,7,-1
 847 418 l 1,8,-1
 1042 418 l 1,9,-1
 1042 293 l 1,10,-1
 847 293 l 1,0,-1
702 1051 m 1,11,-1
 254 418 l 1,12,-1
 702 418 l 1,13,-1
 702 1051 l 1,11,-1
EndSplineSet
Validated: 3073
EndChar

StartChar: five
Encoding: 53 53 24
Width: 959
VWidth: 2583
GlyphClass: 2
Flags: MW
LayerCount: 2
Fore
SplineSet
540 -23 m 256,0,1
 190 -23 190 -23 113 309 c 1,2,-1
 255 309 l 1,3,4
 319 93 319 93 538 92 c 256,5,6
 683 92 683 92 761 181 c 128,-1,7
 839 270 839 270 839 411 c 256,8,9
 839 571 839 571 761 655.5 c 128,-1,10
 683 740 683 740 538 740 c 256,11,12
 394 740 394 740 287 620 c 1,13,-1
 155 620 l 1,14,-1
 252 1280 l 1,15,-1
 916 1280 l 1,16,-1
 916 1155 l 1,17,-1
 364 1155 l 1,18,-1
 306 766 l 1,19,20
 428 855 428 855 564 855 c 256,21,22
 758 854 758 854 872 745 c 128,-1,23
 986 636 986 636 986 436 c 256,24,25
 986 236 986 236 864 106.5 c 128,-1,26
 742 -23 742 -23 540 -23 c 256,0,1
EndSplineSet
Validated: 3073
EndChar

StartChar: six
Encoding: 54 54 25
Width: 985
VWidth: 2580
GlyphClass: 2
Flags: MW
LayerCount: 2
Fore
SplineSet
585 -22 m 256,0,1
 148 -22 148 -22 148 604 c 256,2,3
 148 1302 148 1302 616 1302 c 256,4,5
 922 1302 922 1302 983 988 c 1,6,-1
 839 988 l 1,7,8
 790 1187 790 1187 603 1187 c 256,9,10
 294 1187 294 1187 294 640 c 1,11,12
 419 806 419 806 605 806 c 256,13,14
 792 806 792 806 901 696 c 128,-1,15
 1010 586 1010 586 1010 402 c 256,16,17
 1010 218 1010 218 892.5 98 c 128,-1,18
 775 -22 775 -22 585 -22 c 256,0,1
795.5 608.5 m 128,-1,20
 727 691 727 691 595 691 c 256,21,22
 463 691 463 691 383.5 611 c 128,-1,23
 304 531 304 531 304 401 c 256,24,25
 304 274 304 274 381 183.5 c 128,-1,26
 458 93 458 93 584 93 c 256,27,28
 710 93 710 93 787 179.5 c 128,-1,29
 864 266 864 266 864 396 c 256,30,19
 864 526 864 526 795.5 608.5 c 128,-1,20
EndSplineSet
Validated: 3073
EndChar

StartChar: seven
Encoding: 55 55 26
Width: 930
VWidth: 2581
GlyphClass: 2
Flags: MW
LayerCount: 2
Fore
SplineSet
409 0 m 1,0,-1
 258 0 l 1,1,2
 315 424 315 424 809 1155 c 1,3,-1
 82 1155 l 1,4,-1
 82 1280 l 1,5,-1
 948 1280 l 1,6,-1
 948 1160 l 1,7,8
 515 594 515 594 409 0 c 1,0,-1
EndSplineSet
Validated: 3073
EndChar

StartChar: eight
Encoding: 56 56 27
Width: 947
VWidth: 2580
GlyphClass: 2
Flags: MW
LayerCount: 2
Fore
SplineSet
850 83.5 m 128,-1,1
 725 -22 725 -22 538 -22 c 256,2,3
 350 -22 350 -22 226.5 84 c 128,-1,4
 103 190 103 190 103 370 c 256,5,6
 103 581 103 581 345 690 c 1,7,8
 242 754 242 754 197 812.5 c 128,-1,9
 152 871 152 871 152 964 c 256,10,11
 152 1124 152 1124 262.5 1213 c 128,-1,12
 373 1302 373 1302 540 1302 c 256,13,14
 703 1302 703 1302 814.5 1214.5 c 128,-1,15
 926 1127 926 1127 926 964 c 256,16,17
 926 872 926 872 881.5 811.5 c 128,-1,18
 837 751 837 751 732 690 c 1,19,20
 975 581 975 581 975 368 c 256,21,0
 975 189 975 189 850 83.5 c 128,-1,1
540 1187 m 256,22,23
 433 1187 433 1187 365 1130 c 128,-1,24
 297 1073 297 1073 297 967 c 256,25,26
 297 861 297 861 366 803 c 128,-1,27
 435 745 435 745 539 745 c 256,28,29
 643 745 643 745 712 802 c 128,-1,30
 781 859 781 859 781 961 c 256,31,32
 781 1071 781 1071 714 1129 c 128,-1,33
 647 1187 647 1187 540 1187 c 256,22,23
540 630 m 256,34,35
 413 630 413 630 331 560 c 128,-1,36
 249 490 249 490 249 366 c 256,37,38
 249 242 249 242 329.5 167.5 c 128,-1,39
 410 93 410 93 537 93 c 256,40,41
 664 93 664 93 747 166.5 c 128,-1,42
 830 240 830 240 830 364 c 256,43,44
 830 488 830 488 749.5 559 c 128,-1,45
 669 630 669 630 540 630 c 256,34,35
EndSplineSet
Validated: 3073
EndChar

StartChar: nine
Encoding: 57 57 28
Width: 947
VWidth: 2580
GlyphClass: 2
Flags: MW
LayerCount: 2
Fore
SplineSet
971 675 m 256,0,1
 971 -22 971 -22 514 -22 c 256,2,3
 209 -22 209 -22 153 292 c 1,4,-1
 296 292 l 1,5,6
 343 93 343 93 526 93 c 256,7,8
 835 93 835 93 835 632 c 1,9,10
 686 472 686 472 512 472 c 256,11,12
 338 472 338 472 230 587 c 128,-1,13
 122 702 122 702 122 884 c 256,14,15
 122 1066 122 1066 240 1184 c 128,-1,16
 358 1302 358 1302 544 1302 c 256,17,18
 971 1302 971 1302 971 675 c 256,0,1
826 877 m 256,19,20
 826 1010 826 1010 749.5 1098.5 c 128,-1,21
 673 1187 673 1187 545 1187 c 256,22,23
 417 1187 417 1187 342 1101 c 128,-1,24
 267 1015 267 1015 267 882 c 256,25,26
 267 749 267 749 338 668.5 c 128,-1,27
 409 588 409 588 537 588 c 256,28,29
 665 588 665 588 745.5 670 c 128,-1,30
 826 752 826 752 826 877 c 256,19,20
EndSplineSet
Validated: 3073
EndChar

StartChar: colon
Encoding: 58 58 29
Width: 373
VWidth: 2506
GlyphClass: 2
Flags: MW
LayerCount: 2
Fore
SplineSet
147 0 m 1,0,-1
 147 166 l 1,1,-1
 328 166 l 1,2,-1
 328 0 l 1,3,-1
 147 0 l 1,0,-1
147 709 m 1,4,-1
 147 875 l 1,5,-1
 328 875 l 1,6,-1
 328 709 l 1,7,-1
 147 709 l 1,4,-1
EndSplineSet
Validated: 3073
EndChar

StartChar: semicolon
Encoding: 59 59 30
Width: 425
VWidth: 2536
GlyphClass: 2
Flags: MW
LayerCount: 2
Fore
SplineSet
163 709 m 1,0,-1
 163 875 l 1,1,-1
 344 875 l 1,2,-1
 344 709 l 1,3,-1
 163 709 l 1,0,-1
162 -263 m 1,4,-1
 162 -216 l 1,5,6
 245 -209 245 -209 270 -143 c 1,7,8
 279 -111 279 -111 279 0 c 1,9,-1
 162 0 l 1,10,-1
 162 164 l 1,11,-1
 345 164 l 1,12,-1
 345 -40 l 2,13,14
 345 -256 345 -256 162 -263 c 1,4,-1
EndSplineSet
Validated: 3073
EndChar

StartChar: less
Encoding: 60 60 31
Width: 944
VWidth: 2515
GlyphClass: 2
Flags: MW
LayerCount: 2
Fore
SplineSet
86 412 m 5,0,-1
 86 522 l 5,1,-1
 947 886 l 5,2,-1
 947 768 l 5,3,-1
 217 468 l 5,4,-1
 947 166 l 5,5,-1
 947 48 l 5,6,-1
 86 412 l 5,0,-1
EndSplineSet
Validated: 3073
EndChar

StartChar: equal
Encoding: 61 61 32
Width: 973
VWidth: 2515
GlyphClass: 2
Flags: MW
LayerCount: 2
Fore
SplineSet
115 572 m 1,0,-1
 115 677 l 1,1,-1
 965 677 l 1,2,-1
 965 572 l 1,3,-1
 115 572 l 1,0,-1
115 253 m 1,4,-1
 115 361 l 1,5,-1
 965 361 l 1,6,-1
 965 253 l 1,7,-1
 115 253 l 1,4,-1
EndSplineSet
Validated: 3073
EndChar

StartChar: greater
Encoding: 62 62 33
Width: 969
VWidth: 2515
GlyphClass: 2
Flags: MW
LayerCount: 2
Fore
SplineSet
115 48 m 5,0,-1
 115 166 l 5,1,-1
 842 463 l 5,2,-1
 115 768 l 5,3,-1
 115 886 l 5,4,-1
 971 522 l 5,5,-1
 971 412 l 5,6,-1
 115 48 l 5,0,-1
EndSplineSet
Validated: 3073
EndChar

StartChar: question
Encoding: 63 63 34
Width: 939
VWidth: 2475
GlyphClass: 2
Flags: MW
LayerCount: 2
Fore
SplineSet
601 585 m 2,0,1
 547 533 547 533 547 454 c 2,2,-1
 547 374 l 1,3,-1
 407 374 l 1,4,-1
 407 460 l 2,5,6
 407 569 407 569 521 679 c 2,7,-1
 643 797 l 2,8,9
 732 883 732 883 732 988 c 256,10,11
 732 1092 732 1092 663 1147 c 128,-1,12
 594 1202 594 1202 488 1202 c 256,13,14
 247 1202 247 1202 242 925 c 1,15,-1
 113 925 l 1,16,17
 118 1320 118 1320 498 1320 c 256,18,19
 662 1320 662 1320 766.5 1234 c 128,-1,20
 871 1148 871 1148 871 998 c 256,21,22
 871 848 871 848 779 758 c 2,23,-1
 601 585 l 2,0,1
407 18 m 1,24,-1
 407 180 l 1,25,-1
 547 180 l 1,26,-1
 547 18 l 1,27,-1
 407 18 l 1,24,-1
EndSplineSet
Validated: 3073
EndChar

StartChar: at
Encoding: 64 64 35
Width: 1734
VWidth: 2496
GlyphClass: 2
Flags: MW
LayerCount: 2
Fore
SplineSet
1738 690 m 256,0,1
 1738 473 1738 473 1598 308.5 c 152,-1,2
 1458 144 1458 144 1264 144 c 256,3,4
 1102 144 1102 144 1076 294 c 1,5,6
 948 151 948 151 820 151 c 256,7,8
 692 151 692 151 614.5 244.5 c 128,-1,9
 537 338 537 338 537 468 c 256,10,11
 537 650 537 650 669.5 800 c 128,-1,12
 802 950 802 950 985 950 c 256,13,14
 1128 950 1128 950 1203 775 c 1,15,-1
 1248 913 l 1,16,-1
 1372 913 l 1,17,-1
 1218 430 l 2,18,19
 1196 361 1196 361 1196 327.5 c 128,-1,20
 1196 294 1196 294 1226.5 269.5 c 128,-1,21
 1257 245 1257 245 1297 245 c 256,22,23
 1414 245 1414 245 1510 375 c 128,-1,24
 1606 505 1606 505 1606 667 c 256,25,26
 1606 901 1606 901 1414.5 1063 c 128,-1,27
 1223 1225 1223 1225 995 1225 c 256,28,29
 682 1225 682 1225 470 1015 c 0,30,31
 258 806 258 806 258 534 c 256,32,33
 258 262 258 262 450.5 82.5 c 128,-1,34
 643 -97 643 -97 936 -97 c 256,35,36
 1076 -97 1076 -97 1272 -43 c 1,37,-1
 1314 -142 l 1,38,39
 1122 -212 1122 -212 928 -212 c 256,40,41
 611 -212 611 -212 369 -14 c 152,-1,42
 127 184 127 184 127 491 c 256,43,44
 127 842 127 842 382.5 1091 c 128,-1,45
 638 1340 638 1340 992 1340 c 256,46,47
 1282 1340 1282 1340 1510 1154 c 128,-1,48
 1738 968 1738 968 1738 690 c 256,0,1
972 859 m 256,49,50
 852 859 852 859 763.5 735 c 128,-1,51
 675 611 675 611 675 466 c 256,52,53
 675 381 675 381 726.5 313 c 152,-1,54
 778 245 778 245 861 245 c 256,55,56
 990 245 990 245 1071 398.5 c 128,-1,57
 1152 552 1152 552 1152 688 c 0,58,59
 1152 763 1152 763 1100 811 c 128,-1,60
 1048 859 1048 859 972 859 c 256,49,50
EndSplineSet
Validated: 3073
EndChar

StartChar: A
Encoding: 65 65 36
Width: 1214
VWidth: 2476
GlyphClass: 2
Flags: MW
LayerCount: 2
Fore
SplineSet
1056 0 m 1,0,-1
 921 393 l 1,1,-1
 402 393 l 1,2,-1
 266 0 l 1,3,-1
 111 0 l 1,4,-1
 568 1283 l 5,5,-1
 766 1283 l 5,6,-1
 1218 0 l 1,7,-1
 1056 0 l 1,0,-1
665 1149 m 1,8,-1
 435 511 l 1,9,-1
 882 511 l 1,10,-1
 665 1149 l 1,8,-1
EndSplineSet
Validated: 3073
EndChar

StartChar: B
Encoding: 66 66 37
Width: 1081
VWidth: 2476
GlyphClass: 2
Flags: MW
LayerCount: 2
Fore
SplineSet
824 674 m 1,0,1
 1080 583 1080 583 1080 362 c 0,2,3
 1080 195 1080 195 978 97.5 c 128,-1,4
 876 0 876 0 705 0 c 2,5,-1
 123 0 l 1,6,-1
 123 1280 l 1,7,-1
 646 1280 l 2,8,9
 828 1280 828 1280 925 1195 c 128,-1,10
 1022 1110 1022 1110 1022 966 c 256,11,12
 1022 767 1022 767 824 674 c 1,0,1
604 1155 m 2,13,-1
 268 1155 l 1,14,-1
 268 719 l 1,15,-1
 604 719 l 2,16,17
 720 719 720 719 799 779 c 128,-1,18
 878 839 878 839 878 945 c 256,19,20
 878 1025 878 1025 812.5 1090 c 128,-1,21
 747 1155 747 1155 604 1155 c 2,13,-1
937 358 m 256,22,23
 937 508 937 508 841 551 c 128,-1,24
 745 594 745 594 612 594 c 2,25,-1
 268 594 l 1,26,-1
 268 125 l 1,27,-1
 688 125 l 2,28,29
 801 125 801 125 869 185.5 c 128,-1,30
 937 246 937 246 937 358 c 256,22,23
EndSplineSet
Validated: 3073
EndChar

StartChar: C
Encoding: 67 67 38
Width: 1199
VWidth: 2429
GlyphClass: 2
Flags: MW
LayerCount: 2
Fore
SplineSet
704 -23 m 256,0,1
 460 -23 460 -23 293.5 139.5 c 128,-1,2
 127 302 127 302 127 635 c 256,3,4
 127 929 127 929 277 1116.5 c 128,-1,5
 427 1304 427 1304 712 1304 c 256,6,7
 1120 1304 1120 1304 1199 906 c 1,8,-1
 1054 906 l 1,9,10
 991 1179 991 1179 692 1179 c 256,11,12
 473 1179 473 1179 372.5 1020.5 c 128,-1,13
 272 862 272 862 272 638 c 256,14,15
 272 370 272 370 394.5 236 c 128,-1,16
 517 102 517 102 707 102 c 256,17,18
 1017 102 1017 102 1079 465 c 1,19,-1
 1228 465 l 1,20,21
 1164 -23 1164 -23 704 -23 c 256,0,1
EndSplineSet
Validated: 3073
EndChar

StartChar: D
Encoding: 68 68 39
Width: 1138
VWidth: 2476
GlyphClass: 2
Flags: MW
LayerCount: 2
Fore
SplineSet
975.5 135.5 m 128,-1,1
 808 0 808 0 619 0 c 2,2,-1
 127 0 l 1,3,-1
 127 1280 l 1,4,-1
 619 1280 l 2,5,6
 885 1280 885 1280 1014 1098 c 128,-1,7
 1143 916 1143 916 1143 641 c 256,8,0
 1143 271 1143 271 975.5 135.5 c 128,-1,1
592 1155 m 2,9,-1
 270 1155 l 1,10,-1
 270 125 l 1,11,-1
 592 125 l 2,12,13
 997 125 997 125 997 640 c 256,14,15
 997 1155 997 1155 592 1155 c 2,9,-1
EndSplineSet
Validated: 3073
EndChar

StartChar: E
Encoding: 69 69 40
Width: 1021
VWidth: 2476
GlyphClass: 2
Flags: MW
LayerCount: 2
Fore
SplineSet
125 0 m 5,0,-1
 125 1280 l 1,1,-1
 1011 1280 l 1,2,-1
 1011 1155 l 1,3,-1
 270 1155 l 1,4,-1
 270 719 l 1,5,-1
 985 719 l 1,6,-1
 985 594 l 1,7,-1
 270 594 l 1,8,-1
 270 125 l 5,9,-1
 1044 125 l 5,10,-1
 1044 0 l 5,11,-1
 125 0 l 5,0,-1
EndSplineSet
Validated: 3073
EndChar

StartChar: F
Encoding: 70 70 41
Width: 961
VWidth: 2476
GlyphClass: 2
Flags: MW
LayerCount: 2
Fore
SplineSet
270 1155 m 1,0,-1
 270 719 l 1,1,-1
 899 719 l 1,2,-1
 899 594 l 1,3,-1
 270 594 l 1,4,-1
 270 0 l 5,5,-1
 125 0 l 5,6,-1
 125 1280 l 1,7,-1
 986 1280 l 1,8,-1
 986 1155 l 1,9,-1
 270 1155 l 1,0,-1
EndSplineSet
Validated: 3073
EndChar

StartChar: G
Encoding: 71 71 42
Width: 1286
VWidth: 2476
GlyphClass: 2
Flags: MW
LayerCount: 2
Fore
SplineSet
1204 12 m 1,0,-1
 1160 194 l 1,1,2
 963 -22 963 -22 700 -22 c 256,3,4
 437 -22 437 -22 279 169.5 c 128,-1,5
 121 361 121 361 121 625 c 256,6,7
 121 929 121 929 284.5 1116 c 128,-1,8
 448 1303 448 1303 737 1303 c 256,9,10
 1190 1303 1190 1303 1270 916 c 1,11,-1
 1123 916 l 1,12,13
 1091 1044 1091 1044 987.5 1111 c 128,-1,14
 884 1178 884 1178 739 1178 c 256,15,16
 503 1178 503 1178 384.5 1026 c 128,-1,17
 266 874 266 874 266 643 c 256,18,19
 266 412 266 412 387.5 257.5 c 128,-1,20
 509 103 509 103 745 103 c 256,21,22
 927 103 927 103 1046 213.5 c 128,-1,23
 1165 324 1165 324 1165 506 c 2,24,-1
 1165 553 l 1,25,-1
 770 553 l 1,26,-1
 770 678 l 1,27,-1
 1291 678 l 1,28,-1
 1291 12 l 1,29,-1
 1204 12 l 1,0,-1
EndSplineSet
Validated: 3073
EndChar

StartChar: H
Encoding: 72 72 43
Width: 1110
VWidth: 2476
GlyphClass: 2
Flags: MW
LayerCount: 2
Fore
SplineSet
967 0 m 5,0,-1
 967 594 l 1,1,-1
 270 594 l 1,2,-1
 270 0 l 5,3,-1
 125 0 l 5,4,-1
 125 1280 l 1,5,-1
 270 1280 l 1,6,-1
 270 719 l 1,7,-1
 967 719 l 1,8,-1
 967 1280 l 1,9,-1
 1110 1280 l 1,10,-1
 1110 0 l 5,11,-1
 967 0 l 5,0,-1
EndSplineSet
Validated: 3073
EndChar

StartChar: I
Encoding: 73 73 44
Width: 293
VWidth: 2476
GlyphClass: 2
Flags: MW
LayerCount: 2
Fore
SplineSet
141 0 m 1,0,-1
 141 1280 l 5,1,-1
 286 1280 l 1,2,-1
 286 0 l 1,3,-1
 141 0 l 1,0,-1
EndSplineSet
Validated: 3073
EndChar

StartChar: J
Encoding: 74 74 45
Width: 838
VWidth: 2478
GlyphClass: 2
Flags: MW
LayerCount: 2
Fore
SplineSet
747 70 m 128,-1,1
 651 -23 651 -23 485 -23 c 256,2,3
 319 -23 319 -23 223 63 c 128,-1,4
 127 149 127 149 127 306 c 2,5,-1
 127 409 l 1,6,-1
 272 409 l 1,7,-1
 272 336 l 2,8,9
 272 102 272 102 485 102 c 256,10,11
 698 102 698 102 698 388 c 2,12,-1
 698 1280 l 1,13,-1
 843 1280 l 1,14,-1
 843 328 l 2,15,0
 843 163 843 163 747 70 c 128,-1,1
EndSplineSet
Validated: 3073
EndChar

StartChar: K
Encoding: 75 75 46
Width: 1099
VWidth: 2476
GlyphClass: 2
Flags: MW
LayerCount: 2
Fore
SplineSet
963 0 m 5,0,-1
 496 675 l 1,1,-1
 270 449 l 1,2,-1
 270 0 l 5,3,-1
 125 0 l 5,4,-1
 125 1280 l 1,5,-1
 270 1280 l 1,6,-1
 270 604 l 1,7,-1
 939 1280 l 1,8,-1
 1122 1280 l 1,9,-1
 601 761 l 1,10,-1
 1133 0 l 5,11,-1
 963 0 l 5,0,-1
EndSplineSet
Validated: 3073
EndChar

StartChar: L
Encoding: 76 76 47
Width: 912
VWidth: 2476
GlyphClass: 2
Flags: MW
LayerCount: 2
Fore
SplineSet
125 0 m 1,0,-1
 125 1280 l 5,1,-1
 270 1280 l 5,2,-1
 270 125 l 1,3,-1
 920 125 l 1,4,-1
 920 0 l 1,5,-1
 125 0 l 1,0,-1
EndSplineSet
Validated: 3073
EndChar

StartChar: M
Encoding: 77 77 48
Width: 1349
VWidth: 2476
GlyphClass: 2
Flags: MW
LayerCount: 2
Fore
SplineSet
1206 0 m 5,0,-1
 1206 1149 l 1,1,-1
 820 0 l 5,2,-1
 660 0 l 5,3,-1
 272 1149 l 1,4,-1
 272 0 l 5,5,-1
 127 0 l 5,6,-1
 137 1280 l 1,7,-1
 348 1280 l 1,8,-1
 742 119 l 1,9,-1
 1129 1280 l 1,10,-1
 1351 1280 l 1,11,-1
 1351 0 l 5,12,-1
 1206 0 l 5,0,-1
EndSplineSet
Validated: 3073
EndChar

StartChar: N
Encoding: 78 78 49
Width: 1146
VWidth: 2476
GlyphClass: 2
Flags: MW
LayerCount: 2
Fore
SplineSet
967 0 m 5,0,-1
 272 1086 l 1,1,-1
 272 0 l 5,2,-1
 127 0 l 5,3,-1
 127 1283 l 1,4,-1
 301 1283 l 1,5,-1
 1004 192 l 1,6,-1
 1004 1283 l 1,7,-1
 1149 1283 l 1,8,-1
 1149 0 l 5,9,-1
 967 0 l 5,0,-1
EndSplineSet
Validated: 3073
EndChar

StartChar: O
Encoding: 79 79 50
Width: 1356
VWidth: 2477
GlyphClass: 2
Flags: MW
LayerCount: 2
Fore
SplineSet
743 -23 m 256,0,1
 460 -23 460 -23 293.5 163.5 c 128,-1,2
 127 350 127 350 127 638 c 256,3,4
 127 926 127 926 291.5 1114.5 c 128,-1,5
 456 1303 456 1303 746 1303 c 256,6,7
 1036 1303 1036 1303 1199.5 1114 c 128,-1,8
 1363 925 1363 925 1363 636 c 256,9,10
 1363 347 1363 347 1194.5 162 c 128,-1,11
 1026 -23 1026 -23 743 -23 c 256,0,1
272 639 m 256,12,13
 272 414 272 414 394 257.5 c 128,-1,14
 516 101 516 101 741 101 c 256,15,16
 969 101 969 101 1093.5 255.5 c 128,-1,17
 1218 410 1218 410 1218 638 c 256,18,19
 1218 866 1218 866 1097.5 1022 c 128,-1,20
 977 1178 977 1178 748 1178 c 256,21,22
 519 1178 519 1178 395.5 1023 c 128,-1,23
 272 868 272 868 272 639 c 256,12,13
EndSplineSet
Validated: 3073
EndChar

StartChar: P
Encoding: 80 80 51
Width: 1041
VWidth: 2476
GlyphClass: 2
Flags: MW
LayerCount: 2
Fore
SplineSet
693 552 m 2,0,-1
 270 552 l 1,1,-1
 270 0 l 1,2,-1
 125 0 l 1,3,-1
 125 1280 l 1,4,-1
 655 1280 l 2,5,6
 1044 1280 1044 1280 1044 909 c 256,7,8
 1044 747 1044 747 950.5 649.5 c 128,-1,9
 857 552 857 552 693 552 c 2,0,-1
631 1155 m 2,10,-1
 270 1155 l 1,11,-1
 270 677 l 1,12,-1
 631 677 l 2,13,14
 749 677 749 677 824 737.5 c 128,-1,15
 899 798 899 798 899 916 c 256,16,17
 899 1034 899 1034 825 1094.5 c 128,-1,18
 751 1155 751 1155 631 1155 c 2,10,-1
EndSplineSet
Validated: 3073
EndChar

StartChar: Q
Encoding: 81 81 52
Width: 1342
VWidth: 2481
GlyphClass: 2
Flags: MW
LayerCount: 2
Fore
SplineSet
1169 140 m 1,0,-1
 1340 2 l 1,1,-1
 1270 -82 l 1,2,-1
 1084 68 l 1,3,4
 927 -22 927 -22 742 -22 c 256,5,6
 454 -22 454 -22 288.5 164 c 128,-1,7
 123 350 123 350 123 640 c 256,8,9
 123 930 123 930 287.5 1116.5 c 128,-1,10
 452 1303 452 1303 740 1303 c 256,11,12
 1028 1303 1028 1303 1194.5 1116.5 c 128,-1,13
 1361 930 1361 930 1361 637 c 256,14,15
 1361 344 1361 344 1169 140 c 1,0,-1
742 1178 m 256,16,17
 512 1178 512 1178 390 1023.5 c 128,-1,18
 268 869 268 869 268 639 c 256,19,20
 268 415 268 415 385 259 c 128,-1,21
 502 103 502 103 747 103 c 256,22,23
 865 103 865 103 975 165 c 1,24,-1
 838 269 l 1,25,-1
 906 351 l 1,26,-1
 1064 225 l 1,27,28
 1216 393 1216 393 1216 631 c 256,29,30
 1216 869 1216 869 1095 1023.5 c 128,-1,31
 974 1178 974 1178 742 1178 c 256,16,17
EndSplineSet
Validated: 3073
EndChar

StartChar: R
Encoding: 82 82 53
Width: 1128
VWidth: 2476
GlyphClass: 2
Flags: MW
LayerCount: 2
Fore
SplineSet
972 0 m 1,0,1
 939 80 939 80 939 331 c 256,2,3
 939 561 939 561 712 561 c 2,4,-1
 270 561 l 1,5,-1
 270 0 l 1,6,-1
 125 0 l 1,7,-1
 125 1280 l 1,8,-1
 717 1280 l 2,9,10
 1103 1280 1103 1280 1103 943 c 256,11,12
 1103 831 1103 831 1052.5 760.5 c 128,-1,13
 1002 690 1002 690 885 631 c 1,14,15
 1000 582 1000 582 1039.5 511 c 128,-1,16
 1079 440 1079 440 1079 312 c 256,17,18
 1079 84 1079 84 1155 24 c 1,19,-1
 1155 0 l 1,20,-1
 972 0 l 1,0,1
686 1155 m 2,21,-1
 270 1155 l 1,22,-1
 270 686 l 1,23,-1
 686 686 l 2,24,25
 943 686 943 686 943 920 c 256,26,27
 943 1154 943 1154 686 1155 c 2,21,-1
EndSplineSet
Validated: 3073
EndChar

StartChar: S
Encoding: 83 83 54
Width: 1083
VWidth: 2476
GlyphClass: 2
Flags: MW
LayerCount: 2
Fore
SplineSet
956 71 m 128,-1,1
 814 -23 814 -23 588 -23 c 256,2,3
 368 -23 368 -23 232.5 84 c 128,-1,4
 97 191 97 191 90 404 c 1,5,-1
 228 404 l 1,6,7
 233 102 233 102 606 102 c 256,8,9
 953 102 953 102 953 343 c 256,10,11
 953 499 953 499 704 564 c 2,12,-1
 380 648 l 2,13,14
 130 713 130 713 130 937 c 256,15,16
 130 1120 130 1120 259 1211.5 c 128,-1,17
 388 1303 388 1303 591 1303 c 256,18,19
 794 1303 794 1303 921.5 1210 c 128,-1,20
 1049 1117 1049 1117 1054 928 c 1,21,-1
 918 928 l 1,22,23
 909 1178 909 1178 580 1178 c 256,24,25
 441 1178 441 1178 358 1128 c 128,-1,26
 275 1078 275 1078 275 962 c 256,27,28
 275 818 275 818 498 759 c 2,29,-1
 828 672 l 2,30,31
 1098 601 1098 601 1098 357 c 256,32,0
 1098 165 1098 165 956 71 c 128,-1,1
EndSplineSet
Validated: 3073
EndChar

StartChar: T
Encoding: 84 84 55
Width: 1060
VWidth: 2476
GlyphClass: 2
Flags: MW
LayerCount: 2
Fore
SplineSet
667 1155 m 1,0,-1
 667 0 l 5,1,-1
 522 0 l 5,2,-1
 522 1155 l 1,3,-1
 92 1155 l 1,4,-1
 92 1280 l 1,5,-1
 1098 1280 l 1,6,-1
 1098 1155 l 1,7,-1
 667 1155 l 1,0,-1
EndSplineSet
Validated: 3073
EndChar

StartChar: U
Encoding: 85 85 56
Width: 1106
VWidth: 2479
GlyphClass: 2
Flags: MW
LayerCount: 2
Fore
SplineSet
1108 390 m 2,0,1
 1108 191 1108 191 968 84 c 128,-1,2
 828 -23 828 -23 612 -23 c 256,3,4
 396 -23 396 -23 260.5 81 c 128,-1,5
 125 185 125 185 125 390 c 2,6,-1
 125 1280 l 1,7,-1
 270 1280 l 1,8,-1
 270 390 l 2,9,10
 270 102 270 102 616 102 c 256,11,12
 962 102 962 102 963 390 c 2,13,-1
 963 1280 l 1,14,-1
 1108 1280 l 1,15,-1
 1108 390 l 2,0,1
EndSplineSet
Validated: 3073
EndChar

StartChar: V
Encoding: 86 86 57
Width: 1134
VWidth: 2476
GlyphClass: 2
Flags: MW
LayerCount: 2
Fore
SplineSet
720 0 m 5,0,-1
 556 0 l 5,1,-1
 94 1280 l 1,2,-1
 251 1280 l 1,3,-1
 642 154 l 1,4,-1
 1013 1280 l 1,5,-1
 1165 1280 l 1,6,-1
 720 0 l 5,0,-1
EndSplineSet
Validated: 3073
EndChar

StartChar: W
Encoding: 87 87 58
Width: 1644
VWidth: 2476
GlyphClass: 2
Flags: MW
LayerCount: 2
Fore
SplineSet
1351 0 m 5,0,-1
 1187 0 l 5,1,-1
 880 1101 l 1,2,-1
 580 0 l 5,3,-1
 414 0 l 5,4,-1
 88 1280 l 1,5,-1
 250 1280 l 1,6,-1
 503 186 l 1,7,-1
 800 1280 l 1,8,-1
 960 1280 l 1,9,-1
 1267 186 l 1,10,-1
 1513 1280 l 1,11,-1
 1675 1280 l 1,12,-1
 1351 0 l 5,0,-1
EndSplineSet
Validated: 3073
EndChar

StartChar: X
Encoding: 88 88 59
Width: 1154
VWidth: 2476
GlyphClass: 2
Flags: MW
LayerCount: 2
Fore
SplineSet
1000 0 m 5,0,-1
 639 552 l 1,1,-1
 273 0 l 5,2,-1
 98 0 l 5,3,-1
 553 658 l 1,4,-1
 126 1280 l 1,5,-1
 302 1280 l 1,6,-1
 644 759 l 1,7,-1
 986 1280 l 1,8,-1
 1158 1280 l 1,9,-1
 726 658 l 1,10,-1
 1179 0 l 5,11,-1
 1000 0 l 5,0,-1
EndSplineSet
Validated: 3073
EndChar

StartChar: Y
Encoding: 89 89 60
Width: 1195
VWidth: 2476
GlyphClass: 2
Flags: MW
LayerCount: 2
Fore
SplineSet
733 503 m 1,0,-1
 733 0 l 5,1,-1
 588 0 l 5,2,-1
 588 503 l 1,3,-1
 94 1280 l 1,4,-1
 274 1280 l 1,5,-1
 664 635 l 1,6,-1
 1043 1280 l 1,7,-1
 1214 1280 l 1,8,-1
 733 503 l 1,0,-1
EndSplineSet
Validated: 3073
EndChar

StartChar: Z
Encoding: 90 90 61
Width: 1054
VWidth: 2476
GlyphClass: 2
Flags: MW
LayerCount: 2
Fore
SplineSet
86 0 m 1,0,-1
 86 133 l 1,1,-1
 885 1155 l 1,2,-1
 137 1155 l 1,3,-1
 137 1280 l 5,4,-1
 1057 1280 l 1,5,-1
 1057 1142 l 1,6,-1
 262 125 l 1,7,-1
 1061 125 l 1,8,-1
 1061 0 l 1,9,-1
 86 0 l 1,0,-1
EndSplineSet
Validated: 3073
EndChar

StartChar: bracketleft
Encoding: 91 91 62
Width: 459
VWidth: 2508
GlyphClass: 2
Flags: MW
LayerCount: 2
Fore
SplineSet
127 -374 m 5,0,-1
 127 1280 l 5,1,-1
 453 1280 l 5,2,-1
 453 1174 l 5,3,-1
 260 1174 l 5,4,-1
 260 -268 l 5,5,-1
 453 -268 l 5,6,-1
 453 -374 l 5,7,-1
 127 -374 l 5,0,-1
EndSplineSet
Validated: 3073
EndChar

StartChar: backslash
Encoding: 92 92 63
Width: 572
VWidth: 2479
GlyphClass: 2
Flags: MW
LayerCount: 2
Fore
SplineSet
501 -30 m 1,0,-1
 74 1286 l 1,1,-1
 211 1286 l 1,2,-1
 638 -30 l 1,3,-1
 501 -30 l 1,0,-1
EndSplineSet
Validated: 3073
EndChar

StartChar: bracketright
Encoding: 93 93 64
Width: 451
VWidth: 2508
GlyphClass: 2
Flags: MW
LayerCount: 2
Fore
SplineSet
84 -374 m 5,0,-1
 84 -268 l 5,1,-1
 278 -268 l 5,2,-1
 278 1174 l 5,3,-1
 84 1174 l 5,4,-1
 84 1280 l 5,5,-1
 410 1280 l 5,6,-1
 410 -374 l 5,7,-1
 84 -374 l 5,0,-1
EndSplineSet
Validated: 19457
EndChar

StartChar: asciicircum
Encoding: 94 94 65
Width: 722
VWidth: 2425
GlyphClass: 2
Flags: MW
LayerCount: 2
Fore
SplineSet
652 562 m 5,0,-1
 422 1128 l 5,1,-1
 195 562 l 5,2,-1
 94 562 l 5,3,-1
 362 1231 l 5,4,-1
 481 1231 l 5,5,-1
 753 562 l 5,6,-1
 652 562 l 5,0,-1
EndSplineSet
Validated: 3073
EndChar

StartChar: underscore
Encoding: 95 95 66
Width: 999
VWidth: 2627
GlyphClass: 2
Flags: MW
LayerCount: 2
Fore
SplineSet
35 -171 m 1,0,-1
 35 -61 l 5,1,-1
 1089 -61 l 5,2,-1
 1089 -171 l 1,3,-1
 35 -171 l 1,0,-1
EndSplineSet
Validated: 3073
EndChar

StartChar: grave
Encoding: 96 96 67
Width: 490
VWidth: 2339
GlyphClass: 2
Flags: MW
LayerCount: 2
Fore
SplineSet
431 887 m 5,0,-1
 178 1148 l 5,1,-1
 353 1148 l 5,2,-1
 517 887 l 5,3,-1
 431 887 l 5,0,-1
EndSplineSet
Validated: 3073
EndChar

StartChar: a
Encoding: 97 97 68
Width: 965
VWidth: 2459
GlyphClass: 2
Flags: MW
LayerCount: 2
Fore
SplineSet
892 -23 m 256,0,1
 761 -23 761 -23 742 127 c 1,2,3
 566 -23 566 -23 418 -23 c 256,4,5
 270 -23 270 -23 186 44.5 c 128,-1,6
 102 112 102 112 102 243 c 256,7,8
 102 366 102 366 174 425.5 c 128,-1,9
 246 485 246 485 463 518 c 256,10,11
 633 543 633 543 686.5 562.5 c 128,-1,12
 740 582 740 582 740 678 c 256,13,14
 740 828 740 828 521 828 c 256,15,16
 302 828 302 828 278 664 c 1,17,-1
 147 664 l 1,18,19
 165 943 165 943 517 943 c 260,20,21
 869 943 869 943 869 701 c 2,22,-1
 869 164 l 2,23,24
 869 80 869 80 963 80 c 2,25,-1
 986 80 l 1,26,-1
 986 -8 l 1,27,28
 929 -23 929 -23 892 -23 c 256,0,1
740 482 m 1,29,30
 686 458 686 458 595.5 444 c 128,-1,31
 505 430 505 430 437 416 c 256,32,33
 240 374 240 374 240 245 c 256,34,35
 240 87 240 87 440 87 c 256,36,37
 610 87 610 87 675 166 c 128,-1,38
 740 245 740 245 740 302 c 2,39,-1
 740 482 l 1,29,30
EndSplineSet
Validated: 3073
EndChar

StartChar: b
Encoding: 98 98 69
Width: 954
VWidth: 2430
GlyphClass: 2
Flags: MW
LayerCount: 2
Fore
SplineSet
555 -23 m 256,0,1
 369 -23 369 -23 243 161 c 1,2,-1
 243 0 l 1,3,-1
 129 0 l 1,4,-1
 129 1280 l 1,5,-1
 257 1280 l 1,6,-1
 257 764 l 1,7,8
 378 943 378 943 568 943 c 260,9,10
 758 943 758 943 857 808 c 128,-1,11
 956 673 956 673 956 471 c 256,12,13
 956 253 956 253 851.5 115 c 128,-1,14
 747 -23 747 -23 555 -23 c 256,0,1
750.5 716.5 m 128,-1,16
 681 828 681 828 538 828 c 256,17,18
 395 828 395 828 326 713 c 128,-1,19
 257 598 257 598 257 459 c 256,20,21
 257 296 257 296 333.5 194 c 128,-1,22
 410 92 410 92 545 92 c 256,23,24
 680 92 680 92 750 200.5 c 128,-1,25
 820 309 820 309 820 457 c 256,26,15
 820 605 820 605 750.5 716.5 c 128,-1,16
EndSplineSet
Validated: 3073
EndChar

StartChar: c
Encoding: 99 99 70
Width: 895
VWidth: 2459
GlyphClass: 2
Flags: MW
LayerCount: 2
Fore
SplineSet
534 -23 m 256,0,1
 332 -23 332 -23 227.5 115 c 128,-1,2
 123 253 123 253 123 464 c 256,3,4
 123 676 123 676 233 809.5 c 128,-1,5
 343 943 343 943 536 943 c 256,6,7
 865 943 865 943 900 626 c 1,8,-1
 770 626 l 1,9,10
 739 828 739 828 534 828 c 260,11,12
 382 828 382 828 320.5 716 c 128,-1,13
 259 604 259 604 259 457 c 256,14,15
 259 310 259 310 324 201 c 128,-1,16
 389 92 389 92 540 92 c 256,17,18
 738 92 738 92 782 316 c 1,19,-1
 912 316 l 1,20,21
 895 157 895 157 796.5 67 c 128,-1,22
 698 -23 698 -23 534 -23 c 256,0,1
EndSplineSet
Validated: 3073
EndChar

StartChar: d
Encoding: 100 100 71
Width: 949
VWidth: 2430
GlyphClass: 2
Flags: MW
LayerCount: 2
Fore
SplineSet
838 0 m 1,0,-1
 838 163 l 1,1,2
 706 -23 706 -23 514 -23 c 256,3,4
 322 -23 322 -23 223.5 118 c 128,-1,5
 125 259 125 259 125 462 c 256,6,7
 125 665 125 665 225 804 c 128,-1,8
 325 943 325 943 516 943 c 256,9,10
 707 943 707 943 821 774 c 1,11,-1
 821 1280 l 1,12,-1
 949 1280 l 1,13,-1
 949 0 l 1,14,-1
 838 0 l 1,0,-1
545 828 m 260,15,16
 400 828 400 828 329.5 716 c 128,-1,17
 259 604 259 604 259 459 c 256,18,19
 259 311 259 311 329 201.5 c 128,-1,20
 399 92 399 92 542 92 c 256,21,22
 686 92 686 92 753.5 202.5 c 128,-1,23
 821 313 821 313 821 459 c 256,24,25
 821 605 821 605 756 716.5 c 128,-1,26
 691 828 691 828 545 828 c 260,15,16
EndSplineSet
Validated: 3073
EndChar

StartChar: e
Encoding: 101 101 72
Width: 953
VWidth: 2458
GlyphClass: 2
Flags: MW
LayerCount: 2
Fore
SplineSet
253 431 m 1,0,1
 256 284 256 284 328 188 c 128,-1,2
 400 92 400 92 546 92 c 256,3,4
 739 92 739 92 804 276 c 1,5,-1
 937 276 l 1,6,7
 870 -23 870 -23 541 -23 c 256,8,9
 333 -23 333 -23 226 112 c 128,-1,10
 119 247 119 247 119 450 c 256,11,12
 119 653 119 653 227 798 c 128,-1,13
 335 943 335 943 531 943 c 256,14,15
 727 943 727 943 841.5 831 c 128,-1,16
 956 719 956 719 959 431 c 1,17,-1
 253 431 l 1,0,1
814 529 m 1,18,19
 813 652 813 652 741 740 c 128,-1,20
 669 828 669 828 541 828 c 260,21,22
 413 828 413 828 340 739.5 c 128,-1,23
 267 651 267 651 256 529 c 1,24,-1
 814 529 l 1,18,19
EndSplineSet
Validated: 3073
EndChar

StartChar: f
Encoding: 102 102 73
Width: 524
VWidth: 2428
GlyphClass: 2
Flags: MW
LayerCount: 2
Fore
SplineSet
237 1078 m 2,0,1
 237 1280 237 1280 453 1280 c 256,2,3
 490 1280 490 1280 527 1275 c 1,4,-1
 527 1172 l 1,5,-1
 485 1172 l 2,6,7
 367 1172 367 1172 367 1066 c 2,8,-1
 367 914 l 1,9,-1
 527 914 l 1,10,-1
 527 814 l 1,11,-1
 367 814 l 1,12,-1
 367 0 l 1,13,-1
 237 0 l 1,14,-1
 237 814 l 1,15,-1
 106 814 l 1,16,-1
 106 914 l 1,17,-1
 237 914 l 1,18,-1
 237 1078 l 2,0,1
EndSplineSet
Validated: 3073
EndChar

StartChar: g
Encoding: 103 103 74
Width: 926
VWidth: 2486
GlyphClass: 2
Flags: MW
LayerCount: 2
Fore
SplineSet
519 -362 m 256,0,1
 189 -362 189 -362 155 -104 c 1,2,-1
 285 -104 l 1,3,4
 314 -246 314 -246 512 -247 c 256,5,6
 707 -247 707 -247 752.5 -152 c 128,-1,7
 798 -57 798 -57 798 150 c 1,8,9
 681 -24 681 -24 500 -24 c 256,10,11
 319 -24 319 -24 221 118.5 c 128,-1,12
 123 261 123 261 123 466 c 256,13,14
 123 671 123 671 229.5 807 c 128,-1,15
 336 943 336 943 511 943 c 256,16,17
 686 943 686 943 813 761 c 1,18,-1
 813 920 l 1,19,-1
 931 920 l 1,20,-1
 931 158 l 2,21,22
 931 -99 931 -99 847 -230.5 c 128,-1,23
 763 -362 763 -362 519 -362 c 256,0,1
531 828 m 256,24,25
 386 828 386 828 320.5 717 c 128,-1,26
 255 606 255 606 255 460 c 256,27,28
 255 314 255 314 319.5 203 c 128,-1,29
 384 92 384 92 530 92 c 256,30,31
 676 92 676 92 737 200 c 128,-1,32
 798 308 798 308 798 454 c 256,33,34
 798 828 798 828 531 828 c 256,24,25
EndSplineSet
Validated: 3073
EndChar

StartChar: h
Encoding: 104 104 75
Width: 853
VWidth: 2428
GlyphClass: 2
Flags: MW
LayerCount: 2
Fore
SplineSet
728 0 m 1,0,-1
 728 641 l 2,1,2
 728 732 728 732 670 782.5 c 128,-1,3
 612 833 612 833 519 833 c 256,4,5
 385 833 385 833 317.5 738.5 c 128,-1,6
 250 644 250 644 250 508 c 2,7,-1
 250 0 l 1,8,-1
 123 0 l 1,9,-1
 123 1280 l 1,10,-1
 250 1280 l 1,11,-1
 250 767 l 1,12,13
 388 943 388 943 566 943 c 256,14,15
 696 943 696 943 775.5 882 c 128,-1,16
 855 821 855 821 855 701 c 2,17,-1
 855 0 l 1,18,-1
 728 0 l 1,0,-1
EndSplineSet
Validated: 3073
EndChar

StartChar: i
Encoding: 105 105 76
Width: 249
VWidth: 2428
GlyphClass: 2
Flags: MW
LayerCount: 2
Fore
SplineSet
121 1115 m 5,0,-1
 121 1280 l 5,1,-1
 250 1280 l 5,2,-1
 250 1115 l 5,3,-1
 121 1115 l 5,0,-1
123 0 m 1,4,-1
 123 916 l 5,5,-1
 250 916 l 5,6,-1
 250 0 l 1,7,-1
 123 0 l 1,4,-1
EndSplineSet
Validated: 3073
EndChar

StartChar: j
Encoding: 106 106 77
Width: 326
VWidth: 2460
GlyphClass: 2
Flags: MW
LayerCount: 2
Fore
SplineSet
202 1115 m 1,0,-1
 202 1280 l 1,1,-1
 329 1280 l 1,2,-1
 329 1115 l 1,3,-1
 202 1115 l 1,0,-1
92 -362 m 256,4,5
 55 -362 55 -362 31 -357 c 1,6,-1
 31 -252 l 1,7,8
 57 -252 l 2,9,10
 202 -252 202 -252 202 -122 c 2,11,-1
 202 916 l 1,12,-1
 329 916 l 1,13,-1
 329 -178 l 2,14,15
 329 -362 329 -362 92 -362 c 256,4,5
EndSplineSet
Validated: 3073
EndChar

StartChar: k
Encoding: 107 107 78
Width: 861
VWidth: 2428
GlyphClass: 2
Flags: MW
LayerCount: 2
Fore
SplineSet
735 0 m 1,0,-1
 410 515 l 1,1,-1
 250 360 l 1,2,-1
 250 0 l 1,3,-1
 123 0 l 1,4,-1
 123 1280 l 5,5,-1
 250 1280 l 5,6,-1
 250 503 l 1,7,-1
 669 916 l 1,8,-1
 831 916 l 1,9,-1
 514 606 l 1,10,-1
 894 0 l 1,11,-1
 735 0 l 1,0,-1
EndSplineSet
Validated: 3073
EndChar

StartChar: l
Encoding: 108 108 79
Width: 247
VWidth: 2428
GlyphClass: 2
Flags: MW
LayerCount: 2
Fore
SplineSet
125 0 m 1,0,-1
 125 1280 l 5,1,-1
 252 1280 l 5,2,-1
 252 0 l 1,3,-1
 125 0 l 1,0,-1
EndSplineSet
Validated: 3073
EndChar

StartChar: m
Encoding: 109 109 80
Width: 1339
VWidth: 2456
GlyphClass: 2
Flags: MW
LayerCount: 2
Fore
SplineSet
1213 0 m 1,0,-1
 1213 636 l 2,1,2
 1213 833 1213 833 1029 833 c 256,3,4
 926 833 926 833 860.5 756.5 c 128,-1,5
 795 680 795 680 795 577 c 2,6,-1
 795 0 l 1,7,-1
 668 0 l 1,8,-1
 668 636 l 2,9,10
 668 833 668 833 483 833 c 256,11,12
 383 833 383 833 317.5 756.5 c 128,-1,13
 252 680 252 680 252 577 c 2,14,-1
 252 0 l 1,15,-1
 125 0 l 1,16,-1
 125 920 l 1,17,-1
 240 920 l 1,18,-1
 240 759 l 1,19,20
 371 943 371 943 541 943 c 256,21,22
 711 943 711 943 791 792 c 1,23,24
 915 943 915 943 1081 943 c 256,25,26
 1340 943 1340 943 1340 693 c 2,27,-1
 1340 0 l 1,28,-1
 1213 0 l 1,0,-1
EndSplineSet
Validated: 3073
EndChar

StartChar: n
Encoding: 110 110 81
Width: 853
VWidth: 2456
GlyphClass: 2
Flags: MW
LayerCount: 2
Fore
SplineSet
726 0 m 1,0,-1
 726 639 l 2,1,2
 726 732 726 732 669 782.5 c 128,-1,3
 612 833 612 833 519 833 c 256,4,5
 383 833 383 833 317 737.5 c 128,-1,6
 251 642 251 642 251 508 c 2,7,-1
 251 0 l 1,8,-1
 123 0 l 1,9,-1
 123 920 l 1,10,-1
 239 920 l 1,11,-1
 239 732 l 1,12,13
 374 943 374 943 564 943 c 256,14,15
 694 943 694 943 773.5 881.5 c 128,-1,16
 853 820 853 820 853 698 c 2,17,-1
 853 0 l 1,18,-1
 726 0 l 1,0,-1
EndSplineSet
Validated: 3073
EndChar

StartChar: o
Encoding: 111 111 82
Width: 951
VWidth: 2458
GlyphClass: 2
Flags: MW
LayerCount: 2
Fore
SplineSet
535 -23 m 256,0,1
 327 -23 327 -23 223 111 c 128,-1,2
 119 245 119 245 119 459 c 256,3,4
 119 673 119 673 222 808 c 128,-1,5
 325 943 325 943 535 943 c 256,6,7
 745 943 745 943 847 808 c 128,-1,8
 949 673 949 673 949 457 c 256,9,10
 949 241 949 241 846 109 c 128,-1,11
 743 -23 743 -23 535 -23 c 256,0,1
534 828 m 256,12,13
 253 828 253 828 253 461 c 256,14,15
 253 92 253 92 532 92 c 256,16,17
 816 92 816 92 816 456 c 256,18,19
 816 828 816 828 534 828 c 256,12,13
EndSplineSet
Validated: 3073
EndChar

StartChar: p
Encoding: 112 112 83
Width: 940
VWidth: 2486
GlyphClass: 2
Flags: MW
LayerCount: 2
Fore
SplineSet
850.5 804 m 128,-1,1
 945 665 945 665 945 460 c 256,2,3
 945 255 945 255 847 116 c 128,-1,4
 749 -23 749 -23 567 -23 c 256,5,6
 385 -23 385 -23 254 134 c 1,7,-1
 254 -362 l 1,8,-1
 125 -362 l 1,9,-1
 125 920 l 1,10,-1
 240 920 l 1,11,-1
 240 752 l 1,12,13
 366 943 366 943 561 943 c 256,14,0
 756 943 756 943 850.5 804 c 128,-1,1
744.5 716 m 128,-1,16
 677 828 677 828 532 828 c 256,17,18
 386 828 386 828 320 716 c 128,-1,19
 254 604 254 604 254 442 c 256,20,21
 254 280 254 280 335 186 c 128,-1,22
 416 92 416 92 528 92 c 256,23,24
 669 92 669 92 740.5 203.5 c 128,-1,25
 812 315 812 315 812 459 c 256,26,15
 812 604 812 604 744.5 716 c 128,-1,16
EndSplineSet
Validated: 3073
EndChar

StartChar: q
Encoding: 113 113 84
Width: 942
VWidth: 2486
GlyphClass: 2
Flags: MW
LayerCount: 2
Fore
SplineSet
816 -362 m 1,0,-1
 816 149 l 1,1,2
 696 -23 696 -23 506 -23 c 256,3,4
 316 -23 316 -23 218.5 111 c 128,-1,5
 121 245 121 245 121 464 c 256,6,7
 121 683 121 683 233 813 c 128,-1,8
 345 943 345 943 526 943 c 256,9,10
 708 943 708 943 834 771 c 1,11,-1
 834 920 l 1,12,-1
 945 920 l 1,13,-1
 945 -362 l 1,14,-1
 816 -362 l 1,0,-1
750.5 201.5 m 128,-1,16
 816 311 816 311 816 471 c 256,17,18
 816 631 816 631 741.5 729.5 c 128,-1,19
 667 828 667 828 533 828 c 256,20,21
 398 828 398 828 325.5 715 c 128,-1,22
 253 602 253 602 253 457 c 256,23,24
 253 313 253 313 324.5 202.5 c 128,-1,25
 396 92 396 92 541 92 c 256,26,15
 685 92 685 92 750.5 201.5 c 128,-1,16
EndSplineSet
Validated: 3073
EndChar

StartChar: r
Encoding: 114 114 85
Width: 556
VWidth: 2456
GlyphClass: 2
Flags: MW
LayerCount: 2
Fore
SplineSet
252 478 m 2,0,-1
 252 0 l 1,1,-1
 123 0 l 1,2,-1
 123 925 l 1,3,-1
 240 925 l 1,4,-1
 240 727 l 1,5,6
 372 943 372 943 516 943 c 256,7,8
 535 943 535 943 565 940 c 1,9,-1
 565 828 l 1,10,11
 406 824 406 824 329 729 c 128,-1,12
 252 634 252 634 252 478 c 2,0,-1
EndSplineSet
Validated: 3073
EndChar

StartChar: s
Encoding: 115 115 86
Width: 853
VWidth: 2458
GlyphClass: 2
Flags: MW
LayerCount: 2
Fore
SplineSet
861 249 m 256,0,1
 861 -23 861 -23 491 -23 c 256,2,3
 122 -23 122 -23 113 271 c 1,4,-1
 250 271 l 1,5,6
 279 92 279 92 502 92 c 256,7,8
 725 92 725 92 725 246 c 256,9,10
 725 348 725 348 544 394 c 2,11,-1
 338 446 l 2,12,13
 137 497 137 497 137 679 c 256,14,15
 137 822 137 822 236 882.5 c 128,-1,16
 335 943 335 943 488 943 c 260,17,18
 815 943 815 943 823 682 c 1,19,-1
 685 682 l 1,20,21
 673 828 673 828 473 828 c 256,22,23
 272 828 272 828 272 682 c 256,24,25
 272 589 272 589 479 533 c 2,26,-1
 648 487 l 2,27,28
 861 429 861 429 861 249 c 256,0,1
EndSplineSet
Validated: 3073
EndChar

StartChar: t
Encoding: 116 116 87
Width: 522
VWidth: 2441
GlyphClass: 2
Flags: MW
LayerCount: 2
Fore
SplineSet
407 -23 m 256,0,1
 234 -23 234 -23 234 112 c 2,2,-1
 234 820 l 1,3,-1
 100 820 l 1,4,-1
 100 920 l 1,5,-1
 234 920 l 1,6,-1
 234 1178 l 1,7,-1
 362 1178 l 1,8,-1
 362 920 l 1,9,-1
 523 920 l 1,10,-1
 523 820 l 1,11,-1
 362 820 l 1,12,-1
 362 178 l 2,13,14
 362 87 362 87 459 87 c 0,15,16
 498 87 498 87 523 89 c 1,17,-1
 523 -14 l 1,18,19
 456 -23 456 -23 407 -23 c 256,0,1
EndSplineSet
Validated: 3073
EndChar

StartChar: u
Encoding: 117 117 88
Width: 855
VWidth: 2460
GlyphClass: 2
Flags: MW
LayerCount: 2
Fore
SplineSet
744 0 m 1,0,-1
 744 170 l 1,1,2
 602 -23 602 -23 416 -23 c 256,3,4
 287 -23 287 -23 205 38.5 c 128,-1,5
 123 100 123 100 123 217 c 2,6,-1
 123 920 l 1,7,-1
 250 920 l 1,8,-1
 250 276 l 2,9,10
 250 186 250 186 308 134.5 c 128,-1,11
 366 83 366 83 459 83 c 256,12,13
 590 83 590 83 660 179.5 c 128,-1,14
 730 276 730 276 730 407 c 2,15,-1
 730 920 l 1,16,-1
 857 920 l 1,17,-1
 857 0 l 1,18,-1
 744 0 l 1,0,-1
EndSplineSet
Validated: 3073
EndChar

StartChar: v
Encoding: 118 118 89
Width: 891
VWidth: 2458
GlyphClass: 2
Flags: MW
LayerCount: 2
Fore
SplineSet
573 0 m 5,0,-1
 425 0 l 5,1,-1
 100 920 l 1,2,-1
 245 920 l 1,3,-1
 506 134 l 1,4,-1
 782 920 l 1,5,-1
 926 920 l 1,6,-1
 573 0 l 5,0,-1
EndSplineSet
Validated: 3073
EndChar

StartChar: w
Encoding: 119 119 90
Width: 1277
VWidth: 2458
GlyphClass: 2
Flags: MW
LayerCount: 2
Fore
SplineSet
1042 0 m 1,0,-1
 890 0 l 1,1,-1
 691 775 l 1,2,-1
 501 0 l 1,3,-1
 351 0 l 1,4,-1
 86 920 l 5,5,-1
 226 920 l 5,6,-1
 428 154 l 1,7,-1
 614 920 l 5,8,-1
 779 920 l 5,9,-1
 973 154 l 1,10,-1
 1167 920 l 5,11,-1
 1312 920 l 5,12,-1
 1042 0 l 1,0,-1
EndSplineSet
Validated: 3073
EndChar

StartChar: x
Encoding: 120 120 91
Width: 859
VWidth: 2458
GlyphClass: 2
Flags: MW
LayerCount: 2
Fore
SplineSet
729 0 m 5,0,-1
 485 372 l 1,1,-1
 239 0 l 5,2,-1
 94 0 l 5,3,-1
 421 470 l 1,4,-1
 114 920 l 1,5,-1
 256 920 l 1,6,-1
 490 571 l 1,7,-1
 726 920 l 1,8,-1
 865 920 l 1,9,-1
 556 478 l 1,10,-1
 875 0 l 5,11,-1
 729 0 l 5,0,-1
EndSplineSet
Validated: 3073
EndChar

StartChar: y
Encoding: 121 121 92
Width: 861
VWidth: 2490
GlyphClass: 2
Flags: MW
LayerCount: 2
Fore
SplineSet
477 -176 m 6,0,1
 407 -362 407 -362 243 -362 c 4,2,3
 194 -362 194 -362 152 -342 c 5,4,-1
 152 -230 l 5,5,6
 192 -237 192 -237 222 -237 c 4,7,8
 319 -237 319 -237 354 -138 c 6,9,-1
 412 26 l 1,10,-1
 96 920 l 1,11,-1
 234 920 l 1,12,-1
 482 200 l 1,13,-1
 752 920 l 1,14,-1
 892 920 l 1,15,-1
 477 -176 l 6,0,1
EndSplineSet
Validated: 3073
EndChar

StartChar: z
Encoding: 122 122 93
Width: 853
VWidth: 2458
GlyphClass: 2
Flags: MW
LayerCount: 2
Fore
SplineSet
117 0 m 1,0,-1
 117 122 l 1,1,-1
 688 810 l 1,2,-1
 156 810 l 1,3,-1
 156 920 l 1,4,-1
 839 920 l 5,5,-1
 839 803 l 1,6,-1
 264 110 l 1,7,-1
 865 110 l 1,8,-1
 865 0 l 1,9,-1
 117 0 l 1,0,-1
EndSplineSet
Validated: 3073
EndChar

StartChar: braceleft
Encoding: 123 123 94
Width: 526
VWidth: 2460
GlyphClass: 2
Flags: MW
LayerCount: 2
Fore
SplineSet
451 -371 m 2,0,1
 262 -371 262 -371 262 -148 c 2,2,-1
 262 150 l 2,3,4
 262 375 262 375 117 403 c 1,5,-1
 117 509 l 1,6,7
 262 541 262 541 262 764 c 2,8,-1
 262 1062 l 2,9,10
 262 1283 262 1283 451 1283 c 2,11,-1
 525 1283 l 1,12,-1
 525 1189 l 1,13,14
 443 1189 443 1189 411.5 1164.5 c 128,-1,15
 380 1140 380 1140 380 1060 c 2,16,-1
 380 737 l 2,17,18
 380 525 380 525 211 457 c 1,19,20
 380 383 380 383 380 176 c 2,21,-1
 380 -145 l 2,22,23
 380 -229 380 -229 413 -252 c 128,-1,24
 446 -275 446 -275 525 -277 c 1,25,-1
 525 -371 l 1,26,-1
 451 -371 l 2,0,1
EndSplineSet
Validated: 3073
EndChar

StartChar: bar
Encoding: 124 124 95
Width: 335
VWidth: 2460
GlyphClass: 2
Flags: MW
LayerCount: 2
Fore
SplineSet
147 -371 m 1,0,-1
 147 1280 l 5,1,-1
 251 1280 l 5,2,-1
 251 -371 l 1,3,-1
 147 -371 l 1,0,-1
EndSplineSet
Validated: 3073
EndChar

StartChar: braceright
Encoding: 125 125 96
Width: 504
VWidth: 2460
GlyphClass: 2
Flags: MW
LayerCount: 2
Fore
SplineSet
328 150 m 2,0,-1
 328 -148 l 2,1,2
 328 -371 328 -371 136 -371 c 2,3,-1
 59 -371 l 1,4,-1
 59 -277 l 1,5,6
 143 -275 143 -275 175 -252 c 128,-1,7
 207 -229 207 -229 207 -145 c 2,8,-1
 207 176 l 2,9,10
 207 383 207 383 377 455 c 1,11,12
 207 530 207 530 207 737 c 2,13,-1
 207 1060 l 2,14,15
 207 1140 207 1140 174 1164.5 c 128,-1,16
 141 1189 141 1189 59 1189 c 1,17,-1
 59 1283 l 1,18,-1
 136 1283 l 2,19,20
 328 1283 328 1283 328 1062 c 2,21,-1
 328 764 l 2,22,23
 328 542 328 542 467 509 c 1,24,-1
 467 403 l 1,25,26
 328 371 328 371 328 150 c 2,0,-1
EndSplineSet
Validated: 3073
EndChar

StartChar: asciitilde
Encoding: 126 126 97
Width: 910
VWidth: 2380
GlyphClass: 2
Flags: MW
LayerCount: 2
Fore
SplineSet
882 933 m 2,0,1
 882 704 882 704 707 704 c 260,2,3
 623 704 623 704 540 763 c 2,4,-1
 395 866 l 2,5,6
 348 899 348 899 304 899 c 256,7,8
 209 899 209 899 196 751 c 1,9,-1
 123 751 l 1,10,11
 139 1002 139 1002 306 1002 c 256,12,13
 355 1002 355 1002 397 975 c 2,14,-1
 609 839 l 2,15,16
 659 807 659 807 705 807 c 256,17,18
 805 807 805 807 808 950 c 1,19,-1
 882 950 l 1,20,-1
 882 933 l 2,0,1
EndSplineSet
Validated: 3073
EndChar

StartChar: uni0D02
Encoding: 3330 3330 98
Width: 685
VWidth: 2490
GlyphClass: 2
Flags: MW
LayerCount: 2
Fore
SplineSet
708 271 m 256,0,1
 708 151 708 151 621.5 65 c 128,-1,2
 535 -21 535 -21 415 -21 c 256,3,4
 295 -21 295 -21 208.5 65 c 128,-1,5
 122 151 122 151 122 271 c 256,6,7
 122 392 122 392 208.5 479 c 128,-1,8
 295 566 295 566 415 566 c 260,9,10
 535 566 535 566 621.5 479 c 128,-1,11
 708 392 708 392 708 271 c 256,0,1
584 271 m 256,12,13
 584 343 584 343 534 393 c 128,-1,14
 484 443 484 443 414 443 c 256,15,16
 344 443 344 443 295 393 c 128,-1,17
 246 343 246 343 246 271 c 256,18,19
 246 200 246 200 295 151 c 128,-1,20
 344 102 344 102 414 102 c 256,21,22
 484 102 484 102 534 151 c 128,-1,23
 584 200 584 200 584 271 c 256,12,13
EndSplineSet
Validated: 3073
EndChar

StartChar: uni0D03
Encoding: 3331 3331 99
Width: 452
VWidth: 2458
GlyphClass: 2
Flags: MW
LayerCount: 2
Fore
SplineSet
461 706 m 256,0,1
 461 638 461 638 411.5 590 c 128,-1,2
 362 542 362 542 294 542 c 256,3,4
 226 542 226 542 177.5 590 c 128,-1,5
 129 638 129 638 129 706 c 256,6,7
 129 775 129 775 178 824 c 0,8,9
 226 873 226 873 294 873 c 256,10,11
 362 873 362 873 411.5 824 c 128,-1,12
 461 775 461 775 461 706 c 256,0,1
357 706 m 256,13,14
 357 770 357 770 295 770 c 256,15,16
 233 770 233 770 233 706 c 256,17,18
 233 643 233 643 295 643 c 256,19,20
 357 643 357 643 357 706 c 256,13,14
411.5 313 m 128,-1,22
 461 264 461 264 461 196 c 256,23,24
 461 128 461 128 411.5 79.5 c 128,-1,25
 362 31 362 31 294 31 c 256,26,27
 226 31 226 31 178 80 c 0,28,29
 130 128 130 128 129 196 c 256,30,31
 129 264 129 264 178 313 c 0,32,33
 226 362 226 362 294 362 c 256,34,21
 362 362 362 362 411.5 313 c 128,-1,22
357 196 m 256,35,36
 357 258 357 258 295 259 c 256,37,38
 233 258 233 258 233 196 c 256,39,40
 233 134 233 134 295 134 c 260,41,42
 357 134 357 134 357 196 c 256,35,36
EndSplineSet
Validated: 3073
EndChar

StartChar: uni0D05
Encoding: 3333 3333 100
Width: 2294
VWidth: 2459
GlyphClass: 2
Flags: MW
LayerCount: 2
Fore
SplineSet
2295 385 m 0,0,1
 2295 217 2295 217 2208 98 c 128,-1,2
 2121 -21 2121 -21 1969 -21 c 256,3,4
 1817 -21 1817 -21 1725.5 82.5 c 128,-1,5
 1634 186 1634 186 1634 336 c 256,6,7
 1634 486 1634 486 1726.5 598.5 c 132,-1,8
 1819 711 1819 711 1965 711 c 0,9,10
 2010 711 2010 711 2052 699 c 1,11,12
 1947 824 1947 824 1762 824 c 256,13,14
 1644 824 1644 824 1565 757 c 128,-1,15
 1486 690 1486 690 1486 575 c 2,16,-1
 1486 0 l 1,17,-1
 1351 0 l 1,18,-1
 1351 573 l 2,19,20
 1351 699 1351 699 1266 761 c 128,-1,21
 1181 823 1181 823 1050 823 c 2,22,-1
 1022 823 l 1,23,24
 1066 799 1066 799 1101.5 737.5 c 128,-1,25
 1137 676 1137 676 1137 617 c 0,26,27
 1137 474 1137 474 1010 437 c 1,28,29
 1071 420 1071 420 1110.5 360.5 c 128,-1,30
 1150 301 1150 301 1150 229 c 0,31,32
 1150 118 1150 118 1066 48.5 c 128,-1,33
 982 -21 982 -21 867 -21 c 0,34,35
 693 -21 693 -21 593.5 107 c 128,-1,36
 494 235 494 235 494 418 c 0,37,38
 494 664 494 664 696 823 c 1,39,-1
 644 823 l 2,40,41
 478 823 478 823 372.5 708 c 128,-1,42
 267 593 267 593 267 425 c 0,43,44
 267 183 267 183 457 64 c 1,45,-1
 368 -23 l 1,46,47
 145 134 145 134 145 427 c 0,48,49
 145 639 145 639 296 791 c 128,-1,50
 447 943 447 943 661 943 c 0,51,52
 786 943 786 943 855 905 c 1,53,54
 926 943 926 943 1054 943 c 0,55,56
 1327 943 1327 943 1423 804 c 1,57,58
 1507 943 1507 943 1774 943 c 0,59,60
 1995 943 1995 943 2145 775 c 128,-1,61
 2295 607 2295 607 2295 385 c 0,0,1
1816 169 m 0,62,63
 1874 94 1874 94 1972 94 c 256,64,65
 2070 94 2070 94 2121.5 169 c 128,-1,66
 2173 244 2173 244 2173 350 c 256,67,68
 2173 456 2173 456 2126 556 c 1,69,70
 2064 595 2064 595 1967 595 c 256,71,72
 1870 595 1870 595 1813 519.5 c 132,-1,73
 1756 444 1756 444 1756 344 c 256,74,75
 1756 244 1756 244 1816 169 c 0,62,63
1015 239 m 0,76,77
 1015 371 1015 371 837 371 c 2,78,-1
 766 371 l 1,79,-1
 766 474 l 1,80,-1
 837 474 l 2,81,82
 907 474 907 474 955 511.5 c 128,-1,83
 1003 549 1003 549 1003 617 c 0,84,85
 1003 715 1003 715 855 784 c 1,86,87
 614 669 614 669 614 415 c 0,88,89
 614 291 614 291 675 198.5 c 128,-1,90
 736 106 736 106 853 106 c 0,91,92
 912 106 912 106 963.5 143.5 c 128,-1,93
 1015 181 1015 181 1015 239 c 0,76,77
EndSplineSet
Validated: 3073
EndChar

StartChar: uni0D06
Encoding: 3334 3334 101
Width: 2566
VWidth: 2488
GlyphClass: 2
Flags: MW
LayerCount: 2
Fore
SplineSet
2460 561.5 m 128,-1,1
 2568 420 2568 420 2568 188 c 128,-1,2
 2568 -44 2568 -44 2424.5 -213.5 c 128,-1,3
 2281 -383 2281 -383 2057 -383 c 0,4,5
 1927 -383 1927 -383 1804 -302 c 1,6,-1
 1853 -199 l 1,7,8
 1949 -272 1949 -272 2054 -272 c 0,9,10
 2230 -272 2230 -272 2342.5 -133.5 c 128,-1,11
 2455 5 2455 5 2455 197 c 0,12,13
 2455 340 2455 340 2392.5 451.5 c 128,-1,14
 2330 563 2330 563 2214 598 c 1,15,16
 2261 509 2261 509 2261 360 c 256,17,18
 2261 202 2261 202 2189.5 92.5 c 128,-1,19
 2118 -17 2118 -17 1956 -17 c 256,20,21
 1804 -17 1804 -17 1726.5 76 c 128,-1,22
 1649 169 1649 169 1649 333 c 256,23,24
 1649 497 1649 497 1747.5 610 c 132,-1,25
 1846 723 1846 723 2005 723 c 1,26,27
 1910 823 1910 823 1777 823 c 128,-1,28
 1644 823 1644 823 1565.5 758.5 c 128,-1,29
 1487 694 1487 694 1487 573 c 2,30,-1
 1487 0 l 1,31,-1
 1351 0 l 1,32,-1
 1351 570 l 2,33,34
 1351 694 1351 694 1273.5 758 c 128,-1,35
 1196 822 1196 822 1084 822 c 0,36,37
 1079 822 1079 822 1034 821 c 1,38,39
 1138 735 1138 735 1138 615 c 0,40,41
 1138 472 1138 472 1010 435 c 1,42,43
 1074 418 1074 418 1112.5 359 c 128,-1,44
 1151 300 1151 300 1151 228 c 0,45,46
 1151 115 1151 115 1070.5 49 c 128,-1,47
 990 -17 990 -17 872 -17 c 0,48,49
 689 -17 689 -17 591.5 104.5 c 128,-1,50
 494 226 494 226 494 415 c 0,51,52
 494 654 494 654 691 821 c 1,53,54
 640 822 640 822 635 822 c 0,55,56
 482 822 482 822 372.5 704.5 c 128,-1,57
 263 587 263 587 263 423 c 0,58,59
 263 183 263 183 457 61 c 1,60,-1
 368 -24 l 1,61,62
 145 131 145 131 145 425 c 0,63,64
 145 636 145 636 295 789.5 c 128,-1,65
 445 943 445 943 656 943 c 0,66,67
 792 943 792 943 863 903 c 1,68,69
 934 943 934 943 1055 943 c 0,70,71
 1308 943 1308 943 1423 802 c 1,72,73
 1526 943 1526 943 1757 943 c 0,74,75
 2033 943 2033 943 2158 725 c 1,76,0
 2352 703 2352 703 2460 561.5 c 128,-1,1
2141 354 m 0,77,78
 2141 509 2141 509 2080 612 c 1,79,80
 2057 615 2057 615 2035 615 c 0,81,82
 1914 615 1914 615 1842 533.5 c 132,-1,83
 1770 452 1770 452 1770 340 c 256,84,85
 1770 228 1770 228 1815 163.5 c 128,-1,86
 1860 99 1860 99 1949 99 c 0,87,88
 2141 99 2141 99 2141 354 c 0,77,78
1015 239 m 0,89,90
 1015 324 1015 324 926 352 c 1,91,92
 877 369 877 369 767 369 c 1,93,-1
 767 472 l 1,94,95
 1003 472 1003 472 1003 615 c 0,96,97
 1003 671 1003 671 956.5 716.5 c 128,-1,98
 910 762 910 762 863 777 c 1,99,100
 762 753 762 753 688 643 c 128,-1,101
 614 533 614 533 614 413 c 256,102,103
 614 293 614 293 675.5 199.5 c 128,-1,104
 737 106 737 106 853 106 c 0,105,106
 912 106 912 106 963.5 143 c 128,-1,107
 1015 180 1015 180 1015 239 c 0,89,90
EndSplineSet
Validated: 3073
EndChar

StartChar: uni0D07
Encoding: 3335 3335 102
Width: 1650
VWidth: 2487
GlyphClass: 2
Flags: MW
LayerCount: 2
Fore
SplineSet
1220 943 m 260,0,1
 1429 943 1429 943 1541.5 814 c 128,-1,2
 1654 685 1654 685 1654 478 c 256,3,4
 1654 270 1654 270 1507 135 c 128,-1,5
 1360 0 1360 0 1154 0 c 2,6,-1
 460 0 l 2,7,8
 403 0 403 0 354 -32 c 128,-1,9
 305 -64 305 -64 305 -122 c 256,10,11
 305 -180 305 -180 350.5 -212 c 128,-1,12
 396 -244 396 -244 458 -244 c 2,13,-1
 1635 -244 l 1,14,-1
 1635 -364 l 1,15,-1
 438 -364 l 2,16,17
 324 -364 324 -364 248 -298 c 128,-1,18
 172 -232 172 -232 172 -121 c 256,19,20
 172 -10 172 -10 248 51.5 c 128,-1,21
 324 113 324 113 438 113 c 2,22,-1
 1124 113 l 2,23,24
 1281 113 1281 113 1395.5 214.5 c 128,-1,25
 1510 316 1510 316 1510 471 c 256,26,27
 1510 626 1510 626 1428.5 724.5 c 128,-1,28
 1347 823 1347 823 1212 823 c 0,29,30
 1124 823 1124 823 1070 746.5 c 128,-1,31
 1016 670 1016 670 1016 570 c 2,32,-1
 1016 194 l 1,33,-1
 868 194 l 1,34,-1
 868 570 l 2,35,36
 868 677 868 677 777 750 c 128,-1,37
 686 823 686 823 570 823 c 256,38,39
 454 823 454 823 369 763 c 128,-1,40
 284 703 284 703 270 589 c 1,41,42
 279 652 279 652 339 682 c 128,-1,43
 399 712 399 712 465 712 c 0,44,45
 568 712 568 712 632 633.5 c 128,-1,46
 696 555 696 555 696 438 c 128,-1,47
 696 321 696 321 617.5 247.5 c 128,-1,48
 539 174 539 174 413.5 174 c 128,-1,49
 288 174 288 174 215.5 272 c 128,-1,50
 143 370 143 370 143 520 c 0,51,52
 143 720 143 720 265 831.5 c 128,-1,53
 387 943 387 943 591 943 c 0,54,55
 838 943 838 943 939 788 c 1,56,57
 1013 943 1013 943 1220 943 c 260,0,1
529 330 m 128,-1,59
 570 368 570 368 570 437 c 256,60,61
 570 506 570 506 534 553 c 128,-1,62
 498 600 498 600 436 600 c 256,63,64
 374 600 374 600 330 556.5 c 128,-1,65
 286 513 286 513 286 449 c 256,66,67
 286 385 286 385 324 338.5 c 128,-1,68
 362 292 362 292 425 292 c 256,69,58
 488 292 488 292 529 330 c 128,-1,59
EndSplineSet
Validated: 3073
EndChar

StartChar: uni0D08
Encoding: 3336 3336 103
Width: 2912
VWidth: 2487
GlyphClass: 2
Flags: MW
LayerCount: 2
Fore
SplineSet
2815.5 819.5 m 128,-1,1
 2915 696 2915 696 2915 492 c 256,2,3
 2915 290 2915 290 2807 134.5 c 128,-1,4
 2699 -21 2699 -21 2458 -21 c 256,5,6
 2290 -21 2290 -21 2197 68.5 c 128,-1,7
 2104 158 2104 158 2104 261 c 1,8,-1
 2237 261 l 1,9,10
 2271 102 2271 102 2451 102 c 256,11,12
 2770 102 2770 102 2770 474 c 256,13,14
 2770 820 2770 820 2537 820 c 256,15,16
 2470 820 2470 820 2420.5 768.5 c 128,-1,17
 2371 717 2371 717 2371 644 c 2,18,-1
 2371 476 l 1,19,-1
 2225 476 l 1,20,-1
 2225 626 l 2,21,22
 2225 820 2225 820 2073 820 c 256,23,24
 1981 820 1981 820 1941.5 759 c 128,-1,25
 1902 698 1902 698 1902 562 c 0,26,27
 1902 541 1902 541 1907 457 c 1,28,-1
 1782 457 l 1,29,30
 1770 553 1770 553 1770 579 c 0,31,32
 1770 943 1770 943 2097 943 c 256,33,34
 2235 943 2235 943 2301 830 c 1,35,36
 2345 891 2345 891 2399 917 c 128,-1,37
 2453 943 2453 943 2563 943 c 260,38,0
 2716 943 2716 943 2815.5 819.5 c 128,-1,1
1219 943 m 256,39,40
 1429 943 1429 943 1541.5 812.5 c 128,-1,41
 1654 682 1654 682 1654 476 c 256,42,43
 1654 270 1654 270 1507 135 c 128,-1,44
 1360 0 1360 0 1153 0 c 2,45,-1
 460 0 l 2,46,47
 403 0 403 0 354 -32 c 128,-1,48
 305 -64 305 -64 305 -122 c 256,49,50
 305 -180 305 -180 350.5 -212 c 128,-1,51
 396 -244 396 -244 457 -244 c 2,52,-1
 1635 -244 l 1,53,-1
 1635 -364 l 1,54,-1
 438 -364 l 2,55,56
 324 -364 324 -364 248 -298 c 128,-1,57
 172 -232 172 -232 172 -121 c 256,58,59
 172 -10 172 -10 248 51.5 c 128,-1,60
 324 113 324 113 438 113 c 2,61,-1
 1123 113 l 2,62,63
 1281 113 1281 113 1395.5 214.5 c 128,-1,64
 1510 316 1510 316 1510 471 c 256,65,66
 1510 626 1510 626 1428.5 724.5 c 128,-1,67
 1347 823 1347 823 1212 823 c 256,68,69
 1123 823 1123 823 1069 746.5 c 128,-1,70
 1015 670 1015 670 1015 570 c 2,71,-1
 1015 194 l 1,72,-1
 868 194 l 1,73,-1
 868 570 l 2,74,75
 868 678 868 678 776.5 750.5 c 128,-1,76
 685 823 685 823 570 823 c 256,77,78
 455 823 455 823 369 763 c 128,-1,79
 283 703 283 703 270 589 c 1,80,81
 279 652 279 652 339 682 c 128,-1,82
 399 712 399 712 465 712 c 256,83,84
 568 712 568 712 632 633.5 c 128,-1,85
 696 555 696 555 696 438 c 256,86,87
 696 321 696 321 617.5 247.5 c 128,-1,88
 539 174 539 174 413 174 c 256,89,90
 287 174 287 174 215 272 c 128,-1,91
 143 370 143 370 143 520 c 256,92,93
 143 720 143 720 265 831.5 c 128,-1,94
 387 943 387 943 591 943 c 256,95,96
 838 943 838 943 939 788 c 1,97,98
 1013 943 1013 943 1219 943 c 256,39,40
528.5 330 m 128,-1,100
 570 368 570 368 570 437 c 256,101,102
 570 506 570 506 533.5 553 c 128,-1,103
 497 600 497 600 435 600 c 256,104,105
 373 600 373 600 329.5 556.5 c 128,-1,106
 286 513 286 513 286 449 c 256,107,108
 286 385 286 385 323.5 338.5 c 128,-1,109
 361 292 361 292 424 292 c 256,110,99
 487 292 487 292 528.5 330 c 128,-1,100
EndSplineSet
Validated: 3073
EndChar

StartChar: uni0D09
Encoding: 3337 3337 104
Width: 1211
VWidth: 2487
GlyphClass: 2
Flags: MW
LayerCount: 2
Fore
SplineSet
1212 445 m 256,0,1
 1212 0 1212 0 737 0 c 2,2,-1
 455 0 l 2,3,4
 312 0 312 0 312 -116 c 256,5,6
 312 -174 312 -174 355 -208 c 128,-1,7
 398 -242 398 -242 455 -242 c 2,8,-1
 1191 -242 l 1,9,-1
 1191 -364 l 1,10,-1
 433 -364 l 2,11,12
 321 -364 321 -364 244 -295 c 128,-1,13
 167 -226 167 -226 167 -118 c 256,14,15
 167 -10 167 -10 243 50 c 128,-1,16
 319 110 319 110 433 110 c 2,17,-1
 708 110 l 2,18,19
 1067 110 1067 110 1067 447 c 256,20,21
 1067 641 1067 641 937 732 c 128,-1,22
 807 823 807 823 639 823 c 256,23,24
 535 823 535 823 429.5 769 c 128,-1,25
 324 715 324 715 293 614 c 1,26,27
 347 703 347 703 461 703 c 128,-1,28
 575 703 575 703 647.5 630.5 c 128,-1,29
 720 558 720 558 720 438 c 256,30,31
 720 318 720 318 639 246 c 128,-1,32
 558 174 558 174 432.5 174 c 128,-1,33
 307 174 307 174 227 262.5 c 128,-1,34
 147 351 147 351 147 492 c 256,35,36
 147 705 147 705 290 824 c 128,-1,37
 433 943 433 943 662 943 c 256,38,39
 891 943 891 943 1051.5 816.5 c 128,-1,40
 1212 690 1212 690 1212 445 c 256,0,1
536 332.5 m 128,-1,42
 575 375 575 375 575 443 c 256,43,44
 575 511 575 511 537 554 c 128,-1,45
 499 597 499 597 435 597 c 256,46,47
 371 597 371 597 329.5 554 c 128,-1,48
 288 511 288 511 288 445 c 256,49,50
 288 378 288 378 329.5 334 c 128,-1,51
 371 290 371 290 434 290 c 256,52,41
 497 290 497 290 536 332.5 c 128,-1,42
EndSplineSet
Validated: 3073
EndChar

StartChar: uni0D0A
Encoding: 3338 3338 105
Width: 2484
VWidth: 2487
GlyphClass: 2
Flags: MW
LayerCount: 2
Fore
SplineSet
2389.5 818 m 128,-1,1
 2485 693 2485 693 2485 487 c 256,2,3
 2485 281 2485 281 2378.5 129.5 c 128,-1,4
 2272 -22 2272 -22 2028 -22 c 256,5,6
 1853 -22 1853 -22 1763.5 67.5 c 128,-1,7
 1674 157 1674 157 1674 260 c 1,8,-1
 1806 260 l 1,9,10
 1840 100 1840 100 2020 100 c 256,11,12
 2340 100 2340 100 2340 471 c 256,13,14
 2340 823 2340 823 2106 823 c 256,15,16
 2040 823 2040 823 1990.5 769 c 128,-1,17
 1941 715 1941 715 1941 642 c 2,18,-1
 1941 474 l 1,19,-1
 1794 474 l 1,20,-1
 1794 624 l 2,21,22
 1794 823 1794 823 1641 823 c 256,23,24
 1550 823 1550 823 1511 759.5 c 128,-1,25
 1472 696 1472 696 1472 560 c 256,26,27
 1472 538 1472 538 1477 454 c 1,28,-1
 1351 454 l 1,29,30
 1339 550 1339 550 1339 577 c 256,31,32
 1339 943 1339 943 1666 943 c 256,33,34
 1800 943 1800 943 1870 828 c 1,35,36
 1911 887 1911 887 1969 915 c 128,-1,37
 2027 943 2027 943 2122 943 c 256,38,0
 2294 943 2294 943 2389.5 818 c 128,-1,1
1212 445 m 256,39,40
 1212 0 1212 0 736 0 c 2,41,-1
 454 0 l 2,42,43
 312 0 312 0 312 -116 c 256,44,45
 312 -174 312 -174 355 -208 c 128,-1,46
 398 -242 398 -242 454 -242 c 2,47,-1
 1191 -242 l 1,48,-1
 1191 -364 l 1,49,-1
 433 -364 l 2,50,51
 321 -364 321 -364 243.5 -295 c 128,-1,52
 166 -226 166 -226 166 -117 c 256,53,54
 166 -8 166 -8 242.5 52 c 128,-1,55
 319 112 319 112 433 112 c 2,56,-1
 708 112 l 2,57,58
 1066 112 1066 112 1066 447 c 256,59,60
 1066 637 1066 637 937 730 c 128,-1,61
 808 823 808 823 639 823 c 256,62,63
 535 823 535 823 429.5 769 c 128,-1,64
 324 715 324 715 292 614 c 1,65,66
 346 703 346 703 460 703 c 256,67,68
 574 703 574 703 647 630.5 c 128,-1,69
 720 558 720 558 720 438 c 256,70,71
 720 318 720 318 639 246 c 128,-1,72
 558 174 558 174 432 174 c 256,73,74
 306 174 306 174 226.5 262.5 c 128,-1,75
 147 351 147 351 147 492 c 256,76,77
 147 705 147 705 290 824 c 128,-1,78
 433 943 433 943 662 943 c 260,79,80
 891 943 891 943 1051.5 816.5 c 128,-1,81
 1212 690 1212 690 1212 445 c 256,39,40
535 332.5 m 128,-1,83
 574 375 574 375 574 443 c 256,84,85
 574 511 574 511 536.5 554 c 128,-1,86
 499 597 499 597 435 597 c 256,87,88
 370 597 370 597 329 554 c 128,-1,89
 288 511 288 511 288 445 c 256,90,91
 288 378 288 378 329 334 c 128,-1,92
 370 290 370 290 433 290 c 256,93,82
 496 290 496 290 535 332.5 c 128,-1,83
EndSplineSet
Validated: 3073
EndChar

StartChar: uni0D0B
Encoding: 3339 3339 106
Width: 1454
VWidth: 2489
GlyphClass: 2
Flags: MW
LayerCount: 2
Fore
SplineSet
948 867 m 0,0,1
 1028 943 1028 943 1159 943 c 260,2,3
 1290 943 1290 943 1374.5 833.5 c 128,-1,4
 1459 724 1459 724 1459 578 c 256,5,6
 1459 438 1459 438 1389 333 c 128,-1,7
 1319 228 1319 228 1192 174 c 1,8,9
 1426 133 1426 133 1426 -73 c 256,10,11
 1426 -246 1426 -246 1235.5 -318.5 c 128,-1,12
 1045 -391 1045 -391 797 -391 c 256,13,14
 553 -391 553 -391 369 -320 c 128,-1,15
 185 -249 185 -249 185 -73 c 256,16,17
 185 77 185 77 413 174 c 1,18,19
 285 214 285 214 214 325.5 c 128,-1,20
 143 437 143 437 143 580 c 256,21,22
 143 730 143 730 224 836.5 c 128,-1,23
 305 943 305 943 460 943 c 256,24,25
 575 943 575 943 651 866.5 c 128,-1,26
 727 790 727 790 727 672 c 256,27,28
 727 554 727 554 655 476 c 128,-1,29
 583 398 583 398 472 398 c 256,30,31
 406 398 406 398 347.5 437 c 128,-1,32
 289 476 289 476 268 541 c 1,33,34
 268 234 268 234 800 234 c 256,35,36
 1332 234 1332 234 1333 541 c 1,37,38
 1316 474 1316 474 1255.5 436 c 128,-1,39
 1195 398 1195 398 1126 398 c 256,40,41
 1018 398 1018 398 942.5 478 c 128,-1,42
 867 558 867 558 867 674 c 256,43,44
 868 790 868 790 948 867 c 0,0,1
1288 673 m 256,45,46
 1288 734 1288 734 1249 778.5 c 128,-1,47
 1210 823 1210 823 1142 823 c 256,48,49
 1074 823 1074 823 1033.5 778.5 c 128,-1,50
 993 734 993 734 993 674 c 256,51,52
 993 614 993 614 1035 567 c 0,53,54
 1078 520 1078 520 1144 520 c 256,55,56
 1210 520 1210 520 1249 566 c 128,-1,57
 1288 612 1288 612 1288 673 c 256,45,46
601 673 m 256,58,59
 601 734 601 734 562.5 778.5 c 128,-1,60
 524 823 524 823 456 823 c 256,61,62
 388 823 388 823 346.5 778.5 c 128,-1,63
 305 734 305 734 305 674 c 256,64,65
 305 614 305 614 347 567 c 128,-1,66
 389 520 389 520 455 520 c 256,67,68
 521 520 521 520 561 566 c 128,-1,69
 601 612 601 612 601 673 c 256,58,59
1283 -73 m 256,70,71
 1283 103 1283 103 804 103 c 256,72,73
 325 103 325 103 325 -73 c 256,74,75
 325 -258 325 -258 797 -258 c 256,76,77
 1283 -258 1283 -258 1283 -73 c 256,70,71
EndSplineSet
Validated: 3073
EndChar

StartChar: uni0D0C
Encoding: 3340 3340 107
Width: 1784
VWidth: 2458
GlyphClass: 2
Flags: MW
LayerCount: 2
Fore
SplineSet
1785 390 m 260,0,1
 1785 218 1785 218 1699 98.5 c 132,-1,2
 1613 -21 1613 -21 1443 -21 c 260,3,4
 1308 -21 1308 -21 1224 57.5 c 132,-1,5
 1140 136 1140 136 1140 268 c 260,6,7
 1140 400 1140 400 1221.5 490.5 c 132,-1,8
 1303 581 1303 581 1426 581 c 260,9,10
 1497 581 1497 581 1566 548 c 132,-1,11
 1635 515 1635 515 1656 456 c 5,12,13
 1647 604 1647 604 1543.5 713.5 c 132,-1,14
 1440 823 1440 823 1283 823 c 260,15,16
 1178 823 1178 823 1105 759 c 132,-1,17
 1032 695 1032 695 1032 590 c 6,18,-1
 1032 -4 l 5,19,-1
 898 -4 l 5,20,-1
 898 590 l 6,21,22
 898 695 898 695 826 759 c 132,-1,23
 754 823 754 823 649 823 c 260,24,25
 492 823 492 823 387.5 713.5 c 132,-1,26
 283 604 283 604 273 456 c 5,27,28
 295 515 295 515 364 548 c 132,-1,29
 433 581 433 581 504 581 c 260,30,31
 627 581 627 581 708.5 490.5 c 132,-1,32
 790 400 790 400 790 268 c 260,33,34
 790 136 790 136 706 57.5 c 132,-1,35
 622 -21 622 -21 487 -21 c 260,36,37
 320 -21 320 -21 232.5 96.5 c 132,-1,38
 145 214 145 214 145 390 c 260,39,40
 145 614 145 614 279 778.5 c 132,-1,41
 413 943 413 943 635 943 c 260,42,43
 857 943 857 943 964 804 c 5,44,45
 1074 943 1074 943 1295 943 c 260,46,47
 1517 943 1517 943 1651 778.5 c 132,-1,48
 1785 614 1785 614 1785 390 c 260,0,1
1623 268 m 260,49,50
 1623 340 1623 340 1570 392 c 132,-1,51
 1517 444 1517 444 1447 444 c 260,52,53
 1379 444 1379 444 1330 391 c 132,-1,54
 1281 338 1281 338 1281 266 c 260,55,56
 1281 195 1281 195 1329 147 c 132,-1,57
 1377 99 1377 99 1447 99 c 260,58,59
 1519 99 1519 99 1571 148 c 132,-1,60
 1623 197 1623 197 1623 268 c 260,49,50
649 266 m 260,61,62
 649 338 649 338 600 391 c 132,-1,63
 551 444 551 444 483 444 c 260,64,65
 413 444 413 444 360 392 c 132,-1,66
 307 340 307 340 307 268 c 260,67,68
 307 197 307 197 359 148 c 132,-1,69
 411 99 411 99 483 99 c 260,70,71
 553 99 553 99 601 147 c 132,-1,72
 649 195 649 195 649 266 c 260,61,62
EndSplineSet
Validated: 19457
EndChar

StartChar: uni0D0E
Encoding: 3342 3342 108
Width: 2028
VWidth: 2487
GlyphClass: 2
Flags: MW
LayerCount: 2
Fore
SplineSet
2028 241 m 256,0,1
 2028 -135 2028 -135 1796 -374 c 1,2,-1
 1707 -289 l 1,3,4
 1811 -167 1811 -167 1851.5 -48.5 c 128,-1,5
 1892 70 1892 70 1892 241 c 256,6,7
 1892 824 1892 824 1541 824 c 256,8,9
 1364 824 1364 824 1269.5 668.5 c 128,-1,10
 1175 513 1175 513 1175 227 c 256,11,12
 1175 124 1175 124 1177 110 c 1,13,-1
 1455 110 l 1,14,-1
 1455 628 l 1,15,-1
 1592 628 l 1,16,-1
 1592 -76 l 2,17,18
 1592 -193 1592 -193 1519.5 -281 c 128,-1,19
 1447 -369 1447 -369 1325 -369 c 256,20,21
 1203 -369 1203 -369 1131 -257.5 c 128,-1,22
 1059 -146 1059 -146 1039 0 c 1,23,-1
 621 0 l 1,24,-1
 621 70 l 1,25,26
 750 130 750 130 750 285 c 256,27,28
 750 380 750 380 679 446.5 c 128,-1,29
 608 513 608 513 508 513 c 256,30,31
 408 513 408 513 335.5 449.5 c 128,-1,32
 263 386 263 386 263 290 c 256,33,34
 263 122 263 122 413 70 c 1,35,-1
 332 -8 l 1,36,37
 145 86 145 86 145 290 c 256,38,39
 145 440 145 440 243.5 535.5 c 128,-1,40
 342 631 342 631 509 631 c 256,41,42
 675 631 675 631 775 535.5 c 128,-1,43
 875 440 875 440 875 306 c 256,44,45
 875 172 875 172 821 110 c 1,46,-1
 1037 110 l 1,47,-1
 1034 230 l 256,48,49
 1034 546 1034 546 1159 744.5 c 128,-1,50
 1284 943 1284 943 1539 943 c 260,51,52
 2028 943 2028 943 2028 241 c 256,0,1
1455 -104 m 2,53,-1
 1455 0 l 1,54,-1
 1189 0 l 1,55,56
 1206 -239 1206 -239 1339 -239 c 256,57,58
 1391 -239 1391 -239 1423 -198.5 c 128,-1,59
 1455 -158 1455 -158 1455 -104 c 2,53,-1
EndSplineSet
Validated: 3073
EndChar

StartChar: uni0D0F
Encoding: 3343 3343 109
Width: 2076
VWidth: 2488
GlyphClass: 2
Flags: MW
LayerCount: 2
Fore
SplineSet
2077 -49 m 256,0,1
 2077 -364 2077 -364 1803 -364 c 256,2,3
 1777 -364 1777 -364 1703 -342 c 1,4,-1
 1703 -202 l 1,5,6
 1740 -234 1740 -234 1787 -234 c 256,7,8
 1951 -234 1951 -234 1951 -49 c 256,9,10
 1951 35 1951 35 1903 95 c 128,-1,11
 1855 155 1855 155 1770 155 c 2,12,-1
 1716 155 l 1,13,-1
 1716 293 l 1,14,-1
 1770 293 l 2,15,16
 1839 293 1839 293 1895 372.5 c 128,-1,17
 1951 452 1951 452 1951 528 c 256,18,19
 1951 674 1951 674 1840 748.5 c 128,-1,20
 1729 823 1729 823 1588 823 c 256,21,22
 1385 823 1385 823 1276 645.5 c 128,-1,23
 1167 468 1167 468 1167 169 c 256,24,25
 1167 140 1167 140 1168 110 c 1,26,-1
 1458 110 l 1,27,-1
 1458 629 l 1,28,-1
 1590 629 l 1,29,-1
 1590 -96 l 2,30,31
 1590 -214 1590 -214 1515 -295 c 128,-1,32
 1440 -376 1440 -376 1334 -376 c 256,33,34
 1091 -376 1091 -376 1044 0 c 1,35,-1
 621 0 l 1,36,-1
 621 79 l 1,37,38
 750 138 750 138 750 285 c 256,39,40
 750 380 750 380 676 446.5 c 128,-1,41
 602 513 602 513 505 513 c 256,42,43
 408 513 408 513 335.5 449.5 c 128,-1,44
 263 386 263 386 263 290 c 256,45,46
 263 127 263 127 410 73 c 1,47,-1
 324 -17 l 1,48,49
 145 81 145 81 145 290 c 256,50,51
 145 434 145 434 253.5 532.5 c 128,-1,52
 362 631 362 631 508 631 c 256,53,54
 654 631 654 631 763 532.5 c 128,-1,55
 872 434 872 434 872 302 c 256,56,57
 872 170 872 170 821 110 c 1,58,-1
 1039 110 l 1,59,-1
 1039 228 l 258,60,61
 1039 518 1039 518 1176 730.5 c 128,-1,62
 1313 943 1313 943 1592 943 c 260,63,64
 1814 943 1814 943 1945.5 831.5 c 128,-1,65
 2077 720 2077 720 2077 523 c 256,66,67
 2077 437 2077 437 2043 354 c 128,-1,68
 2009 271 2009 271 1949 234 c 1,69,70
 2077 143 2077 143 2077 -49 c 256,0,1
1455 -108 m 2,71,-1
 1455 0 l 1,72,-1
 1182 0 l 1,73,74
 1202 -244 1202 -244 1334 -244 c 256,75,76
 1386 -244 1386 -244 1420.5 -203 c 128,-1,77
 1455 -162 1455 -162 1455 -108 c 2,71,-1
EndSplineSet
Validated: 3073
EndChar

StartChar: uni0D10
Encoding: 3344 3344 110
Width: 3204
VWidth: 2487
GlyphClass: 2
Flags: MW
LayerCount: 2
Fore
SplineSet
3207 241 m 256,0,1
 3207 -139 3207 -139 2976 -374 c 1,2,-1
 2887 -289 l 1,3,4
 2989 -170 2989 -170 3030.5 -48 c 128,-1,5
 3072 74 3072 74 3072 241 c 256,6,7
 3072 823 3072 823 2720 823 c 256,8,9
 2544 823 2544 823 2449 668 c 128,-1,10
 2354 513 2354 513 2354 227 c 256,11,12
 2354 124 2354 124 2356 110 c 1,13,-1
 2635 110 l 1,14,-1
 2635 628 l 1,15,-1
 2772 628 l 1,16,-1
 2772 -76 l 2,17,18
 2772 -191 2772 -191 2699 -280 c 128,-1,19
 2626 -369 2626 -369 2503 -369 c 256,20,21
 2380 -369 2380 -369 2309.5 -257.5 c 128,-1,22
 2239 -146 2239 -146 2218 0 c 1,23,-1
 1801 0 l 1,24,-1
 1801 70 l 1,25,26
 1929 130 1929 130 1929 285 c 256,27,28
 1929 380 1929 380 1857.5 446.5 c 128,-1,29
 1786 513 1786 513 1686 513 c 256,30,31
 1586 513 1586 513 1514 449.5 c 128,-1,32
 1442 386 1442 386 1442 290 c 256,33,34
 1442 122 1442 122 1592 70 c 1,35,-1
 1512 -8 l 1,36,37
 1324 86 1324 86 1324 290 c 256,38,39
 1324 440 1324 440 1422.5 535.5 c 128,-1,40
 1521 631 1521 631 1688 631 c 256,41,42
 1855 631 1855 631 1954.5 535.5 c 128,-1,43
 2054 440 2054 440 2054 306 c 256,44,45
 2054 172 2054 172 2000 110 c 1,46,-1
 2216 110 l 1,47,-1
 2216 227 l 258,48,49
 2216 548 2216 548 2338 745.5 c 128,-1,50
 2460 943 2460 943 2720 943 c 256,51,52
 3207 943 3207 943 3207 241 c 256,0,1
2635 -104 m 2,53,-1
 2635 0 l 1,54,-1
 2368 0 l 1,55,56
 2385 -239 2385 -239 2518 -239 c 256,57,58
 2570 -239 2570 -239 2602.5 -198.5 c 128,-1,59
 2635 -158 2635 -158 2635 -104 c 2,53,-1
1202 427 m 256,60,61
 1202 122 1202 122 919 -19 c 1,62,-1
 848 79 l 1,63,64
 1062 187 1062 187 1062 427 c 256,65,66
 1062 597 1062 597 956 710.5 c 128,-1,67
 850 824 850 824 674 824 c 256,68,69
 498 824 498 824 390.5 715 c 128,-1,70
 283 606 283 606 272 437 c 1,71,72
 291 496 291 496 362.5 530.5 c 128,-1,73
 434 565 434 565 504 565 c 256,74,75
 631 565 631 565 717.5 480.5 c 128,-1,76
 804 396 804 396 804 269 c 256,77,78
 804 142 804 142 715 60.5 c 128,-1,79
 626 -21 626 -21 487 -21 c 256,80,81
 310 -21 310 -21 227.5 98 c 128,-1,82
 145 217 145 217 145 393 c 256,83,84
 145 628 145 628 289.5 785.5 c 128,-1,85
 434 943 434 943 674 943 c 256,86,87
 914 943 914 943 1058 797 c 128,-1,88
 1202 651 1202 651 1202 427 c 256,60,61
602 149 m 128,-1,90
 649 198 649 198 649 268 c 256,91,92
 649 338 649 338 602 392.5 c 128,-1,93
 555 447 555 447 482 447 c 256,94,95
 408 447 408 447 357.5 394.5 c 128,-1,96
 307 342 307 342 307 271 c 256,97,98
 307 200 307 200 357.5 150 c 128,-1,99
 408 100 408 100 482 100 c 256,100,89
 555 100 555 100 602 149 c 128,-1,90
EndSplineSet
Validated: 3073
EndChar

StartChar: uni0D12
Encoding: 3346 3346 111
Width: 1196
VWidth: 2458
GlyphClass: 2
Flags: MW
LayerCount: 2
Fore
SplineSet
1203 220 m 256,0,1
 1203 107 1203 107 1133 42 c 128,-1,2
 1063 -23 1063 -23 948 -23 c 256,3,4
 883 -23 883 -23 819 -3 c 1,5,-1
 819 121 l 1,6,7
 866 90 866 90 925 90 c 256,8,9
 1070 90 1070 90 1070 227 c 256,10,11
 1070 292 1070 292 1029.5 338.5 c 128,-1,12
 989 385 989 385 927 385 c 2,13,-1
 822 385 l 1,14,-1
 822 520 l 1,15,-1
 915 520 l 2,16,17
 974 520 974 520 1019.5 551.5 c 128,-1,18
 1065 583 1065 583 1065 641 c 256,19,20
 1065 823 1065 823 711 823 c 256,21,22
 522 823 522 823 402 728.5 c 128,-1,23
 282 634 282 634 273 471 c 1,24,25
 340 552 340 552 458 552 c 256,26,27
 576 552 576 552 649.5 472.5 c 128,-1,28
 723 393 723 393 723 269 c 256,29,30
 723 147 723 147 643.5 62 c 128,-1,31
 564 -23 564 -23 428 -23 c 256,32,33
 292 -23 292 -23 216.5 101 c 128,-1,34
 141 225 141 225 141 385 c 256,35,36
 141 659 141 659 298.5 801 c 128,-1,37
 456 943 456 943 751 943 c 260,38,39
 982 943 982 943 1089.5 850 c 128,-1,40
 1197 757 1197 757 1197 641 c 256,41,42
 1197 501 1197 501 1080 456 c 1,43,44
 1203 405 1203 405 1203 220 c 256,0,1
550.5 143 m 128,-1,46
 589 196 589 196 589 268 c 256,47,48
 589 340 589 340 548 392 c 128,-1,49
 507 444 507 444 437 444 c 256,50,51
 367 444 367 444 327 395 c 128,-1,52
 287 346 287 346 287 272 c 256,53,54
 287 198 287 198 329.5 144 c 128,-1,55
 372 90 372 90 442 90 c 256,56,45
 512 90 512 90 550.5 143 c 128,-1,46
EndSplineSet
Validated: 3073
EndChar

StartChar: uni0D13
Encoding: 3347 3347 112
Width: 2011
VWidth: 2458
GlyphClass: 2
Flags: MW
LayerCount: 2
Fore
SplineSet
1203 220 m 256,0,1
 1203 107 1203 107 1133 42 c 128,-1,2
 1063 -23 1063 -23 948 -23 c 256,3,4
 883 -23 883 -23 819 -3 c 1,5,-1
 819 121 l 1,6,7
 866 90 866 90 925 90 c 256,8,9
 1070 90 1070 90 1070 227 c 256,10,11
 1070 292 1070 292 1029.5 338.5 c 128,-1,12
 989 385 989 385 927 385 c 2,13,-1
 822 385 l 1,14,-1
 822 520 l 1,15,-1
 915 520 l 2,16,17
 974 520 974 520 1019.5 551.5 c 128,-1,18
 1065 583 1065 583 1065 641 c 256,19,20
 1065 823 1065 823 711 823 c 256,21,22
 522 823 522 823 402 728.5 c 128,-1,23
 282 634 282 634 273 471 c 1,24,25
 340 552 340 552 458 552 c 256,26,27
 576 552 576 552 649.5 472.5 c 128,-1,28
 723 393 723 393 723 269 c 256,29,30
 723 147 723 147 643.5 62 c 128,-1,31
 564 -23 564 -23 428 -23 c 256,32,33
 292 -23 292 -23 216.5 101 c 128,-1,34
 141 225 141 225 141 385 c 256,35,36
 141 659 141 659 298.5 801 c 128,-1,37
 456 943 456 943 751 943 c 256,38,39
 982 943 982 943 1089.5 850 c 128,-1,40
 1197 757 1197 757 1197 641 c 256,41,42
 1197 501 1197 501 1080 456 c 1,43,44
 1203 405 1203 405 1203 220 c 256,0,1
550.5 143 m 128,-1,46
 589 196 589 196 589 268 c 256,47,48
 589 340 589 340 548 392 c 128,-1,49
 507 444 507 444 437 444 c 256,50,51
 367 444 367 444 327 395 c 128,-1,52
 287 346 287 346 287 272 c 256,53,54
 287 198 287 198 329.5 144 c 128,-1,55
 372 90 372 90 442 90 c 256,56,45
 512 90 512 90 550.5 143 c 128,-1,46
1313 590 m 1,57,58
 1316 739 1316 739 1404 841 c 128,-1,59
 1492 943 1492 943 1665 943 c 256,60,61
 1838 943 1838 943 1926.5 809.5 c 128,-1,62
 2015 676 2015 676 2015 467 c 256,63,64
 2015 258 2015 258 1926.5 118.5 c 128,-1,65
 1838 -21 1838 -21 1647 -21 c 256,66,67
 1494 -21 1494 -21 1405 70.5 c 128,-1,68
 1316 162 1316 162 1316 345 c 1,69,70
 1382 347 1382 347 1448 349 c 1,71,72
 1448 250 1448 250 1503.5 177 c 128,-1,73
 1559 104 1559 104 1647 104 c 256,74,75
 1878 104 1878 104 1878 464 c 256,76,77
 1878 822 1878 822 1659 823 c 256,78,79
 1563 823 1563 823 1504 755.5 c 128,-1,80
 1445 688 1445 688 1445 590 c 1,81,-1
 1313 590 l 1,57,58
EndSplineSet
Validated: 3073
EndChar

StartChar: uni0D14
Encoding: 3348 3348 113
Width: 2465
VWidth: 2458
GlyphClass: 2
Flags: MW
LayerCount: 2
Fore
SplineSet
1203 220 m 256,0,1
 1203 107 1203 107 1133 42 c 128,-1,2
 1063 -23 1063 -23 948 -23 c 256,3,4
 883 -23 883 -23 819 -3 c 1,5,-1
 819 121 l 1,6,7
 866 90 866 90 925 90 c 256,8,9
 1070 90 1070 90 1070 227 c 256,10,11
 1070 292 1070 292 1029.5 338.5 c 128,-1,12
 989 385 989 385 927 385 c 2,13,-1
 822 385 l 1,14,-1
 822 520 l 1,15,-1
 915 520 l 2,16,17
 974 520 974 520 1019.5 551.5 c 128,-1,18
 1065 583 1065 583 1065 641 c 256,19,20
 1065 823 1065 823 711 823 c 256,21,22
 522 823 522 823 402 728.5 c 128,-1,23
 282 634 282 634 273 471 c 1,24,25
 340 552 340 552 458 552 c 256,26,27
 576 552 576 552 649.5 472.5 c 128,-1,28
 723 393 723 393 723 269 c 256,29,30
 723 147 723 147 643.5 62 c 128,-1,31
 564 -23 564 -23 428 -23 c 256,32,33
 292 -23 292 -23 216.5 101 c 128,-1,34
 141 225 141 225 141 385 c 256,35,36
 141 659 141 659 298.5 801 c 128,-1,37
 456 943 456 943 751 943 c 256,38,39
 982 943 982 943 1089.5 850 c 128,-1,40
 1197 757 1197 757 1197 641 c 256,41,42
 1197 501 1197 501 1080 456 c 1,43,44
 1203 405 1203 405 1203 220 c 256,0,1
550.5 143 m 128,-1,46
 589 196 589 196 589 268 c 256,47,48
 589 340 589 340 548 392 c 128,-1,49
 507 444 507 444 437 444 c 256,50,51
 367 444 367 444 327 395 c 128,-1,52
 287 346 287 346 287 272 c 256,53,54
 287 198 287 198 329.5 144 c 128,-1,55
 372 90 372 90 442 90 c 256,56,45
 512 90 512 90 550.5 143 c 128,-1,46
2361 820 m 128,-1,58
 2463 697 2463 697 2463 492 c 256,59,60
 2463 287 2463 287 2357 133 c 128,-1,61
 2251 -21 2251 -21 2005 -21 c 256,62,63
 1837 -21 1837 -21 1744 68.5 c 128,-1,64
 1651 158 1651 158 1651 261 c 1,65,-1
 1785 261 l 1,66,67
 1819 102 1819 102 1998 102 c 256,68,69
 2317 102 2317 102 2317 473 c 256,70,71
 2317 823 2317 823 2085 823 c 256,72,73
 2019 823 2019 823 1969.5 770.5 c 128,-1,74
 1920 718 1920 718 1920 643 c 2,75,-1
 1920 475 l 1,76,-1
 1773 475 l 1,77,-1
 1773 625 l 2,78,79
 1773 823 1773 823 1620 823 c 256,80,81
 1529 823 1529 823 1489.5 761 c 128,-1,82
 1450 699 1450 699 1450 561 c 256,83,84
 1450 540 1450 540 1456 456 c 1,85,-1
 1330 456 l 1,86,87
 1318 552 1318 552 1318 578 c 256,88,89
 1318 943 1318 943 1644 943 c 256,90,91
 1783 943 1783 943 1848 831 c 1,92,93
 1887 888 1887 888 1945 915.5 c 128,-1,94
 2003 943 2003 943 2107 943 c 256,95,57
 2259 943 2259 943 2361 820 c 128,-1,58
EndSplineSet
Validated: 3073
EndChar

StartChar: k1
Encoding: 3349 3349 114
Width: 1605
VWidth: 2459
GlyphClass: 2
Flags: MW
LayerCount: 2
Fore
SplineSet
1297 573 m 2,0,1
 1429 573 1429 573 1518 496.5 c 128,-1,2
 1607 420 1607 420 1607 282 c 256,3,4
 1607 146 1607 146 1535 61.5 c 128,-1,5
 1463 -23 1463 -23 1327 -23 c 256,6,7
 1271 -23 1271 -23 1226 -6 c 1,8,-1
 1226 119 l 1,9,10
 1266 95 1266 95 1308 95 c 256,11,12
 1472 95 1472 95 1472 285 c 256,13,14
 1472 450 1472 450 1278 450 c 2,15,-1
 1205 450 l 1,16,-1
 1205 397 l 2,17,18
 1205 -23 1205 -23 875 -23 c 256,19,20
 673 -23 673 -23 610 114 c 1,21,22
 565 -23 565 -23 403 -23 c 256,23,24
 275 -23 275 -23 210 66.5 c 128,-1,25
 145 156 145 156 145 282 c 256,26,27
 145 410 145 410 230 491.5 c 128,-1,28
 315 573 315 573 445 573 c 2,29,-1
 539 573 l 1,30,-1
 539 604 l 2,31,32
 539 749 539 749 633 846 c 128,-1,33
 727 943 727 943 876 943 c 260,34,35
 1025 943 1025 943 1115 845 c 128,-1,36
 1205 747 1205 747 1205 604 c 2,37,-1
 1205 573 l 1,38,-1
 1297 573 l 2,0,1
1069 573 m 1,39,-1
 1069 599 l 2,40,41
 1069 689 1069 689 1012.5 756 c 128,-1,42
 956 823 956 823 868 823 c 256,43,44
 779 823 779 823 724 755 c 128,-1,45
 669 687 669 687 669 594 c 2,46,-1
 669 573 l 1,47,-1
 1069 573 l 1,39,-1
1069 405 m 2,48,-1
 1069 450 l 1,49,-1
 669 450 l 1,50,-1
 669 402 l 2,51,52
 669 93 669 93 869 93 c 256,53,54
 1069 93 1069 93 1069 405 c 2,48,-1
539 400 m 1,55,-1
 539 450 l 1,56,-1
 474 450 l 2,57,58
 265 450 265 450 265 282 c 256,59,60
 265 211 265 211 302.5 153 c 128,-1,61
 340 95 340 95 406 95 c 256,62,63
 472 95 472 95 509.5 143 c 128,-1,64
 547 191 547 191 547 238 c 0,65,66
 547 256 547 256 539 400 c 1,55,-1
EndSplineSet
Validated: 3073
EndChar

StartChar: k2
Encoding: 3350 3350 115
Width: 1532
VWidth: 2459
GlyphClass: 2
Flags: MW
LayerCount: 2
Fore
SplineSet
1534 0 m 1,0,-1
 868 0 l 1,1,-1
 868 101 l 1,2,3
 1018 197 1018 197 1018 425 c 256,4,5
 1018 594 1018 594 923.5 709 c 128,-1,6
 829 824 829 824 656 824 c 256,7,8
 483 824 483 824 376.5 707 c 128,-1,9
 270 590 270 590 270 457 c 0,10,11
 270 448 270 448 270 440 c 1,12,13
 322 560 322 560 454 560 c 256,14,15
 586 560 586 560 659 475.5 c 128,-1,16
 732 391 732 391 732 268 c 256,17,18
 732 143 732 143 660 61 c 128,-1,19
 588 -21 588 -21 467 -21 c 256,20,21
 297 -21 297 -21 220 96.5 c 128,-1,22
 143 214 143 214 143 380 c 256,23,24
 143 626 143 626 285.5 784.5 c 128,-1,25
 428 943 428 943 656 943 c 260,26,27
 884 943 884 943 1022.5 792 c 128,-1,28
 1161 641 1161 641 1161 431 c 256,29,30
 1161 221 1161 221 1055 113 c 1,31,-1
 1398 113 l 1,32,-1
 1398 920 l 1,33,-1
 1534 920 l 1,34,-1
 1534 0 l 1,0,-1
569 143.5 m 128,-1,36
 610 195 610 195 610 266 c 256,37,38
 610 337 610 337 569 388.5 c 128,-1,39
 528 440 528 440 458 440 c 256,40,41
 388 440 388 440 346.5 388.5 c 128,-1,42
 305 337 305 337 305 266 c 256,43,44
 305 195 305 195 346.5 143.5 c 128,-1,45
 388 92 388 92 458 92 c 256,46,35
 528 92 528 92 569 143.5 c 128,-1,36
EndSplineSet
Validated: 3073
EndChar

StartChar: k3
Encoding: 3351 3351 116
Width: 1532
VWidth: 2458
GlyphClass: 2
Flags: MW
LayerCount: 2
Fore
SplineSet
1534 446 m 256,0,1
 1534 123 1534 123 1256 -21 c 1,2,-1
 1168 64 l 1,3,4
 1409 170 1409 170 1409 463 c 256,5,6
 1409 608 1409 608 1331.5 715.5 c 128,-1,7
 1254 823 1254 823 1123 823 c 256,8,9
 914 823 914 823 914 488 c 2,10,-1
 914 352 l 2,11,12
 914 197 914 197 816 88 c 128,-1,13
 718 -21 718 -21 540 -21 c 256,14,15
 362 -21 362 -21 253.5 119 c 128,-1,16
 145 259 145 259 145 453 c 256,17,18
 145 803 145 803 425 943 c 5,19,-1
 509 859 l 5,20,21
 281 746 281 746 281 472 c 256,22,23
 281 336 281 336 353 220 c 128,-1,24
 425 104 425 104 556 104 c 256,25,26
 778 104 778 104 783 390 c 10,27,-1
 787 602 l 2,28,29
 790 739 790 739 878 841 c 128,-1,30
 966 943 966 943 1121 943 c 256,31,32
 1327 943 1327 943 1430.5 798 c 128,-1,33
 1534 653 1534 653 1534 446 c 256,0,1
EndSplineSet
Validated: 3073
EndChar

StartChar: k4
Encoding: 3352 3352 117
Width: 2268
VWidth: 2457
GlyphClass: 2
Flags: MW
LayerCount: 2
Fore
SplineSet
1037 315 m 1,0,1
 622 315 l 1,2,-1
 622 383 l 1,3,4
 750 443 750 443 750 598 c 256,5,6
 750 694 750 694 677.5 758.5 c 128,-1,7
 605 823 605 823 507 823 c 256,8,9
 408 823 408 823 335.5 761 c 128,-1,10
 263 699 263 699 263 603 c 256,11,12
 263 465 263 465 387 406 c 1,13,-1
 330 305 l 1,14,15
 145 396 145 396 145 603 c 256,16,17
 145 748 145 748 253 845.5 c 128,-1,18
 361 943 361 943 508 943 c 256,19,20
 657 943 657 943 765 845.5 c 128,-1,21
 873 748 873 748 873 615 c 256,22,23
 873 482 873 482 821 425 c 1,24,-1
 1037 425 l 1,25,-1
 1037 558 l 2,26,27
 1037 735 1037 735 1161 839 c 128,-1,28
 1285 943 1285 943 1469 943 c 260,29,30
 1653 943 1653 943 1770.5 840 c 128,-1,31
 1888 737 1888 737 1888 558 c 2,32,-1
 1888 315 l 1,33,-1
 1180 315 l 1,34,-1
 1180 111 l 1,35,-1
 2131 111 l 1,36,-1
 2131 920 l 1,37,-1
 2266 920 l 1,38,-1
 2266 0 l 1,39,-1
 1037 0 l 1,40,-1
 1037 315 l 1,0,1
1750 425 m 1,41,-1
 1750 521 l 2,42,43
 1750 654 1750 654 1676 738.5 c 128,-1,44
 1602 823 1602 823 1470 823 c 256,45,46
 1337 823 1337 823 1259.5 738.5 c 128,-1,47
 1182 654 1182 654 1182 521 c 2,48,-1
 1182 425 l 1,49,-1
 1750 425 l 1,41,-1
EndSplineSet
Validated: 3073
EndChar

StartChar: ng
Encoding: 3353 3353 118
Width: 1691
VWidth: 2459
GlyphClass: 2
Flags: MW
LayerCount: 2
Fore
SplineSet
1689 249 m 256,0,1
 1689 128 1689 128 1600.5 53.5 c 128,-1,2
 1512 -21 1512 -21 1399 -21 c 256,3,4
 1286 -21 1286 -21 1197 3 c 1,5,-1
 1197 125 l 1,6,7
 1229 99 1229 99 1377 99 c 256,8,9
 1450 99 1450 99 1503 139.5 c 128,-1,10
 1556 180 1556 180 1556 256 c 256,11,12
 1556 408 1556 408 1367 408 c 2,13,-1
 1217 408 l 1,14,-1
 1217 528 l 1,15,-1
 1365 528 l 2,16,17
 1556 528 1556 528 1556 664 c 256,18,19
 1556 744 1556 744 1477.5 783.5 c 128,-1,20
 1399 823 1399 823 1299 823 c 256,21,22
 1198 823 1198 823 1108 770.5 c 128,-1,23
 1018 718 1018 718 1018 622 c 2,24,-1
 1018 0 l 1,25,-1
 882 0 l 1,26,-1
 882 622 l 2,27,28
 882 713 882 713 798 768 c 128,-1,29
 714 823 714 823 620 823 c 256,30,31
 452 823 452 823 359 705 c 128,-1,32
 266 587 266 587 266 440 c 1,33,34
 308 558 308 558 470 558 c 256,35,36
 596 558 596 558 671 477 c 128,-1,37
 746 396 746 396 746 273 c 256,38,39
 746 150 746 150 663 64.5 c 128,-1,40
 580 -21 580 -21 448 -21 c 256,41,42
 288 -21 288 -21 215.5 103.5 c 128,-1,43
 143 228 143 228 143 396 c 256,44,45
 143 625 143 625 268 784 c 128,-1,46
 393 943 393 943 613 943 c 256,47,48
 833 943 833 943 954 811 c 1,49,50
 1074 943 1074 943 1311 943 c 256,51,52
 1450 943 1450 943 1569.5 872.5 c 128,-1,53
 1689 802 1689 802 1689 668 c 256,54,55
 1689 605 1689 605 1652.5 548.5 c 128,-1,56
 1616 492 1616 492 1553 474 c 1,57,58
 1689 430 1689 430 1689 249 c 256,0,1
560.5 149.5 m 128,-1,60
 605 200 605 200 605 269 c 256,61,62
 605 338 605 338 564.5 390.5 c 128,-1,63
 524 443 524 443 453 443 c 256,64,65
 382 443 382 443 339 391.5 c 128,-1,66
 296 340 296 340 296 270 c 256,67,68
 296 202 296 202 342 150.5 c 128,-1,69
 388 99 388 99 452 99 c 256,70,59
 516 99 516 99 560.5 149.5 c 128,-1,60
EndSplineSet
Validated: 3073
EndChar

StartChar: ch1
Encoding: 3354 3354 119
Width: 1452
VWidth: 2459
GlyphClass: 2
Flags: MW
LayerCount: 2
Fore
SplineSet
1457 0 m 1,0,-1
 147 0 l 1,1,-1
 147 113 l 1,2,-1
 700 113 l 2,3,4
 783 113 783 113 844.5 175 c 128,-1,5
 906 237 906 237 906 312 c 256,6,7
 906 389 906 389 850 443 c 128,-1,8
 794 497 794 497 714 497 c 256,9,10
 636 497 636 497 578 443 c 128,-1,11
 520 389 520 389 520 310 c 256,12,13
 520 263 520 263 543 224 c 1,14,-1
 410 219 l 1,15,16
 395 272 395 272 395 316 c 0,17,18
 395 441 395 441 490.5 531.5 c 128,-1,19
 586 622 586 622 718 622 c 256,20,21
 850 622 850 622 942 531.5 c 128,-1,22
 1034 441 1034 441 1034 312 c 256,23,24
 1034 185 1034 185 940 113 c 1,25,-1
 1322 113 l 1,26,-1
 1322 920 l 257,27,-1
 1457 920 l 257,28,-1
 1457 0 l 1,0,-1
EndSplineSet
Validated: 3073
EndChar

StartChar: ch2
Encoding: 3355 3355 120
Width: 2162
VWidth: 2459
GlyphClass: 2
Flags: MW
LayerCount: 2
Fore
SplineSet
719 624 m 256,0,1
 850 624 850 624 939.5 536 c 128,-1,2
 1029 448 1029 448 1029 313 c 256,3,4
 1029 178 1029 178 938 115 c 1,5,-1
 1204 115 l 1,6,7
 1128 229 1128 229 1128 419 c 256,8,9
 1128 650 1128 650 1278 796.5 c 128,-1,10
 1428 943 1428 943 1644 943 c 256,11,12
 1860 943 1860 943 2010 779 c 128,-1,13
 2160 615 2160 615 2160 389 c 256,14,15
 2160 221 2160 221 2067 100 c 128,-1,16
 1974 -21 1974 -21 1824 -21 c 256,17,18
 1674 -21 1674 -21 1584 82.5 c 128,-1,19
 1494 186 1494 186 1494 338 c 256,20,21
 1494 490 1494 490 1585 601.5 c 128,-1,22
 1676 713 1676 713 1838 713 c 256,23,24
 1870 713 1870 713 1927 701 c 1,25,26
 1826 823 1826 823 1650 823 c 256,27,28
 1474 823 1474 823 1359.5 710 c 128,-1,29
 1245 597 1245 597 1245 407 c 256,30,31
 1245 118 1245 118 1444 87 c 1,32,-1
 1444 0 l 1,33,-1
 147 0 l 1,34,-1
 147 115 l 1,35,-1
 700 115 l 2,36,37
 783 115 783 115 847.5 176 c 128,-1,38
 912 237 912 237 912 315 c 256,39,40
 912 394 912 394 854 450.5 c 128,-1,41
 796 507 796 507 715 507 c 256,42,43
 633 507 633 507 573 450.5 c 128,-1,44
 513 394 513 394 513 312 c 256,45,46
 513 264 513 264 538 224 c 1,47,-1
 410 221 l 1,48,49
 396 261 396 261 396 312 c 256,50,51
 396 443 396 443 492 533.5 c 128,-1,52
 588 624 588 624 719 624 c 256,0,1
2034 354 m 256,53,54
 2034 457 2034 457 1988 556 c 1,55,56
 1932 595 1932 595 1834 595 c 256,57,58
 1736 595 1736 595 1674 521 c 128,-1,59
 1612 447 1612 447 1612 346 c 256,60,61
 1612 246 1612 246 1667 174.5 c 128,-1,62
 1722 103 1722 103 1814 103 c 256,63,64
 1906 103 1906 103 1970 177 c 128,-1,65
 2034 251 2034 251 2034 354 c 256,53,54
EndSplineSet
Validated: 3073
EndChar

StartChar: ch3
Encoding: 3356 3356 121
Width: 1409
VWidth: 2459
GlyphClass: 2
Flags: MW
LayerCount: 2
Fore
SplineSet
1310 396 m 1,0,1
 1416 324 1416 324 1416 218 c 256,2,3
 1416 112 1416 112 1347 45.5 c 128,-1,4
 1278 -21 1278 -21 1188 -21 c 256,5,6
 1098 -21 1098 -21 1034.5 21.5 c 128,-1,7
 971 64 971 64 954 130 c 1,8,9
 823 -21 823 -21 509 -21 c 256,10,11
 342 -21 342 -21 249.5 13 c 128,-1,12
 157 47 157 47 157 177 c 256,13,14
 157 401 157 401 577 401 c 2,15,-1
 947 401 l 2,16,17
 1078 401 1078 401 1179 457 c 128,-1,18
 1280 513 1280 513 1280 615 c 256,19,20
 1280 718 1280 718 1226 770.5 c 128,-1,21
 1172 823 1172 823 1081 823 c 256,22,23
 887 823 887 823 887 641 c 2,24,-1
 887 443 l 1,25,-1
 752 443 l 1,26,-1
 752 631 l 2,27,28
 752 823 752 823 504 823 c 256,29,30
 342 823 342 823 307 765 c 1,31,32
 342 784 342 784 368 784 c 256,33,34
 448 784 448 784 493.5 730 c 128,-1,35
 539 676 539 676 539 595 c 256,36,37
 539 514 539 514 482 457.5 c 128,-1,38
 425 401 425 401 342 401 c 256,39,40
 145 401 145 401 145 624 c 256,41,42
 145 781 145 781 250 862 c 128,-1,43
 355 943 355 943 512 943 c 256,44,45
 725 943 725 943 816 816 c 1,46,47
 888 943 888 943 1101 943 c 256,48,49
 1249 943 1249 943 1331.5 852.5 c 128,-1,50
 1414 762 1414 762 1414 620 c 256,51,52
 1414 478 1414 478 1310 396 c 1,0,1
1297 211 m 256,53,54
 1296 317 1296 317 1178 317 c 256,55,56
 1060 317 1060 317 1060 211 c 256,57,58
 1060 162 1060 162 1095 129 c 128,-1,59
 1130 96 1130 96 1180 96 c 256,60,61
 1229 96 1229 96 1263 129 c 128,-1,62
 1297 162 1297 162 1297 211 c 256,53,54
436 603 m 256,63,64
 436 645 436 645 410 674 c 128,-1,65
 384 703 384 703 343 703 c 256,66,67
 302 703 302 703 274 675 c 128,-1,68
 246 647 246 647 246 605 c 256,69,70
 246 504 246 504 341 504 c 256,71,72
 436 504 436 504 436 603 c 256,63,64
947 291 m 1,73,-1
 671 291 l 2,74,75
 283 291 283 291 283 183 c 256,76,77
 283 96 283 96 526 96 c 256,78,79
 851 96 851 96 947 291 c 1,73,-1
EndSplineSet
Validated: 3073
EndChar

StartChar: ch4
Encoding: 3357 3357 122
Width: 2588
VWidth: 2458
GlyphClass: 2
Flags: MW
LayerCount: 2
Fore
SplineSet
2591 455 m 256,0,1
 2591 256 2591 256 2492.5 118.5 c 128,-1,2
 2394 -19 2394 -19 2209 -19 c 256,3,4
 2062 -19 2062 -19 1981 108 c 1,5,6
 1949 52 1949 52 1883 15.5 c 128,-1,7
 1817 -21 1817 -21 1745 -21 c 256,8,9
 1583 -21 1583 -21 1466 74 c 128,-1,10
 1349 169 1349 169 1349 319 c 2,11,-1
 1349 511 l 2,12,13
 1349 642 1349 642 1253 732.5 c 128,-1,14
 1157 823 1157 823 1028 823 c 256,15,16
 982 823 982 823 922 804 c 1,17,18
 1016 722 1016 722 1067 599.5 c 128,-1,19
 1118 477 1118 477 1118 378 c 256,20,21
 1118 232 1118 232 1028 105.5 c 128,-1,22
 938 -21 938 -21 804 -21 c 256,23,24
 670 -21 670 -21 581 96.5 c 128,-1,25
 492 214 492 214 492 378 c 256,26,27
 492 636 492 636 698 799 c 1,28,29
 631 823 631 823 586 823 c 256,30,31
 450 823 450 823 362.5 708 c 128,-1,32
 275 593 275 593 275 438 c 256,33,34
 275 192 275 192 452 61 c 1,35,-1
 368 -24 l 1,36,37
 145 131 145 131 145 450 c 256,38,39
 145 635 145 635 268 789 c 128,-1,40
 391 943 391 943 629 943 c 256,41,42
 730 943 730 943 811 880 c 1,43,44
 895 943 895 943 1063 943 c 256,45,46
 1231 943 1231 943 1354 839 c 128,-1,47
 1477 735 1477 735 1477 570 c 2,48,-1
 1477 369 l 2,49,50
 1477 256 1477 256 1551 178.5 c 128,-1,51
 1625 101 1625 101 1742 101 c 256,52,53
 1821 101 1821 101 1864 171 c 128,-1,54
 1907 241 1907 241 1907 335 c 2,55,-1
 1907 920 l 1,56,-1
 2042 920 l 1,57,-1
 2042 335 l 2,58,59
 2042 249 2042 249 2085 175 c 128,-1,60
 2128 101 2128 101 2200 101 c 256,61,62
 2465 101 2465 101 2465 448 c 256,63,64
 2465 739 2465 739 2251 858 c 1,65,-1
 2338 943 l 5,66,67
 2591 788 2591 788 2591 455 c 256,0,1
971 378 m 256,68,69
 971 585 971 585 804 739 c 1,70,71
 626 610 626 610 626 378 c 256,72,73
 626 258 626 258 674 176 c 128,-1,74
 722 94 722 94 804 94 c 256,75,76
 884 94 884 94 927.5 182 c 128,-1,77
 971 270 971 270 971 378 c 256,68,69
EndSplineSet
Validated: 3073
EndChar

StartChar: nj
Encoding: 3358 3358 123
Width: 2260
VWidth: 2459
GlyphClass: 2
Flags: MW
LayerCount: 2
Fore
SplineSet
1210 358 m 256,0,1
 1210 630 1210 630 1417 799 c 1,2,3
 1355 823 1355 823 1306 823 c 256,4,5
 1207 823 1207 823 1129 772.5 c 128,-1,6
 1051 722 1051 722 1051 619 c 2,7,-1
 1051 0 l 1,8,-1
 898 0 l 1,9,-1
 898 619 l 2,10,11
 898 713 898 713 810.5 768 c 128,-1,12
 723 823 723 823 620 823 c 256,13,14
 467 823 467 823 371 704 c 128,-1,15
 275 585 275 585 266 441 c 1,16,17
 310 558 310 558 472 558 c 256,18,19
 596 558 596 558 671 477.5 c 128,-1,20
 746 397 746 397 746 274 c 256,21,22
 746 151 746 151 666 65 c 128,-1,23
 586 -21 586 -21 458 -21 c 256,24,25
 298 -21 298 -21 220.5 107 c 128,-1,26
 143 235 143 235 143 396 c 256,27,28
 143 627 143 627 272 785 c 128,-1,29
 401 943 401 943 628 943 c 256,30,31
 856 943 856 943 976 811 c 1,32,33
 1089 943 1089 943 1330 943 c 256,34,35
 1429 943 1429 943 1534 880 c 1,36,37
 1647 943 1647 943 1792 943 c 256,38,39
 2011 943 2011 943 2137.5 791 c 128,-1,40
 2264 639 2264 639 2264 453 c 256,41,42
 2264 131 2264 131 2029 -23 c 1,43,-1
 1952 55 l 1,44,45
 2134 181 2134 181 2134 441 c 256,46,47
 2134 593 2134 593 2027.5 708 c 128,-1,48
 1921 823 1921 823 1771 823 c 256,49,50
 1712 823 1712 823 1657 804 c 1,51,52
 1753 727 1753 727 1808 603 c 128,-1,53
 1863 479 1863 479 1863 381 c 256,54,55
 1863 224 1863 224 1778.5 101.5 c 128,-1,56
 1694 -21 1694 -21 1538 -21 c 256,57,58
 1382 -21 1382 -21 1296 90.5 c 128,-1,59
 1210 202 1210 202 1210 358 c 256,0,1
1724 381 m 256,60,61
 1724 575 1724 575 1534 742 c 1,62,63
 1337 603 1337 603 1337 381 c 256,64,65
 1337 259 1337 259 1390 176.5 c 128,-1,66
 1443 94 1443 94 1534 94 c 256,67,68
 1623 94 1623 94 1673.5 184 c 128,-1,69
 1724 274 1724 274 1724 381 c 256,60,61
610 271 m 256,70,71
 610 343 610 343 568 395.5 c 128,-1,72
 526 448 526 448 453 448 c 256,73,74
 379 448 379 448 336 396.5 c 128,-1,75
 293 345 293 345 293 273 c 256,76,77
 293 202 293 202 336.5 149.5 c 128,-1,78
 380 97 380 97 452 97 c 256,79,80
 524 97 524 97 567 148.5 c 128,-1,81
 610 200 610 200 610 271 c 256,70,71
EndSplineSet
Validated: 3073
EndChar

StartChar: t1
Encoding: 3359 3359 124
Width: 987
VWidth: 2459
GlyphClass: 2
Flags: MW
LayerCount: 2
Fore
SplineSet
663 530 m 2,0,1
 810 530 810 530 899.5 468 c 128,-1,2
 989 406 989 406 989 264 c 256,3,4
 989 123 989 123 871.5 50 c 128,-1,5
 754 -23 754 -23 585 -23 c 256,6,7
 295 -23 295 -23 145 135 c 1,8,-1
 229 225 l 1,9,10
 341 100 341 100 581 100 c 256,11,12
 692 100 692 100 773.5 142 c 128,-1,13
 855 184 855 184 855 269 c 256,14,15
 855 401 855 401 651 401 c 2,16,-1
 484 401 l 2,17,18
 332 401 332 401 238.5 469 c 128,-1,19
 145 537 145 537 145 653 c 256,20,21
 145 797 145 797 260 870 c 128,-1,22
 375 943 375 943 553 943 c 256,23,24
 843 943 843 943 989 787 c 1,25,-1
 907 697 l 1,26,27
 790 823 790 823 553 823 c 256,28,29
 444 823 444 823 363.5 780.5 c 128,-1,30
 283 738 283 738 283 653 c 256,31,32
 283 530 283 530 487 530 c 2,33,-1
 663 530 l 2,0,1
EndSplineSet
Validated: 3073
EndChar

StartChar: t2
Encoding: 3360 3360 125
Width: 1119
VWidth: 2458
GlyphClass: 2
Flags: MW
LayerCount: 2
Fore
SplineSet
977.5 803.5 m 128,-1,1
 1120 664 1120 664 1120 464 c 256,2,3
 1120 264 1120 264 977.5 121.5 c 128,-1,4
 835 -21 835 -21 632 -21 c 256,5,6
 429 -21 429 -21 287 121.5 c 128,-1,7
 145 264 145 264 145 464 c 256,8,9
 145 664 145 664 287 803.5 c 128,-1,10
 429 943 429 943 632 943 c 256,11,0
 835 943 835 943 977.5 803.5 c 128,-1,1
889 209 m 0,12,13
 995 316 995 316 995 464 c 256,14,15
 995 612 995 612 888.5 717.5 c 128,-1,16
 782 823 782 823 632 823 c 256,17,18
 482 823 482 823 375.5 717.5 c 128,-1,19
 269 612 269 612 269 464 c 256,20,21
 269 316 269 316 375.5 209.5 c 128,-1,22
 482 103 482 103 632 103 c 256,23,24
 782 103 782 103 889 209 c 0,12,13
EndSplineSet
Validated: 3073
EndChar

StartChar: t3
Encoding: 3361 3361 126
Width: 2174
VWidth: 2458
GlyphClass: 2
Flags: MW
LayerCount: 2
Fore
SplineSet
2179 460 m 256,0,1
 2179 261 2179 261 2066.5 120 c 128,-1,2
 1954 -21 1954 -21 1756 -21 c 256,3,4
 1558 -21 1558 -21 1461 128 c 1,5,6
 1365 -21 1365 -21 1178 -21 c 256,7,8
 991 -21 991 -21 884 89.5 c 128,-1,9
 777 200 777 200 777 364 c 2,10,-1
 777 540 l 2,11,12
 777 652 777 652 716 737.5 c 128,-1,13
 655 823 655 823 549 823 c 256,14,15
 416 823 416 823 339.5 710.5 c 128,-1,16
 263 598 263 598 263 446 c 256,17,18
 263 183 263 183 485 69 c 1,19,-1
 416 -27 l 1,20,21
 143 121 143 121 143 448 c 256,22,23
 143 655 143 655 249.5 799 c 128,-1,24
 356 943 356 943 543 943 c 256,25,26
 730 943 730 943 822.5 815.5 c 128,-1,27
 915 688 915 688 915 502 c 2,28,-1
 915 360 l 2,29,30
 915 250 915 250 977.5 177 c 128,-1,31
 1040 104 1040 104 1151 104 c 256,32,33
 1262 104 1262 104 1324.5 169.5 c 128,-1,34
 1387 235 1387 235 1387 336 c 2,35,-1
 1387 920 l 1,36,-1
 1529 920 l 1,37,-1
 1529 336 l 2,38,39
 1529 242 1529 242 1599.5 173 c 128,-1,40
 1670 104 1670 104 1768 104 c 256,41,42
 1903 104 1903 104 1974 209.5 c 128,-1,43
 2045 315 2045 315 2045 456 c 256,44,45
 2045 723 2045 723 1834 842 c 1,46,-1
 1903 943 l 5,47,48
 2179 795 2179 795 2179 460 c 256,0,1
EndSplineSet
Validated: 3073
EndChar

StartChar: t4
Encoding: 3362 3362 127
Width: 2237
VWidth: 2459
GlyphClass: 2
Flags: MW
LayerCount: 2
Fore
SplineSet
2246 532 m 256,0,1
 2246 310 2246 310 2114 143.5 c 128,-1,2
 1982 -23 1982 -23 1748 -23 c 256,3,4
 1514 -23 1514 -23 1395 117 c 1,5,6
 1290 -20 1290 -20 1113 -20 c 256,7,8
 936 -20 936 -20 843 84.5 c 128,-1,9
 750 189 750 189 750 365 c 256,10,11
 750 595 750 595 734 660 c 0,12,13
 695 823 695 823 543 823 c 256,14,15
 392 823 392 823 327.5 708.5 c 128,-1,16
 263 594 263 594 263 447 c 256,17,18
 263 191 263 191 476 77 c 1,19,-1
 417 -20 l 1,20,21
 145 124 145 124 145 449 c 256,22,23
 145 659 145 659 240.5 801 c 128,-1,24
 336 943 336 943 543 943 c 256,25,26
 780 943 780 943 843 749 c 0,27,28
 875 651 875 651 875 360 c 256,29,30
 875 252 875 252 936.5 178.5 c 128,-1,31
 998 105 998 105 1099 105 c 256,32,33
 1200 105 1200 105 1263.5 180 c 128,-1,34
 1327 255 1327 255 1327 351 c 2,35,-1
 1327 920 l 1,36,-1
 1463 920 l 1,37,-1
 1463 321 l 2,38,39
 1463 214 1463 214 1558.5 157 c 128,-1,40
 1654 100 1654 100 1770 100 c 256,41,42
 1925 100 1925 100 2012 211.5 c 128,-1,43
 2099 323 2099 323 2111 485 c 1,44,45
 2087 429 2087 429 2025 394.5 c 128,-1,46
 1963 360 1963 360 1897 360 c 256,47,48
 1777 360 1777 360 1702 445 c 128,-1,49
 1627 530 1627 530 1627 654 c 256,50,51
 1627 778 1627 778 1710.5 860.5 c 128,-1,52
 1794 943 1794 943 1920 943 c 256,53,54
 2083 943 2083 943 2164.5 821.5 c 128,-1,55
 2246 700 2246 700 2246 532 c 256,0,1
2084 653 m 256,56,57
 2084 724 2084 724 2036 773.5 c 128,-1,58
 1988 823 1988 823 1918 823 c 256,59,60
 1848 823 1848 823 1803.5 774.5 c 128,-1,61
 1759 726 1759 726 1759 655 c 256,62,63
 1759 585 1759 585 1803 531.5 c 128,-1,64
 1847 478 1847 478 1916 478 c 256,65,66
 1986 478 1986 478 2035 529.5 c 128,-1,67
 2084 581 2084 581 2084 653 c 256,56,57
EndSplineSet
Validated: 3073
EndChar

StartChar: nh
Encoding: 3363 3363 128
Width: 2232
VWidth: 2459
GlyphClass: 2
Flags: MW
LayerCount: 2
Fore
SplineSet
2237 471 m 256,0,1
 2237 124 2237 124 1964 -23 c 1,2,-1
 1898 81 l 1,3,4
 2107 191 2107 191 2107 475 c 256,5,6
 2107 623 2107 623 2028.5 723 c 128,-1,7
 1950 823 1950 823 1810 823 c 256,8,9
 1623 823 1623 823 1623 594 c 2,10,-1
 1623 0 l 1,11,-1
 1487 0 l 1,12,-1
 1487 594 l 2,13,14
 1487 705 1487 705 1422.5 764.5 c 128,-1,15
 1358 824 1358 824 1258 824 c 256,16,17
 1158 824 1158 824 1095.5 765.5 c 128,-1,18
 1033 707 1033 707 1033 594 c 2,19,-1
 1033 0 l 1,20,-1
 887 0 l 1,21,-1
 887 594 l 2,22,23
 887 823 887 823 608 823 c 256,24,25
 463 823 463 823 368 705.5 c 128,-1,26
 273 588 273 588 263 439 c 1,27,28
 308 557 308 557 463 557 c 256,29,30
 580 557 580 557 654 476 c 128,-1,31
 728 395 728 395 728 273 c 256,32,33
 728 151 728 151 649.5 64 c 128,-1,34
 571 -23 571 -23 448 -23 c 256,35,36
 143 -23 143 -23 143 395 c 256,37,38
 143 628 143 628 278 785.5 c 128,-1,39
 413 943 413 943 630 943 c 256,40,41
 848 943 848 943 957 815 c 1,42,43
 1052 943 1052 943 1251 943 c 256,44,45
 1449 943 1449 943 1553 817 c 1,46,47
 1644 943 1644 943 1828 943 c 256,48,49
 2018 943 2018 943 2127.5 808 c 128,-1,50
 2237 673 2237 673 2237 471 c 256,0,1
556 149 m 128,-1,52
 598 201 598 201 598 271 c 256,53,54
 598 341 598 341 556 394 c 128,-1,55
 514 447 514 447 444 447 c 256,56,57
 374 447 374 447 331.5 396.5 c 128,-1,58
 289 346 289 346 289 274 c 256,59,60
 289 203 289 203 331.5 150 c 128,-1,61
 374 97 374 97 444 97 c 256,62,51
 514 97 514 97 556 149 c 128,-1,52
EndSplineSet
Validated: 3073
EndChar

StartChar: th1
Encoding: 3364 3364 129
Width: 1609
VWidth: 2459
GlyphClass: 2
Flags: MW
LayerCount: 2
Fore
SplineSet
1607 453 m 256,0,1
 1607 134 1607 134 1372 -23 c 1,2,-1
 1293 57 l 1,3,4
 1477 185 1477 185 1477 441 c 256,5,6
 1477 593 1477 593 1370.5 708 c 128,-1,7
 1264 823 1264 823 1111 823 c 256,8,9
 1077 823 1077 823 1013 807 c 1,10,11
 1109 730 1109 730 1158 601 c 128,-1,12
 1207 472 1207 472 1207 364 c 256,13,14
 1207 215 1207 215 1113.5 97 c 128,-1,15
 1020 -21 1020 -21 870 -21 c 256,16,17
 720 -21 720 -21 634.5 89.5 c 128,-1,18
 549 200 549 200 549 364 c 256,19,20
 549 639 549 639 753 802 c 1,21,22
 691 823 691 823 627 823 c 256,23,24
 479 823 479 823 374.5 713 c 128,-1,25
 270 603 270 603 270 441 c 256,26,27
 270 183 270 183 460 55 c 1,28,-1
 378 -23 l 1,29,30
 143 131 143 131 143 453 c 256,31,32
 143 642 143 642 280.5 792.5 c 128,-1,33
 418 943 418 943 673 943 c 256,34,35
 804 943 804 943 889 873 c 1,36,37
 981 943 981 943 1135 943 c 260,38,39
 1355 943 1355 943 1481 791 c 128,-1,40
 1607 639 1607 639 1607 453 c 256,0,1
877 94 m 256,41,42
 967 94 967 94 1016 176.5 c 128,-1,43
 1065 259 1065 259 1065 368 c 256,44,45
 1065 477 1065 477 1012 580 c 128,-1,46
 959 683 959 683 877 739 c 1,47,48
 786 678 786 678 733.5 574 c 128,-1,49
 681 470 681 470 681 364 c 256,50,51
 681 94 681 94 877 94 c 256,41,42
EndSplineSet
Validated: 3073
EndChar

StartChar: th2
Encoding: 3365 3365 130
Width: 1387
VWidth: 2457
GlyphClass: 2
Flags: MW
LayerCount: 2
Fore
SplineSet
1387 0 m 1,0,-1
 143 0 l 1,1,-1
 143 920 l 1,2,-1
 279 920 l 1,3,-1
 279 113 l 1,4,-1
 568 113 l 1,5,-1
 568 542 l 2,6,7
 568 708 568 708 687.5 825.5 c 128,-1,8
 807 943 807 943 978 943 c 260,9,10
 1149 943 1149 943 1268 830.5 c 128,-1,11
 1387 718 1387 718 1387 554 c 2,12,-1
 1387 0 l 1,0,-1
1252 113 m 1,13,-1
 1252 546 l 2,14,15
 1252 659 1252 659 1170.5 741 c 128,-1,16
 1089 823 1089 823 976 823 c 256,17,18
 863 823 863 823 784.5 740 c 128,-1,19
 706 657 706 657 706 544 c 2,20,-1
 706 113 l 1,21,-1
 1252 113 l 1,13,-1
EndSplineSet
Validated: 3073
EndChar

StartChar: th3
Encoding: 3366 3366 131
Width: 1036
VWidth: 2459
GlyphClass: 2
Flags: MW
LayerCount: 2
Fore
SplineSet
1038 249 m 256,0,1
 1038 128 1038 128 949.5 53.5 c 128,-1,2
 861 -21 861 -21 732 -21 c 256,3,4
 603 -21 603 -21 547 3 c 1,5,-1
 547 125 l 1,6,7
 587 99 587 99 726 99 c 256,8,9
 800 99 800 99 853 139.5 c 128,-1,10
 906 180 906 180 906 256 c 256,11,12
 906 405 906 405 716 405 c 2,13,-1
 564 405 l 1,14,-1
 564 529 l 1,15,-1
 714 529 l 2,16,17
 906 529 906 529 906 663 c 256,18,19
 906 741 906 741 827 782 c 128,-1,20
 748 823 748 823 662 823 c 256,21,22
 476 823 476 823 371 702.5 c 128,-1,23
 266 582 266 582 266 403 c 256,24,25
 266 224 266 224 362 15 c 1,26,-1
 244 -21 l 1,27,28
 144 195 144 195 144 422 c 256,29,30
 144 648 144 648 279 795.5 c 128,-1,31
 414 943 414 943 660 943 c 260,32,33
 807 943 807 943 922.5 872.5 c 128,-1,34
 1038 802 1038 802 1038 667 c 256,35,36
 1038 604 1038 604 1000 543.5 c 128,-1,37
 962 483 962 483 908 466 c 1,38,39
 1038 412 1038 412 1038 249 c 256,0,1
EndSplineSet
Validated: 3073
EndChar

StartChar: th4
Encoding: 3367 3367 132
Width: 1562
VWidth: 2459
GlyphClass: 2
Flags: MW
LayerCount: 2
Fore
SplineSet
1563 461 m 256,0,1
 1563 260 1563 260 1443.5 120 c 128,-1,2
 1324 -20 1324 -20 1128 -20 c 256,3,4
 932 -20 932 -20 848 119 c 1,5,6
 759 -23 759 -23 570 -23 c 256,7,8
 381 -23 381 -23 263 117 c 128,-1,9
 145 257 145 257 145 451 c 256,10,11
 145 605 145 605 218.5 739.5 c 128,-1,12
 292 874 292 874 438 943 c 1,13,-1
 501 839 l 1,14,15
 280 734 280 734 280 442 c 256,16,17
 280 299 280 299 363.5 202 c 128,-1,18
 447 105 447 105 590 105 c 256,19,20
 671 105 671 105 722.5 176 c 128,-1,21
 774 247 774 247 774 328 c 2,22,-1
 774 920 l 1,23,-1
 916 920 l 1,24,-1
 916 328 l 2,25,26
 916 240 916 240 976 172.5 c 128,-1,27
 1036 105 1036 105 1128 105 c 256,28,29
 1263 105 1263 105 1345.5 210 c 128,-1,30
 1428 315 1428 315 1428 451 c 256,31,32
 1428 736 1428 736 1204 839 c 1,33,-1
 1273 943 l 5,34,35
 1418 876 1418 876 1490.5 746 c 128,-1,36
 1563 616 1563 616 1563 461 c 256,0,1
EndSplineSet
Validated: 3073
EndChar

StartChar: n1
Encoding: 3368 3368 133
Width: 1562
VWidth: 2459
GlyphClass: 2
Flags: MW
LayerCount: 2
Fore
SplineSet
862 813 m 1,0,1
 936 943 936 943 1139 943 c 256,2,3
 1330 943 1330 943 1446.5 805 c 128,-1,4
 1563 667 1563 667 1563 490 c 256,5,6
 1563 313 1563 313 1490.5 179.5 c 128,-1,7
 1418 46 1418 46 1273 -23 c 1,8,-1
 1209 77 l 1,9,10
 1430 186 1430 186 1430 480 c 256,11,12
 1430 625 1430 625 1346.5 724 c 128,-1,13
 1263 823 1263 823 1120 823 c 256,14,15
 1034 823 1034 823 983.5 759 c 128,-1,16
 933 695 933 695 933 606 c 2,17,-1
 933 0 l 1,18,-1
 794 0 l 1,19,-1
 794 606 l 2,20,21
 794 695 794 695 733.5 759 c 128,-1,22
 673 823 673 823 582 823 c 256,23,24
 444 823 444 823 363.5 719 c 128,-1,25
 283 615 283 615 283 471 c 256,26,27
 283 178 283 178 513 72 c 1,28,-1
 438 -23 l 1,29,30
 295 46 295 46 220 177.5 c 128,-1,31
 145 309 145 309 145 463 c 256,32,33
 145 659 145 659 265 801 c 128,-1,34
 385 943 385 943 580 943 c 256,35,36
 777 943 777 943 862 813 c 1,0,1
EndSplineSet
Validated: 3073
EndChar

StartChar: p1
Encoding: 3370 3370 134
Width: 1440
VWidth: 2459
GlyphClass: 2
Flags: MW
LayerCount: 2
Fore
SplineSet
1440 0 m 1,0,-1
 622 0 l 1,1,-1
 619 79 l 1,2,3
 743 142 743 142 743 282 c 256,4,5
 743 378 743 378 672.5 442 c 128,-1,6
 602 506 602 506 506 506 c 256,7,8
 410 506 410 506 339 443 c 128,-1,9
 268 380 268 380 268 290 c 256,10,11
 268 152 268 152 389 96 c 1,12,-1
 332 -7 l 1,13,14
 145 86 145 86 145 290 c 256,15,16
 145 434 145 434 253 532.5 c 128,-1,17
 361 631 361 631 510 631 c 260,18,19
 659 631 659 631 767 534.5 c 128,-1,20
 875 438 875 438 875 317 c 256,21,22
 875 196 875 196 823 110 c 1,23,-1
 1308 110 l 1,24,-1
 1308 920 l 1,25,-1
 1440 920 l 1,26,-1
 1440 0 l 1,0,-1
EndSplineSet
Validated: 3073
EndChar

StartChar: p2
Encoding: 3371 3371 135
Width: 1924
VWidth: 2457
GlyphClass: 2
Flags: MW
LayerCount: 2
Fore
SplineSet
1927 0 m 1,0,-1
 622 0 l 1,1,-1
 622 73 l 1,2,3
 750 140 750 140 750 288 c 256,4,5
 750 383 750 383 679 449.5 c 128,-1,6
 608 516 608 516 508 516 c 256,7,8
 408 516 408 516 335.5 452.5 c 128,-1,9
 263 389 263 389 263 289 c 256,10,11
 263 149 263 149 389 89 c 1,12,-1
 333 -5 l 1,13,14
 145 89 145 89 145 293 c 256,15,16
 145 437 145 437 253.5 535 c 128,-1,17
 362 633 362 633 514 633 c 256,18,19
 666 633 666 633 768 536.5 c 128,-1,20
 870 440 870 440 870 304 c 256,21,22
 870 168 870 168 821 113 c 1,23,-1
 1128 113 l 1,24,-1
 1128 537 l 2,25,26
 1128 710 1128 710 1239 826.5 c 128,-1,27
 1350 943 1350 943 1524 943 c 256,28,29
 1698 943 1698 943 1812.5 828 c 128,-1,30
 1927 713 1927 713 1927 548 c 2,31,-1
 1927 0 l 1,0,-1
1801 113 m 1,32,-1
 1801 541 l 2,33,34
 1801 659 1801 659 1723 741.5 c 128,-1,35
 1645 824 1645 824 1532 824 c 256,36,37
 1419 824 1419 824 1341.5 739 c 128,-1,38
 1264 654 1264 654 1264 541 c 2,39,-1
 1264 113 l 1,40,-1
 1801 113 l 1,32,-1
EndSplineSet
Validated: 3073
EndChar

StartChar: p3
Encoding: 3372 3372 136
Width: 2023
VWidth: 2459
GlyphClass: 2
Flags: MW
LayerCount: 2
Fore
SplineSet
2028 0 m 1,0,-1
 1311 0 l 1,1,-1
 1311 82 l 1,2,3
 1407 150 1407 150 1461 261.5 c 128,-1,4
 1515 373 1515 373 1515 496 c 256,5,6
 1515 619 1515 619 1443 721 c 128,-1,7
 1371 823 1371 823 1241 823 c 256,8,9
 1151 823 1151 823 1099.5 762 c 128,-1,10
 1048 701 1048 701 1048 607 c 2,11,-1
 1048 0 l 1,12,-1
 907 0 l 1,13,-1
 907 619 l 2,14,15
 907 718 907 718 819.5 770.5 c 128,-1,16
 732 823 732 823 619 823 c 256,17,18
 465 823 465 823 374 712.5 c 128,-1,19
 283 602 283 602 261 440 c 1,20,21
 303 558 303 558 462 558 c 256,22,23
 586 558 586 558 655.5 476 c 128,-1,24
 725 394 725 394 725 270 c 256,25,26
 725 146 725 146 645 62.5 c 128,-1,27
 565 -21 565 -21 438 -21 c 256,28,29
 143 -21 143 -21 143 378 c 256,30,31
 143 619 143 619 275.5 781 c 128,-1,32
 408 943 408 943 636 943 c 256,33,34
 864 943 864 943 973 821 c 1,35,36
 1089 943 1089 943 1227 943 c 256,37,38
 1445 943 1445 943 1547 804 c 128,-1,39
 1649 665 1649 665 1649 462 c 256,40,41
 1649 258 1649 258 1529 113 c 1,42,-1
 1893 113 l 1,43,-1
 1893 920 l 1,44,-1
 2028 920 l 1,45,-1
 2028 0 l 1,0,-1
552 148.5 m 128,-1,47
 593 196 593 196 593 268 c 256,48,49
 593 340 593 340 553.5 391.5 c 128,-1,50
 514 443 514 443 443 443 c 256,51,52
 371 443 371 443 329.5 392.5 c 128,-1,53
 288 342 288 342 288 270 c 256,54,55
 288 198 288 198 328.5 149.5 c 128,-1,56
 369 101 369 101 441 101 c 256,57,46
 511 101 511 101 552 148.5 c 128,-1,47
EndSplineSet
Validated: 3073
EndChar

StartChar: p4
Encoding: 3373 3373 137
Width: 1076
VWidth: 2459
GlyphClass: 2
Flags: MW
LayerCount: 2
Fore
SplineSet
660 633 m 1,0,-1
 861 630 l 1,1,2
 937 636 937 636 937 689 c 256,3,4
 937 768 937 768 849.5 795.5 c 128,-1,5
 762 823 762 823 668 823 c 256,6,7
 478 823 478 823 373.5 704.5 c 128,-1,8
 269 586 269 586 269 389 c 256,9,10
 269 243 269 243 350 9 c 1,11,-1
 230 -33 l 1,12,13
 144 189 144 189 144 428 c 256,14,15
 144 667 144 667 286 805 c 128,-1,16
 428 943 428 943 679 943 c 260,17,18
 1080 943 1080 943 1080 690 c 256,19,20
 1080 613 1080 613 1016 555 c 128,-1,21
 952 497 952 497 874 497 c 1,22,-1
 690 506 l 1,23,24
 608 506 608 506 608 439 c 256,25,26
 608 371 608 371 692 371 c 1,27,28
 872 377 872 377 876 377 c 0,29,30
 970 377 970 377 1026 324.5 c 128,-1,31
 1082 272 1082 272 1082 185 c 256,32,33
 1082 41 1082 41 991.5 9 c 128,-1,34
 901 -23 901 -23 735 -23 c 256,35,36
 569 -23 569 -23 470 13 c 1,37,-1
 458 149 l 1,38,39
 561 97 561 97 758 97 c 256,40,41
 852 97 852 97 894.5 107 c 128,-1,42
 937 117 937 117 937 173 c 256,43,44
 937 250 937 250 812 250 c 2,45,-1
 657 250 l 2,46,47
 575 250 575 250 520 302.5 c 128,-1,48
 465 355 465 355 465 441 c 256,49,50
 465 528 465 528 521 580.5 c 128,-1,51
 577 633 577 633 660 633 c 1,0,-1
EndSplineSet
Validated: 3073
EndChar

StartChar: m1
Encoding: 3374 3374 138
Width: 1056
VWidth: 2457
GlyphClass: 2
Flags: MW
LayerCount: 2
Fore
SplineSet
1057 0 m 1,0,-1
 143 0 l 1,1,-1
 143 425 l 2,2,3
 143 943 143 943 605 943 c 256,4,5
 1057 943 1057 943 1057 435 c 2,6,-1
 1057 0 l 1,0,-1
929 113 m 1,7,-1
 929 435 l 2,8,9
 929 784 929 784 664 824 c 1,10,11
 767 774 767 774 767 605 c 256,12,13
 767 503 767 503 694.5 361 c 128,-1,14
 622 219 622 219 479 113 c 1,15,-1
 929 113 l 1,7,-1
624 615 m 256,16,17
 624 821 624 821 504 821 c 256,18,19
 425 821 425 821 346.5 718 c 128,-1,20
 268 615 268 615 268 435 c 2,21,-1
 268 123 l 1,22,23
 624 350 624 350 624 615 c 256,16,17
EndSplineSet
Validated: 1
EndChar

StartChar: y1
Encoding: 3375 3375 139
Width: 1719
VWidth: 2459
GlyphClass: 2
Flags: MW
LayerCount: 2
Fore
SplineSet
1722 513 m 256,0,1
 1722 289 1722 289 1576 133.5 c 128,-1,2
 1430 -22 1430 -22 1164 -22 c 256,3,4
 1024 -22 1024 -22 967 34 c 1,5,6
 899 -18 899 -18 748 -18 c 256,7,8
 478 -18 478 -18 312.5 137 c 128,-1,9
 147 292 147 292 147 537 c 256,10,11
 147 715 147 715 231.5 829 c 128,-1,12
 316 943 316 943 451 943 c 256,13,14
 618 943 618 943 695 811 c 1,15,16
 789 943 789 943 1000 943 c 256,17,18
 1147 943 1147 943 1246 826.5 c 128,-1,19
 1345 710 1345 710 1345 547 c 256,20,21
 1345 260 1345 260 1117 100 c 1,22,23
 1157 92 1157 92 1201 92 c 256,24,25
 1359 92 1359 92 1474 212 c 128,-1,26
 1589 332 1589 332 1589 530 c 256,27,28
 1589 728 1589 728 1444 858 c 1,29,-1
 1547 943 l 5,30,31
 1722 776 1722 776 1722 513 c 256,0,1
1140 298 m 128,-1,33
 1209 400 1209 400 1209 524 c 256,34,35
 1209 648 1209 648 1150 735 c 128,-1,36
 1091 822 1091 822 975 822 c 256,37,38
 859 822 859 822 803 734.5 c 128,-1,39
 747 647 747 647 747 525 c 256,40,41
 747 269 747 269 972 151 c 1,42,32
 1071 196 1071 196 1140 298 c 128,-1,33
829 102 m 1,43,44
 616 271 616 271 616 547 c 256,45,46
 616 823 616 823 451 823 c 256,47,48
 377 823 377 823 328.5 733.5 c 128,-1,49
 280 644 280 644 280 537 c 256,50,51
 280 346 280 346 409 219 c 128,-1,52
 538 92 538 92 743 92 c 256,53,54
 791 92 791 92 829 102 c 1,43,44
EndSplineSet
Validated: 3073
EndChar

StartChar: r3
Encoding: 3376 3376 140
Width: 1205
VWidth: 2458
GlyphClass: 2
Flags: MW
LayerCount: 2
Fore
SplineSet
690 943 m 260,0,1
 933 943 933 943 1069.5 790.5 c 128,-1,2
 1206 638 1206 638 1206 438 c 256,3,4
 1206 238 1206 238 1097.5 108.5 c 128,-1,5
 989 -21 989 -21 833 -21 c 256,6,7
 688 -21 688 -21 604.5 77 c 128,-1,8
 521 175 521 175 521 330 c 256,9,10
 521 516 521 516 626 612.5 c 128,-1,11
 731 709 731 709 886 709 c 0,12,13
 930 709 930 709 977 697 c 1,14,15
 878 822 878 822 698 822 c 256,16,17
 518 822 518 822 394.5 707.5 c 128,-1,18
 271 593 271 593 271 392 c 256,19,20
 271 191 271 191 437 64 c 1,21,-1
 351 -19 l 1,22,23
 146 141 146 141 146 396 c 256,24,25
 146 652 146 652 296.5 797.5 c 128,-1,26
 447 943 447 943 690 943 c 260,0,1
1034 554 m 1,27,28
 1001 578 1001 578 896 578 c 128,-1,29
 791 578 791 578 721.5 509.5 c 128,-1,30
 652 441 652 441 652 347 c 256,31,32
 652 252 652 252 698 179 c 128,-1,33
 744 106 744 106 842 106 c 256,34,35
 940 106 940 106 1001.5 179 c 128,-1,36
 1063 252 1063 252 1063 369 c 256,37,38
 1063 485 1063 485 1034 554 c 1,27,28
EndSplineSet
Validated: 3073
EndChar

StartChar: rh
Encoding: 3377 3377 141
Width: 1103
VWidth: 2459
GlyphClass: 2
Flags: MW
LayerCount: 2
Fore
SplineSet
1114 439 m 256,0,1
 1114 284 1114 284 1031.5 162 c 128,-1,2
 949 40 949 40 799 -21 c 1,3,-1
 745 76 l 1,4,5
 988 167 988 167 988 439 c 256,6,7
 988 599 988 599 883.5 711 c 128,-1,8
 779 823 779 823 624 823 c 256,9,10
 469 823 469 823 367 711 c 128,-1,11
 265 599 265 599 265 439 c 256,12,13
 265 165 265 165 511 76 c 1,14,-1
 455 -21 l 1,15,16
 305 38 305 38 225 161 c 128,-1,17
 145 284 145 284 145 439 c 256,18,19
 145 653 145 653 284.5 798 c 128,-1,20
 424 943 424 943 634 943 c 256,21,22
 844 943 844 943 979 799 c 128,-1,23
 1114 655 1114 655 1114 439 c 256,0,1
EndSplineSet
Validated: 3073
EndChar

StartChar: l3
Encoding: 3378 3378 142
Width: 1438
VWidth: 2457
GlyphClass: 2
Flags: MW
LayerCount: 2
Fore
SplineSet
1440 0 m 1,0,-1
 145 0 l 1,1,-1
 145 561 l 2,2,3
 145 723 145 723 271.5 833 c 128,-1,4
 398 943 398 943 580 943 c 260,5,6
 762 943 762 943 879 836.5 c 128,-1,7
 996 730 996 730 996 561 c 2,8,-1
 996 298 l 1,9,-1
 283 298 l 1,10,-1
 283 115 l 1,11,-1
 1306 115 l 1,12,-1
 1306 920 l 1,13,-1
 1440 920 l 1,14,-1
 1440 0 l 1,0,-1
858 413 m 1,15,-1
 858 523 l 2,16,17
 858 652 858 652 783 737.5 c 128,-1,18
 708 823 708 823 578 823 c 256,19,20
 448 823 448 823 367 742 c 128,-1,21
 286 661 286 661 286 523 c 2,22,-1
 286 413 l 1,23,-1
 858 413 l 1,15,-1
EndSplineSet
Validated: 3073
EndChar

StartChar: lh
Encoding: 3379 3379 143
Width: 1196
VWidth: 2486
GlyphClass: 2
Flags: MW
LayerCount: 2
Fore
SplineSet
1203 253 m 256,0,1
 1203 155 1203 155 1123.5 77.5 c 128,-1,2
 1044 0 1044 0 906 0 c 2,3,-1
 461 0 l 2,4,5
 400 0 400 0 350.5 -31.5 c 128,-1,6
 301 -63 301 -63 301 -119 c 256,7,8
 301 -175 301 -175 350 -206 c 128,-1,9
 399 -237 399 -237 461 -237 c 2,10,-1
 1176 -237 l 1,11,-1
 1176 -352 l 1,12,-1
 439 -352 l 2,13,14
 325 -352 325 -352 249 -292 c 128,-1,15
 173 -232 173 -232 173 -123 c 256,16,17
 173 112 173 112 444 112 c 2,18,-1
 876 112 l 2,19,20
 1063 112 1063 112 1063 254 c 256,21,22
 1063 395 1063 395 911 395 c 2,23,-1
 842 395 l 1,24,-1
 842 520 l 1,25,-1
 911 520 l 2,26,27
 1058 520 1058 520 1058 641 c 256,28,29
 1058 739 1058 739 925.5 781 c 128,-1,30
 793 823 793 823 656 823 c 256,31,32
 519 823 519 823 403 753.5 c 128,-1,33
 287 684 287 684 259 553 c 1,34,35
 333 646 333 646 439 646 c 256,36,37
 545 646 545 646 618.5 576 c 128,-1,38
 692 506 692 506 692 399 c 256,39,40
 692 292 692 292 616 228 c 128,-1,41
 540 164 540 164 414 164 c 256,42,43
 288 164 288 164 214.5 257.5 c 128,-1,44
 141 351 141 351 141 494 c 256,45,46
 141 716 141 716 298 829.5 c 128,-1,47
 455 943 455 943 668 943 c 256,48,49
 881 943 881 943 1039 873 c 128,-1,50
 1197 803 1197 803 1197 641 c 256,51,52
 1197 508 1197 508 1080 454 c 1,53,54
 1203 405 1203 405 1203 253 c 256,0,1
514.5 311.5 m 128,-1,56
 549 346 549 346 549 400 c 256,57,58
 549 454 549 454 513 489.5 c 128,-1,59
 477 525 477 525 422 525 c 256,60,61
 367 525 367 525 329 492 c 128,-1,62
 291 459 291 459 291 404 c 256,63,64
 291 349 291 349 329.5 313 c 128,-1,65
 368 277 368 277 424 277 c 256,66,55
 480 277 480 277 514.5 311.5 c 128,-1,56
EndSplineSet
Validated: 3073
EndChar

StartChar: zh
Encoding: 3380 3380 144
Width: 1076
VWidth: 2458
GlyphClass: 2
Flags: MW
LayerCount: 2
Fore
SplineSet
561.5 853.5 m 128,-1,1
 650 943 650 943 790 943 c 256,2,3
 930 943 930 943 1004 854.5 c 128,-1,4
 1078 766 1078 766 1078 646 c 256,5,6
 1078 526 1078 526 987 430 c 128,-1,7
 896 334 896 334 731 304 c 1,8,9
 758 233 758 233 758 178 c 256,10,11
 758 88 758 88 683 33 c 128,-1,12
 608 -22 608 -22 503 -22 c 256,13,14
 318 -22 318 -22 235 115 c 1,15,-1
 308 208 l 1,16,17
 388 93 388 93 491 93 c 256,18,19
 547 93 547 93 589.5 120 c 128,-1,20
 632 147 632 147 632 186 c 256,21,22
 632 225 632 225 608 279 c 1,23,24
 574 274 574 274 540 274 c 256,25,26
 370 274 370 274 258 380.5 c 128,-1,27
 146 487 146 487 146 640 c 256,28,29
 146 819 146 819 296 943 c 5,30,-1
 380 873 l 1,31,32
 263 804 263 804 263 660 c 256,33,34
 263 509 263 509 353.5 451.5 c 152,-1,35
 444 394 444 394 533 394 c 256,36,37
 545 394 545 394 557 395 c 1,38,39
 473 518 473 518 473 641 c 256,40,0
 473 764 473 764 561.5 853.5 c 128,-1,1
950 651 m 256,41,42
 950 724 950 724 908 773.5 c 128,-1,43
 866 823 866 823 788 823 c 256,44,45
 710 823 710 823 660.5 769 c 128,-1,46
 611 715 611 715 611 641 c 256,47,48
 611 513 611 513 684 415 c 1,49,50
 950 469 950 469 950 651 c 256,41,42
EndSplineSet
Validated: 3073
EndChar

StartChar: v1
Encoding: 3381 3381 145
Width: 1478
VWidth: 2458
GlyphClass: 2
Flags: MW
LayerCount: 2
Fore
SplineSet
1481 0 m 1,0,-1
 761 0 l 1,1,-1
 761 98 l 1,2,3
 979 218 979 218 979 455 c 256,4,5
 979 612 979 612 876 717.5 c 128,-1,6
 773 823 773 823 617 823 c 256,7,8
 461 823 461 823 361 715 c 128,-1,9
 261 607 261 607 261 447 c 256,10,11
 261 176 261 176 505 86 c 1,12,-1
 446 -17 l 1,13,14
 141 110 141 110 141 450 c 256,15,16
 141 661 141 661 282 802 c 128,-1,17
 423 943 423 943 631 943 c 260,18,19
 839 943 839 943 971 805.5 c 128,-1,20
 1103 668 1103 668 1103 443 c 256,21,22
 1103 218 1103 218 969 113 c 1,23,-1
 1345 113 l 1,24,-1
 1345 920 l 1,25,-1
 1481 920 l 1,26,-1
 1481 0 l 1,0,-1
EndSplineSet
Validated: 3073
EndChar

StartChar: z1
Encoding: 3382 3382 146
Width: 1699
VWidth: 2458
GlyphClass: 2
Flags: MW
LayerCount: 2
Fore
SplineSet
1701 384 m 256,0,1
 1701 219 1701 219 1601 99 c 128,-1,2
 1501 -21 1501 -21 1342 -21 c 256,3,4
 1183 -21 1183 -21 1100.5 86.5 c 128,-1,5
 1018 194 1018 194 1018 346 c 256,6,7
 1018 498 1018 498 1121 603.5 c 128,-1,8
 1224 709 1224 709 1369 709 c 256,9,10
 1426 709 1426 709 1475 697 c 1,11,12
 1368 823 1368 823 1182 823 c 256,13,14
 1072 823 1072 823 987.5 734 c 128,-1,15
 903 645 903 645 903 524 c 2,16,-1
 903 330 l 2,17,18
 903 177 903 177 810.5 78 c 128,-1,19
 718 -21 718 -21 538.5 -21 c 128,-1,20
 359 -21 359 -21 252 119 c 128,-1,21
 145 259 145 259 145 453 c 256,22,23
 145 795 145 795 420 943 c 1,24,-1
 490 842 l 1,25,26
 281 723 281 723 281 472 c 256,27,28
 281 339 281 339 354 221.5 c 128,-1,29
 427 104 427 104 553.5 104 c 128,-1,30
 680 104 680 104 720 184 c 128,-1,31
 760 264 760 264 760 394 c 2,32,-1
 760 556 l 2,33,34
 760 718 760 718 883 830.5 c 128,-1,35
 1006 943 1006 943 1166 943 c 256,36,37
 1421 943 1421 943 1561 786.5 c 128,-1,38
 1701 630 1701 630 1701 384 c 256,0,1
1342 104 m 256,39,40
 1440 104 1440 104 1502 180.5 c 128,-1,41
 1564 257 1564 257 1564 410 c 256,42,43
 1564 497 1564 497 1536 554 c 1,44,45
 1499 578 1499 578 1392 578 c 256,46,47
 1285 578 1285 578 1219 513 c 128,-1,48
 1153 448 1153 448 1153 357 c 256,49,50
 1153 104 1153 104 1342 104 c 256,39,40
EndSplineSet
Validated: 3073
EndChar

StartChar: sh
Encoding: 3383 3383 147
Width: 1850
VWidth: 2457
GlyphClass: 2
Flags: MW
LayerCount: 2
Fore
SplineSet
1850 0 m 1,0,-1
 621 0 l 1,1,-1
 621 73 l 1,2,3
 750 140 750 140 750 288 c 256,4,5
 750 383 750 383 679 449.5 c 128,-1,6
 608 516 608 516 508 516 c 256,7,8
 408 516 408 516 335 452.5 c 128,-1,9
 262 389 262 389 262 293 c 256,10,11
 262 152 262 152 386 93 c 1,12,-1
 324 -5 l 1,13,14
 145 91 145 91 145 293 c 256,15,16
 145 437 145 437 253 535 c 128,-1,17
 361 633 361 633 508 633 c 256,18,19
 656 633 656 633 765 533.5 c 128,-1,20
 874 434 874 434 874 305 c 256,21,22
 874 176 874 176 820 113 c 1,23,-1
 1245 113 l 1,24,-1
 1245 331 l 1,25,26
 1090 354 1090 354 978.5 438.5 c 128,-1,27
 867 523 867 523 867 653 c 128,-1,28
 867 783 867 783 943.5 863 c 128,-1,29
 1020 943 1020 943 1128 943 c 256,30,31
 1388 943 1388 943 1388 666 c 2,32,-1
 1388 455 l 1,33,34
 1705 475 1705 475 1774 920 c 1,35,-1
 1850 920 l 1,36,-1
 1850 0 l 1,0,-1
1725 113 m 1,37,-1
 1725 504 l 1,38,39
 1693 447 1693 447 1586 389 c 128,-1,40
 1479 331 1479 331 1388 331 c 1,41,-1
 1388 113 l 1,42,-1
 1725 113 l 1,37,-1
1245 692 m 2,43,44
 1245 750 1245 750 1203.5 787 c 128,-1,45
 1162 824 1162 824 1113 824 c 256,46,47
 1064 824 1064 824 1027 779 c 128,-1,48
 990 734 990 734 990 661.5 c 128,-1,49
 990 589 990 589 1062.5 528 c 128,-1,50
 1135 467 1135 467 1245 457 c 1,51,-1
 1245 692 l 2,43,44
EndSplineSet
Validated: 3073
EndChar

StartChar: s1
Encoding: 3384 3384 148
Width: 2168
VWidth: 2458
GlyphClass: 2
Flags: MW
LayerCount: 2
Fore
SplineSet
2170 466 m 256,0,1
 2170 257 2170 257 2077 117 c 128,-1,2
 1984 -23 1984 -23 1787 -23 c 256,3,4
 1590 -23 1590 -23 1491.5 101 c 128,-1,5
 1393 225 1393 225 1393 410 c 2,6,-1
 1393 562 l 2,7,8
 1393 823 1393 823 1145 823 c 256,9,10
 941 823 941 823 941 585 c 2,11,-1
 941 0 l 1,12,-1
 795 0 l 1,13,-1
 795 585 l 2,14,15
 795 696 795 696 726 759.5 c 128,-1,16
 657 823 657 823 553 823 c 256,17,18
 421 823 421 823 347 714 c 128,-1,19
 273 605 273 605 273 465 c 256,20,21
 273 190 273 190 490 78 c 1,22,-1
 415 -23 l 1,23,24
 143 127 143 127 143 462 c 256,25,26
 143 659 143 659 254.5 801 c 128,-1,27
 366 943 366 943 570 943 c 256,28,29
 775 943 775 943 868 814 c 1,30,31
 952 943 952 943 1142 943 c 256,32,33
 1327 943 1327 943 1436.5 833.5 c 128,-1,34
 1546 724 1546 724 1546 550 c 2,35,-1
 1546 378 l 2,36,37
 1546 262 1546 262 1605.5 182 c 128,-1,38
 1665 102 1665 102 1790 102 c 256,39,40
 1915 102 1915 102 1979 209 c 128,-1,41
 2043 316 2043 316 2043 468 c 256,42,43
 2043 741 2043 741 1804 849 c 5,44,-1
 1876 943 l 5,45,46
 2170 800 2170 800 2170 466 c 256,0,1
EndSplineSet
Validated: 3073
EndChar

StartChar: h1
Encoding: 3385 3385 149
Width: 1933
VWidth: 2458
GlyphClass: 2
Flags: MW
LayerCount: 2
Fore
SplineSet
1934 454 m 256,0,1
 1934 115 1934 115 1629 -12 c 1,2,-1
 1573 93 l 1,3,4
 1794 196 1794 196 1794 454 c 256,5,6
 1794 607 1794 607 1704.5 715 c 128,-1,7
 1615 823 1615 823 1471 823 c 256,8,9
 1327 823 1327 823 1231 723.5 c 128,-1,10
 1135 624 1135 624 1135 469 c 256,11,12
 1135 358 1135 358 1184 239 c 128,-1,13
 1233 120 1233 120 1327 84 c 1,14,-1
 1327 0 l 1,15,-1
 619 0 l 1,16,-1
 619 73 l 1,17,18
 740 127 740 127 740 285 c 256,19,20
 740 380 740 380 671 445.5 c 128,-1,21
 602 511 602 511 505 511 c 256,22,23
 408 511 408 511 337.5 449.5 c 128,-1,24
 267 388 267 388 267 292 c 256,25,26
 267 150 267 150 386 86 c 1,27,-1
 330 -15 l 1,28,29
 145 79 145 79 145 292 c 256,30,31
 145 434 145 434 253.5 536 c 128,-1,32
 362 638 362 638 514 638 c 256,33,34
 666 638 666 638 765.5 539 c 128,-1,35
 865 440 865 440 865 304 c 256,36,37
 865 168 865 168 816 112 c 1,38,-1
 1109 112 l 1,39,40
 998 250 998 250 998 464 c 256,41,42
 998 678 998 678 1135.5 810.5 c 128,-1,43
 1273 943 1273 943 1470 943 c 256,44,45
 1667 943 1667 943 1800.5 800.5 c 128,-1,46
 1934 658 1934 658 1934 454 c 256,0,1
EndSplineSet
Validated: 3073
EndChar

StartChar: uni0D3D
Encoding: 3389 3389 150
Width: 759
VWidth: 2486
GlyphClass: 2
Flags: MW
LayerCount: 2
Fore
SplineSet
1010 1093 m 1,0,-1
 890 1042 l 1,1,2
 876 1154 876 1154 765 1154 c 256,3,4
 646 1154 646 1154 625 1014 c 1,5,-1
 533 467 l 1,6,-1
 693 476 l 1,7,-1
 693 346 l 1,8,-1
 512 336 l 1,9,-1
 401 -384 l 1,10,11
 364 -635 364 -635 137 -635 c 256,12,13
 -61 -635 -61 -635 -116 -445 c 1,14,-1
 5 -394 l 1,15,16
 17 -506 17 -506 126 -506 c 256,17,18
 248 -506 248 -506 271 -367 c 258,19,-1
 379 329 l 1,20,-1
 249 322 l 1,21,-1
 249 451 l 1,22,-1
 401 458 l 1,23,-1
 494 1032 l 1,24,25
 533 1282 533 1282 757 1282 c 256,26,27
 956 1282 956 1282 1010 1093 c 1,0,-1
EndSplineSet
EndChar

StartChar: uni0D3E
Encoding: 3390 3390 151
Width: 848
VWidth: 2459
GlyphClass: 2
Flags: MW
LayerCount: 2
Fore
SplineSet
145 589 m 1,0,1
 148 740 148 740 237 841.5 c 128,-1,2
 326 943 326 943 498 943 c 256,3,4
 671 943 671 943 760 809.5 c 128,-1,5
 849 676 849 676 849 467 c 256,6,7
 849 258 849 258 759 118.5 c 128,-1,8
 669 -21 669 -21 480 -21 c 256,9,10
 325 -21 325 -21 236.5 70.5 c 128,-1,11
 148 162 148 162 148 347 c 1,12,-1
 281 347 l 1,13,14
 281 251 281 251 336 176.5 c 128,-1,15
 391 102 391 102 480 102 c 256,16,17
 711 102 711 102 711 462 c 256,18,19
 711 823 711 823 492 823 c 256,20,21
 400 823 400 823 339.5 755.5 c 128,-1,22
 279 688 279 688 279 589 c 1,23,-1
 145 589 l 1,0,1
EndSplineSet
Validated: 3073
EndChar

StartChar: uni0D3F
Encoding: 3391 3391 152
Width: 323
VWidth: 2420
GlyphClass: 2
Flags: MW
LayerCount: 2
Fore
SplineSet
325 0 m 1,0,-1
 195 0 l 1,1,-1
 195 1106 l 2,2,3
 195 1252 195 1252 58 1252 c 256,4,5
 1 1252 1 1252 -36.5 1207 c 128,-1,6
 -74 1162 -74 1162 -74 1100.5 c 128,-1,7
 -74 1039 -74 1039 -56 1005 c 1,8,-1
 -191 1005 l 1,9,10
 -201 1062 -201 1062 -201 1108 c 0,11,12
 -201 1224 -201 1224 -130.5 1299 c 128,-1,13
 -60 1374 -60 1374 58 1374 c 256,14,15
 176 1374 176 1374 250.5 1307 c 128,-1,16
 325 1240 325 1240 325 1123 c 2,17,-1
 325 0 l 1,0,-1
EndSplineSet
Validated: 3073
EndChar

StartChar: uni0D40
Encoding: 3392 3392 153
Width: 324
VWidth: 2421
GlyphClass: 2
Flags: MW
LayerCount: 2
Fore
SplineSet
329 0 m 1,0,-1
 198 0 l 1,1,-1
 198 1076 l 2,2,3
 198 1149 198 1149 161.5 1199 c 128,-1,4
 125 1249 125 1249 54 1249 c 2,5,-1
 43 1249 l 1,6,7
 103 1195 103 1195 103 1127 c 256,8,9
 103 1059 103 1059 51.5 1006.5 c 128,-1,10
 0 954 0 954 -74 954 c 256,11,12
 -148 954 -148 954 -202 1009 c 128,-1,13
 -256 1064 -256 1064 -256 1140 c 256,14,15
 -256 1252 -256 1252 -170 1311.5 c 128,-1,16
 -84 1371 -84 1371 33 1371 c 256,17,18
 329 1371 329 1371 329 1086 c 2,19,-1
 329 0 l 1,0,-1
-72 1064 m 256,20,21
 -9 1064 -9 1064 -9 1139 c 256,22,23
 -9 1214 -9 1214 -72 1214 c 256,24,25
 -136 1214 -136 1214 -136 1139 c 256,26,27
 -136 1064 -136 1064 -72 1064 c 256,20,21
EndSplineSet
Validated: 3073
EndChar

StartChar: u1
Encoding: 3393 3393 154
Width: 639
VWidth: 2499
GlyphClass: 2
Flags: MW
LayerCount: 2
Fore
SplineSet
445 -3 m 1,0,1
 532 -20 532 -20 580 -89.5 c 128,-1,2
 628 -159 628 -159 628 -261 c 256,3,4
 628 -363 628 -363 557.5 -433 c 128,-1,5
 487 -503 487 -503 378 -503 c 256,6,7
 269 -503 269 -503 195.5 -435.5 c 128,-1,8
 122 -368 122 -368 122 -256 c 256,9,10
 122 -144 122 -144 186 -71.5 c 128,-1,11
 250 1 250 1 326 1 c 1,12,13
 397 229 397 229 397 443 c 256,14,15
 397 824 397 824 152 825 c 1,16,-1
 169 943 l 5,17,18
 339 919 339 919 427 807 c 128,-1,19
 515 695 515 695 515 500 c 256,20,21
 515 193 515 193 445 -3 c 1,0,1
513 -248 m 256,22,23
 513 -189 513 -189 473.5 -143 c 128,-1,24
 434 -97 434 -97 370 -97 c 256,25,26
 307 -97 307 -97 266 -142.5 c 128,-1,27
 225 -188 225 -188 225 -248 c 256,28,29
 225 -397 225 -397 371 -397 c 256,30,31
 513 -397 513 -397 513 -248 c 256,22,23
EndSplineSet
Validated: 3073
EndChar

StartChar: u2
Encoding: 3394 3394 155
Width: 639
VWidth: 2499
GlyphClass: 2
Flags: MW
LayerCount: 2
Fore
SplineSet
445 -3 m 1,0,1
 530 -20 530 -20 579 -89.5 c 128,-1,2
 628 -159 628 -159 628 -261 c 256,3,4
 628 -363 628 -363 555.5 -433 c 128,-1,5
 483 -503 483 -503 376 -503 c 256,6,7
 269 -503 269 -503 195.5 -435.5 c 128,-1,8
 122 -368 122 -368 122 -256 c 256,9,10
 122 -144 122 -144 187.5 -71.5 c 128,-1,11
 253 1 253 1 326 1 c 1,12,13
 389 188 389 188 389 463 c 256,14,15
 389 817 389 817 147 824 c 1,16,-1
 161 943 l 1,17,18
 337 928 337 928 424 815 c 128,-1,19
 511 702 511 702 511 506 c 256,20,21
 511 191 511 191 445 -3 c 1,0,1
501 -186 m 1,22,23
 459 -95 459 -95 364 -95 c 256,24,25
 269 -95 269 -95 236 -193 c 1,26,27
 276 -235 276 -235 366 -235 c 256,28,29
 454 -235 454 -235 501 -186 c 1,22,23
515 -240 m 1,30,31
 445 -293 445 -293 372 -293 c 256,32,33
 298 -293 298 -293 223 -255 c 1,34,35
 223 -309 223 -309 262.5 -353 c 128,-1,36
 302 -397 302 -397 370 -397 c 256,37,38
 438 -397 438 -397 476.5 -352.5 c 128,-1,39
 515 -308 515 -308 515 -240 c 1,30,31
EndSplineSet
Validated: 3073
EndChar

StartChar: r1
Encoding: 3395 3395 156
Width: 777
VWidth: 2502
GlyphClass: 2
Flags: MW
LayerCount: 2
Fore
SplineSet
769 -180 m 256,0,1
 769 -354 769 -354 646 -437.5 c 128,-1,2
 523 -521 523 -521 379 -521 c 256,3,4
 235 -521 235 -521 158 -441.5 c 128,-1,5
 81 -362 81 -362 81 -249 c 256,6,7
 81 -136 81 -136 150.5 -67 c 128,-1,8
 220 2 220 2 326 2 c 256,9,10
 432 2 432 2 496.5 -73 c 128,-1,11
 561 -148 561 -148 561 -255 c 256,12,13
 561 -362 561 -362 481 -413 c 1,14,15
 659 -362 659 -362 659 -183 c 256,16,17
 659 -71 659 -71 465.5 132 c 128,-1,18
 272 335 272 335 272 757 c 256,19,20
 272 894 272 894 280 920 c 1,21,-1
 408 920 l 1,22,23
 406 800 406 800 406 751 c 256,24,25
 406 532 406 532 442.5 414.5 c 128,-1,26
 479 297 479 297 587 170.5 c 128,-1,27
 695 44 695 44 732 -25 c 128,-1,28
 769 -94 769 -94 769 -180 c 256,0,1
445 -251 m 256,29,30
 445 -185 445 -185 410.5 -139.5 c 128,-1,31
 376 -94 376 -94 317 -94 c 260,32,33
 192 -94 192 -94 192 -251 c 256,34,35
 192 -315 192 -315 230 -361.5 c 128,-1,36
 268 -408 268 -408 319 -408 c 256,37,38
 445 -408 445 -408 445 -251 c 256,29,30
EndSplineSet
Validated: 3073
EndChar

StartChar: uni0D46
Encoding: 3398 3398 157
Width: 1184
VWidth: 2458
GlyphClass: 2
Flags: MW
LayerCount: 2
Fore
SplineSet
1202 429 m 256,0,1
 1202 124 1202 124 919 -18 c 1,2,-1
 848 81 l 1,3,4
 1062 189 1062 189 1062 429 c 256,5,6
 1062 597 1062 597 956 710 c 128,-1,7
 850 823 850 823 678 823 c 256,8,9
 506 823 506 823 394.5 713.5 c 128,-1,10
 283 604 283 604 272 440 c 1,11,12
 291 499 291 499 361.5 533 c 128,-1,13
 432 567 432 567 504 567 c 256,14,15
 631 567 631 567 717.5 480.5 c 128,-1,16
 804 394 804 394 804 267 c 256,17,18
 804 140 804 140 715 59.5 c 128,-1,19
 626 -21 626 -21 487 -21 c 256,20,21
 310 -21 310 -21 227.5 98 c 128,-1,22
 145 217 145 217 145 396 c 256,23,24
 145 628 145 628 289.5 785.5 c 132,-1,25
 434 943 434 943 674 943 c 256,26,27
 914 943 914 943 1058 797 c 128,-1,28
 1202 651 1202 651 1202 429 c 256,0,1
602 148.5 m 128,-1,30
 649 198 649 198 649 268 c 256,31,32
 649 338 649 338 602 394 c 128,-1,33
 555 450 555 450 482 450 c 256,34,35
 408 450 408 450 357.5 395 c 128,-1,36
 307 340 307 340 307 270 c 256,37,38
 307 200 307 200 357.5 149.5 c 128,-1,39
 408 99 408 99 482 99 c 256,40,29
 555 99 555 99 602 148.5 c 128,-1,30
EndSplineSet
Validated: 3073
EndChar

StartChar: uni0D47
Encoding: 3399 3399 158
Width: 871
VWidth: 2459
GlyphClass: 2
Flags: MW
LayerCount: 2
Fore
SplineSet
901 223 m 256,0,1
 901 103 901 103 809 40.5 c 128,-1,2
 717 -22 717 -22 596 -22 c 256,3,4
 376 -22 376 -22 259 112 c 128,-1,5
 142 246 142 246 142 458 c 256,6,7
 142 670 142 670 259 806.5 c 128,-1,8
 376 943 376 943 592 943 c 260,9,10
 718 943 718 943 809.5 878 c 128,-1,11
 901 813 901 813 901 693 c 256,12,13
 901 607 901 607 844 555.5 c 128,-1,14
 787 504 787 504 706 504 c 256,15,16
 587 504 587 504 543.5 567.5 c 152,-1,17
 500 631 500 631 500 695 c 256,18,19
 500 758 500 758 550 821 c 1,20,21
 420 819 420 819 352 707 c 128,-1,22
 284 595 284 595 284 454 c 256,23,24
 284 313 284 313 355 207 c 128,-1,25
 426 101 426 101 554 101 c 1,26,27
 498 162 498 162 498 237 c 256,28,29
 498 312 498 312 557 362.5 c 128,-1,30
 616 413 616 413 702 413 c 256,31,32
 787 413 787 413 844 361 c 128,-1,33
 901 309 901 309 901 223 c 256,0,1
706 624 m 0,34,35
 775 624 775 624 775 698 c 0,36,37
 775 768 775 768 702 769 c 256,38,39
 628 768 628 768 628 696 c 256,40,41
 628 624 628 624 706 624 c 0,34,35
775 223 m 256,42,43
 774 300 774 300 702 300 c 256,44,45
 630 300 630 300 630 223 c 256,46,47
 630 147 630 147 702 147 c 256,48,49
 774 147 774 147 775 223 c 256,42,43
EndSplineSet
Validated: 3073
EndChar

StartChar: uni0D48
Encoding: 3400 3400 159
Width: 2386
VWidth: 2458
GlyphClass: 2
Flags: MW
LayerCount: 2
Fore
SplineSet
2399 429 m 256,0,1
 2399 124 2399 124 2116 -18 c 1,2,-1
 2045 81 l 1,3,4
 2259 189 2259 189 2259 429 c 256,5,6
 2259 597 2259 597 2153 710 c 128,-1,7
 2047 823 2047 823 1875 823 c 256,8,9
 1703 823 1703 823 1591.5 713.5 c 128,-1,10
 1480 604 1480 604 1469 440 c 1,11,12
 1488 499 1488 499 1558.5 533 c 128,-1,13
 1629 567 1629 567 1701 567 c 256,14,15
 1828 567 1828 567 1914.5 480.5 c 128,-1,16
 2001 394 2001 394 2001 267 c 256,17,18
 2001 140 2001 140 1912 59.5 c 128,-1,19
 1823 -21 1823 -21 1684 -21 c 256,20,21
 1507 -21 1507 -21 1424.5 98 c 128,-1,22
 1342 217 1342 217 1342 396 c 256,23,24
 1342 628 1342 628 1486 785.5 c 128,-1,25
 1630 943 1630 943 1870 943 c 260,26,27
 2110 943 2110 943 2254.5 797 c 128,-1,28
 2399 651 2399 651 2399 429 c 256,0,1
1799 148.5 m 128,-1,30
 1846 198 1846 198 1846 268 c 256,31,32
 1846 338 1846 338 1799 394 c 128,-1,33
 1752 450 1752 450 1679 450 c 256,34,35
 1605 450 1605 450 1554.5 395 c 128,-1,36
 1504 340 1504 340 1504 270 c 256,37,38
 1504 200 1504 200 1554.5 149.5 c 128,-1,39
 1605 99 1605 99 1679 99 c 256,40,29
 1752 99 1752 99 1799 148.5 c 128,-1,30
1202 429 m 256,41,42
 1202 124 1202 124 919 -18 c 1,43,-1
 848 81 l 1,44,45
 1062 189 1062 189 1062 429 c 256,46,47
 1062 597 1062 597 956 710 c 128,-1,48
 850 823 850 823 678 823 c 256,49,50
 506 823 506 823 394.5 713.5 c 128,-1,51
 283 604 283 604 272 440 c 1,52,53
 291 499 291 499 361.5 533 c 128,-1,54
 432 567 432 567 504 567 c 256,55,56
 631 567 631 567 717.5 480.5 c 128,-1,57
 804 394 804 394 804 267 c 256,58,59
 804 140 804 140 715 59.5 c 128,-1,60
 626 -21 626 -21 487 -21 c 256,61,62
 310 -21 310 -21 227.5 98 c 128,-1,63
 145 217 145 217 145 396 c 256,64,65
 145 628 145 628 289.5 785.5 c 128,-1,66
 434 943 434 943 674 943 c 256,67,68
 914 943 914 943 1058 797 c 128,-1,69
 1202 651 1202 651 1202 429 c 256,41,42
602 148.5 m 128,-1,71
 649 198 649 198 649 268 c 256,72,73
 649 338 649 338 602 394 c 128,-1,74
 555 450 555 450 482 450 c 256,75,76
 408 450 408 450 357.5 395 c 128,-1,77
 307 340 307 340 307 270 c 256,78,79
 307 200 307 200 357.5 149.5 c 128,-1,80
 408 99 408 99 482 99 c 256,81,70
 555 99 555 99 602 148.5 c 128,-1,71
EndSplineSet
Validated: 3073
EndChar

StartChar: uni0D4A
Encoding: 3402 3402 160
Width: 2758
VWidth: 2428
GlyphClass: 2
Flags: MW
LayerCount: 2
Fore
SplineSet
2760 199 m 2,0,1
 2760 53 2760 53 2654 -53.5 c 128,-1,2
 2548 -160 2548 -160 2398 -160 c 2,3,-1
 546 -160 l 2,4,5
 396 -160 396 -160 290 -53.5 c 128,-1,6
 184 53 184 53 184 199 c 2,7,-1
 184 1024 l 2,8,9
 184 1170 184 1170 290 1276 c 128,-1,10
 396 1382 396 1382 546 1382 c 2,11,-1
 2398 1382 l 2,12,13
 2548 1382 2548 1382 2654 1276 c 128,-1,14
 2760 1170 2760 1170 2760 1024 c 2,15,-1
 2760 199 l 2,0,1
2654 311 m 2,16,-1
 2654 917 l 2,17,18
 2654 1067 2654 1067 2548.5 1173 c 128,-1,19
 2443 1279 2443 1279 2295 1279 c 2,20,-1
 649 1279 l 2,21,22
 501 1279 501 1279 395.5 1173 c 128,-1,23
 290 1067 290 1067 290 917 c 2,24,-1
 290 311 l 2,25,26
 290 163 290 163 395.5 57.5 c 128,-1,27
 501 -48 501 -48 649 -48 c 2,28,-1
 2295 -48 l 2,29,30
 2443 -48 2443 -48 2548.5 57.5 c 128,-1,31
 2654 163 2654 163 2654 311 c 2,16,-1
2497 600 m 0,32,33
 2497 133 2497 133 2174 133 c 0,34,35
 1870 133 1870 133 1870 440 c 1,36,37
 1907 440 1907 440 1944 440 c 1,38,39
 1964 340 1964 340 1996 298.5 c 128,-1,40
 2028 257 2028 257 2119 257 c 0,41,42
 2246 257 2246 257 2293 374 c 0,43,44
 2323 450 2323 450 2323 602 c 0,45,46
 2323 944 2323 944 2143 944 c 0,47,48
 2030 944 2030 944 1988 874 c 1,49,50
 1958 829 1958 829 1944 703 c 1,51,-1
 1870 703 l 1,52,-1
 1870 708 l 2,53,54
 1870 876 1870 876 1931.5 958 c 128,-1,55
 1993 1040 1993 1040 2152 1040 c 0,56,57
 2497 1040 2497 1040 2497 600 c 0,32,33
1779 506 m 1,58,-1
 1568 506 l 1,59,-1
 1568 607 l 1,60,-1
 1779 607 l 1,61,-1
 1779 506 l 1,58,-1
1484 583 m 0,62,63
 1484 332 1484 332 1200 121 c 1,64,-1
 1086 166 l 1,65,66
 1296 320 1296 320 1296 551 c 0,67,68
 1296 708 1296 708 1182.5 820 c 128,-1,69
 1069 932 1069 932 905.5 932 c 128,-1,70
 742 932 742 932 631 819 c 128,-1,71
 520 706 520 706 499 536 c 1,72,-1
 506 529 l 1,73,74
 609 672 609 672 747 672 c 0,75,76
 858 672 858 672 937.5 585.5 c 128,-1,77
 1017 499 1017 499 1017 385 c 128,-1,78
 1017 271 1017 271 943.5 202 c 128,-1,79
 870 133 870 133 752 133 c 0,80,81
 600 133 600 133 508 241 c 1,82,83
 428 344 428 344 428 502 c 0,84,85
 428 724 428 724 577.5 882 c 128,-1,86
 727 1040 727 1040 941 1040 c 128,-1,87
 1155 1040 1155 1040 1312 917 c 1,88,89
 1484 785 1484 785 1484 583 c 0,62,63
818 293 m 128,-1,91
 867 340 867 340 867 407.5 c 128,-1,92
 867 475 867 475 822.5 525.5 c 128,-1,93
 778 576 778 576 708 576 c 256,94,95
 637 576 637 576 587.5 531.5 c 128,-1,96
 538 487 538 487 538 418 c 128,-1,97
 538 349 538 349 588.5 297.5 c 128,-1,98
 639 246 639 246 704 246 c 128,-1,90
 769 246 769 246 818 293 c 128,-1,91
EndSplineSet
Validated: 3073
EndChar

StartChar: uni0D4B
Encoding: 3403 3403 161
Width: 2537
VWidth: 2428
GlyphClass: 2
Flags: MW
LayerCount: 2
Fore
SplineSet
2540 199 m 2,0,1
 2540 53 2540 53 2434.5 -53.5 c 128,-1,2
 2329 -160 2329 -160 2182 -160 c 2,3,-1
 545 -160 l 2,4,5
 395 -160 395 -160 289.5 -53.5 c 128,-1,6
 184 53 184 53 184 199 c 2,7,-1
 184 1024 l 2,8,9
 184 1170 184 1170 289.5 1276 c 128,-1,10
 395 1382 395 1382 545 1382 c 2,11,-1
 2182 1382 l 2,12,13
 2329 1382 2329 1382 2434.5 1276 c 128,-1,14
 2540 1170 2540 1170 2540 1024 c 2,15,-1
 2540 199 l 2,0,1
2454 281 m 2,16,-1
 2454 917 l 2,17,18
 2454 1067 2454 1067 2348.5 1173 c 128,-1,19
 2243 1279 2243 1279 2093 1279 c 2,20,-1
 655 1279 l 2,21,22
 508 1279 508 1279 402 1173 c 128,-1,23
 296 1067 296 1067 296 917 c 2,24,-1
 296 281 l 2,25,26
 296 133 296 133 402 27.5 c 128,-1,27
 508 -78 508 -78 655 -78 c 2,28,-1
 2093 -78 l 2,29,30
 2243 -78 2243 -78 2348.5 27.5 c 128,-1,31
 2454 133 2454 133 2454 281 c 2,16,-1
2252 598 m 0,32,33
 2252 131 2252 131 1926 131 c 0,34,35
 1626 131 1626 131 1626 433 c 2,36,-1
 1626 438 l 1,37,-1
 1697 438 l 1,38,39
 1717 337 1717 337 1744 302 c 1,40,41
 1783 257 1783 257 1874 257 c 0,42,43
 2078 257 2078 257 2078 599.5 c 128,-1,44
 2078 942 2078 942 1896 942 c 0,45,46
 1786 942 1786 942 1741 874 c 1,47,48
 1717 829 1717 829 1697 701 c 1,49,-1
 1626 701 l 1,50,-1
 1626 708 l 2,51,52
 1626 874 1626 874 1682 949 c 1,53,54
 1746 1040 1746 1040 1909 1040 c 0,55,56
 2252 1040 2252 1040 2252 598 c 0,32,33
1535 506 m 1,57,-1
 1321 506 l 1,58,-1
 1321 605 l 1,59,-1
 1535 605 l 1,60,-1
 1535 506 l 1,57,-1
1232 374 m 0,61,62
 1232 254 1232 254 1105 187 c 1,63,64
 1004 138 1004 138 866 138 c 0,65,66
 658 138 658 138 546 262 c 128,-1,67
 434 386 434 386 434 595 c 128,-1,68
 434 804 434 804 548 923.5 c 128,-1,69
 662 1043 662 1043 866 1043 c 0,70,71
 1002 1043 1002 1043 1117 986.5 c 128,-1,72
 1232 930 1232 930 1232 809 c 0,73,74
 1232 632 1232 632 1063 632 c 0,75,76
 979 632 979 632 920.5 675.5 c 128,-1,77
 862 719 862 719 862 814.5 c 128,-1,78
 862 910 862 910 930 961 c 1,79,80
 899 977 899 977 857 977 c 0,81,82
 599 977 599 977 599 591 c 128,-1,83
 599 205 599 205 857 205 c 0,84,85
 899 205 899 205 930 222 c 1,86,87
 862 262 862 262 862 374 c 0,88,89
 862 450 862 450 922 494.5 c 128,-1,90
 982 539 982 539 1059 539 c 128,-1,91
 1136 539 1136 539 1184 493.5 c 128,-1,92
 1232 448 1232 448 1232 374 c 0,61,62
1063 698 m 0,93,94
 1162 698 1162 698 1162 811.5 c 128,-1,95
 1162 925 1162 925 1049 947 c 1,96,97
 979 914 979 914 979 806 c 128,-1,98
 979 698 979 698 1063 698 c 0,93,94
1162 379 m 0,99,100
 1162 419 1162 419 1132.5 446 c 128,-1,101
 1103 473 1103 473 1063 473 c 0,102,103
 979 473 979 473 979 372 c 128,-1,104
 979 271 979 271 1049 234 c 1,105,106
 1162 259 1162 259 1162 379 c 0,99,100
EndSplineSet
Validated: 3073
EndChar

StartChar: uni0D4C
Encoding: 3404 3404 162
Width: 1225
VWidth: 2458
GlyphClass: 2
Flags: MW
LayerCount: 2
Fore
SplineSet
1129 819.5 m 128,-1,1
 1230 696 1230 696 1230 491 c 256,2,3
 1230 286 1230 286 1124.5 132.5 c 128,-1,4
 1019 -21 1019 -21 773 -21 c 256,5,6
 602 -21 602 -21 510.5 68 c 128,-1,7
 419 157 419 157 419 261 c 1,8,-1
 552 261 l 1,9,10
 586 101 586 101 766 101 c 256,11,12
 1085 101 1085 101 1085 474 c 256,13,14
 1085 823 1085 823 852 823 c 256,15,16
 785 823 785 823 736 770 c 128,-1,17
 687 717 687 717 687 644 c 2,18,-1
 687 479 l 1,19,-1
 539 476 l 1,20,-1
 539 626 l 2,21,22
 539 823 539 823 387 823 c 256,23,24
 297 823 297 823 257.5 760.5 c 128,-1,25
 218 698 218 698 218 563 c 256,26,27
 218 541 218 541 222 457 c 1,28,-1
 98 457 l 1,29,30
 86 553 86 553 86 579 c 256,31,32
 86 943 86 943 412 943 c 256,33,34
 550 943 550 943 616 830 c 1,35,36
 662 894 662 894 713 918.5 c 128,-1,37
 764 943 764 943 868 943 c 260,38,0
 1028 943 1028 943 1129 819.5 c 128,-1,1
EndSplineSet
Validated: 3073
EndChar

StartChar: xx
Encoding: 3405 3405 163
Width: 12
VWidth: 2352
GlyphClass: 2
Flags: MW
LayerCount: 2
Fore
SplineSet
311 1260 m 256,0,1
 311 1142 311 1142 232 1059.5 c 128,-1,2
 153 977 153 977 46 977 c 256,3,4
 -67 977 -67 977 -146 1059.5 c 128,-1,5
 -225 1142 -225 1142 -225 1260 c 256,6,7
 -225 1281 -225 1281 -222 1295 c 1,8,-1
 -100 1295 l 1,9,10
 -102 1284 -102 1284 -102 1260 c 256,11,12
 -102 1191 -102 1191 -59 1145.5 c 128,-1,13
 -16 1100 -16 1100 43 1100 c 256,14,15
 102 1100 102 1100 145 1145.5 c 128,-1,16
 188 1191 188 1191 188 1260 c 256,17,18
 188 1277 188 1277 186 1295 c 1,19,-1
 308 1295 l 1,20,21
 311 1281 311 1281 311 1260 c 256,0,1
EndSplineSet
Validated: 3073
EndChar

StartChar: uni0D57
Encoding: 3415 3415 164
Width: 1225
VWidth: 2458
GlyphClass: 2
Flags: MW
LayerCount: 2
Fore
SplineSet
1128.5 819.5 m 132,-1,1
 1230 696 1230 696 1230 491 c 260,2,3
 1230 286 1230 286 1124.5 132.5 c 132,-1,4
 1019 -21 1019 -21 773 -21 c 260,5,6
 602 -21 602 -21 510.5 68 c 132,-1,7
 419 157 419 157 419 261 c 5,8,-1
 552 261 l 5,9,10
 586 101 586 101 766 101 c 260,11,12
 1085 101 1085 101 1085 474 c 260,13,14
 1085 823 1085 823 852 823 c 260,15,16
 785 823 785 823 736 770 c 132,-1,17
 687 717 687 717 687 644 c 6,18,-1
 687 479 l 5,19,-1
 539 476 l 5,20,-1
 539 626 l 6,21,22
 539 823 539 823 387 823 c 260,23,24
 297 823 297 823 257.5 760.5 c 132,-1,25
 218 698 218 698 218 563 c 260,26,27
 218 541 218 541 222 457 c 5,28,-1
 98 457 l 5,29,30
 86 553 86 553 86 579 c 260,31,32
 86 943 86 943 408 943 c 260,33,34
 550 943 550 943 616 830 c 5,35,36
 662 894 662 894 713 918.5 c 132,-1,37
 764 943 764 943 867 943 c 260,38,0
 1027 943 1027 943 1128.5 819.5 c 132,-1,1
EndSplineSet
Validated: 3073
EndChar

StartChar: uni0d60
Encoding: 3424 3424 165
Width: 1454
VWidth: 2489
GlyphClass: 2
Flags: MW
LayerCount: 2
Fore
SplineSet
948 867 m 0,0,1
 1028 943 1028 943 1159 943 c 256,2,3
 1290 943 1290 943 1374.5 833.5 c 128,-1,4
 1459 724 1459 724 1459 578 c 256,5,6
 1459 432 1459 432 1386 317 c 128,-1,7
 1313 202 1313 202 1192 187 c 1,8,-1
 1192 174 l 1,9,10
 1426 133 1426 133 1426 -73 c 256,11,12
 1426 -246 1426 -246 1235.5 -318.5 c 128,-1,13
 1045 -391 1045 -391 797 -391 c 256,14,15
 553 -391 553 -391 369 -320 c 128,-1,16
 185 -249 185 -249 185 -73 c 256,17,18
 185 133 185 133 413 174 c 1,19,-1
 413 182 l 1,20,21
 277 209 277 209 210 319.5 c 128,-1,22
 143 430 143 430 143 580 c 256,23,24
 143 730 143 730 224 836.5 c 128,-1,25
 305 943 305 943 460 943 c 256,26,27
 575 943 575 943 651 865.5 c 128,-1,28
 727 788 727 788 727 670 c 256,29,30
 727 552 727 552 655 475 c 128,-1,31
 583 398 583 398 472 398 c 256,32,33
 406 398 406 398 347.5 437 c 128,-1,34
 289 476 289 476 268 541 c 1,35,36
 268 234 268 234 800 234 c 256,37,38
 1332 234 1332 234 1333 541 c 1,39,40
 1316 474 1316 474 1255.5 436 c 128,-1,41
 1195 398 1195 398 1126 398 c 256,42,43
 1018 398 1018 398 942.5 478 c 128,-1,44
 867 558 867 558 867 674 c 256,45,46
 868 790 868 790 948 867 c 0,0,1
1288 673 m 256,47,48
 1288 734 1288 734 1249 778.5 c 128,-1,49
 1210 823 1210 823 1142 823 c 256,50,51
 1074 823 1074 823 1033.5 778.5 c 128,-1,52
 993 734 993 734 993 674 c 256,53,54
 993 614 993 614 1035.5 567 c 128,-1,55
 1078 520 1078 520 1144 520 c 256,56,57
 1210 520 1210 520 1249 566 c 128,-1,58
 1288 612 1288 612 1288 673 c 256,47,48
601 673 m 256,59,60
 601 734 601 734 562.5 778.5 c 128,-1,61
 524 823 524 823 456 823 c 256,62,63
 388 823 388 823 346.5 778.5 c 128,-1,64
 305 734 305 734 305 674 c 256,65,66
 305 614 305 614 347 567 c 128,-1,67
 389 520 389 520 455 520 c 256,68,69
 521 520 521 520 561 566 c 128,-1,70
 601 612 601 612 601 673 c 256,59,60
1283 -73 m 256,71,72
 1283 103 1283 103 804 103 c 260,73,74
 325 103 325 103 325 -73 c 260,75,76
 325 -258 325 -258 797 -258 c 256,77,78
 1283 -258 1283 -258 1283 -73 c 256,71,72
1061.5 9 m 128,-1,80
 1119 -24 1119 -24 1119 -72 c 256,81,82
 1119 -120 1119 -120 1073.5 -159.5 c 128,-1,83
 1028 -199 1028 -199 967 -199 c 1,84,-1
 927 -122 l 1,85,86
 957 -122 957 -122 985 -105.5 c 128,-1,87
 1013 -89 1013 -89 1013 -76 c 256,88,89
 1013 -32 1013 -32 913 -32 c 256,90,91
 863 -32 863 -32 863 -52 c 2,92,-1
 863 -194 l 1,93,-1
 755 -194 l 1,94,-1
 755 -52 l 2,95,96
 755 -32 755 -32 697 -32 c 256,97,98
 601 -32 601 -32 601 -76 c 256,99,100
 601 -91 601 -91 626.5 -109 c 128,-1,101
 652 -127 652 -127 686 -133 c 1,102,-1
 643 -202 l 1,103,104
 493 -167 493 -167 493 -79 c 256,105,106
 493 -24 493 -24 551.5 9 c 128,-1,107
 610 42 610 42 686 42 c 256,108,109
 762 42 762 42 809 17 c 1,110,111
 854 42 854 42 929 42 c 256,112,79
 1004 42 1004 42 1061.5 9 c 128,-1,80
EndSplineSet
Validated: 19457
EndChar

StartChar: uni0D61
Encoding: 3425 3425 166
Width: 2044
VWidth: 2488
GlyphClass: 2
Flags: MW
LayerCount: 2
Fore
SplineSet
1636 725 m 1,0,1
 1838 703 1838 703 1941 558 c 128,-1,2
 2044 413 2044 413 2044 190 c 256,3,4
 2044 -33 2044 -33 1906 -208 c 128,-1,5
 1768 -383 1768 -383 1536 -383 c 256,6,7
 1398 -383 1398 -383 1280 -305 c 1,8,-1
 1332 -199 l 1,9,10
 1430 -272 1430 -272 1536 -272 c 256,11,12
 1714 -272 1714 -272 1818 -130 c 128,-1,13
 1922 12 1922 12 1922 197 c 256,14,15
 1922 535 1922 535 1700 598 c 1,16,17
 1749 504 1749 504 1749 358 c 256,18,19
 1749 209 1749 209 1677 96 c 128,-1,20
 1605 -17 1605 -17 1449 -17 c 256,21,22
 1300 -17 1300 -17 1222.5 79.5 c 128,-1,23
 1145 176 1145 176 1145 334 c 256,24,25
 1145 492 1145 492 1242 607.5 c 128,-1,26
 1339 723 1339 723 1491 723 c 1,27,28
 1432 823 1432 823 1268 823 c 256,29,30
 1162 823 1162 823 1097 759.5 c 128,-1,31
 1032 696 1032 696 1032 593 c 2,32,-1
 1032 0 l 1,33,-1
 897 0 l 1,34,-1
 897 593 l 2,35,36
 897 699 897 699 827 761 c 128,-1,37
 757 823 757 823 651 823 c 256,38,39
 492 823 492 823 387.5 710.5 c 128,-1,40
 283 598 283 598 272 438 c 1,41,42
 295 499 295 499 362 532 c 128,-1,43
 429 565 429 565 504 565 c 256,44,45
 628 565 628 565 716 483 c 128,-1,46
 804 401 804 401 804 271 c 256,47,48
 804 141 804 141 714 62 c 128,-1,49
 624 -17 624 -17 487 -17 c 256,50,51
 316 -17 316 -17 230.5 101.5 c 132,-1,52
 145 220 145 220 145 400 c 256,53,54
 145 653 145 653 293.5 798 c 128,-1,55
 442 943 442 943 666 943 c 256,56,57
 892 943 892 943 963 797 c 1,58,59
 1029 943 1029 943 1245 943 c 256,60,61
 1512 943 1512 943 1636 725 c 1,0,1
1629 354 m 256,62,63
 1629 504 1629 504 1566 612 c 1,64,65
 1543 615 1543 615 1521 615 c 0,66,67
 1410 615 1410 615 1339 532.5 c 128,-1,68
 1268 450 1268 450 1268 341 c 256,69,70
 1268 232 1268 232 1312 165.5 c 128,-1,71
 1356 99 1356 99 1442 99 c 256,72,73
 1629 99 1629 99 1629 354 c 256,62,63
649 270 m 256,74,75
 649 342 649 342 601 395 c 128,-1,76
 553 448 553 448 482 448 c 256,77,78
 410 448 410 448 358.5 397 c 132,-1,79
 307 346 307 346 307 274 c 256,80,81
 307 202 307 202 358.5 152.5 c 128,-1,82
 410 103 410 103 482 103 c 256,83,84
 553 103 553 103 601 151 c 128,-1,85
 649 199 649 199 649 270 c 256,74,75
EndSplineSet
Validated: 3073
EndChar

StartChar: uni0D66
Encoding: 3430 3430 167
Width: 1152
VWidth: 2452
GlyphClass: 2
Flags: MW
LayerCount: 2
Fore
SplineSet
868 535 m 256,0,1
 868 680 868 680 803 794 c 128,-1,2
 738 908 738 908 565 908 c 0,3,4
 398 908 398 908 331.5 796 c 128,-1,5
 265 684 265 684 265 515 c 256,6,7
 265 346 265 346 347.5 231.5 c 128,-1,8
 430 117 430 117 565 117 c 256,9,10
 700 117 700 117 784 229.5 c 128,-1,11
 868 342 868 342 868 535 c 256,0,1
993 496 m 256,12,13
 993 282 993 282 877.5 130.5 c 128,-1,14
 762 -21 762 -21 568 -21 c 256,15,16
 370 -21 370 -21 255.5 130.5 c 128,-1,17
 141 282 141 282 141 522 c 256,18,19
 141 747 141 747 255 895.5 c 128,-1,20
 369 1044 369 1044 559 1045 c 0,21,22
 771 1045 771 1045 882 896 c 128,-1,23
 993 747 993 747 993 496 c 256,12,13
EndSplineSet
Validated: 1
EndChar

StartChar: uni0D67
Encoding: 3431 3431 168
Width: 1315
VWidth: 2479
GlyphClass: 2
Flags: MW
LayerCount: 2
Fore
SplineSet
1311 2 m 1,0,-1
 375 0 l 2,1,2
 211 -0 211 -0 211 -118 c 256,3,4
 211 -183 211 -183 261 -216 c 128,-1,5
 311 -249 311 -249 375 -249 c 2,6,-1
 689 -249 l 1,7,-1
 689 -378 l 1,8,-1
 353 -378 l 2,9,10
 237 -378 237 -378 156 -305 c 128,-1,11
 75 -232 75 -232 75 -118 c 256,12,13
 75 -5 75 -5 149 67.5 c 128,-1,14
 223 140 223 140 333 140 c 2,15,-1
 454 140 l 1,16,-1
 454 602 l 2,17,18
 454 790 454 790 578.5 917 c 128,-1,19
 703 1044 703 1044 881 1044 c 256,20,21
 1061 1044 1061 1044 1186 921.5 c 128,-1,22
 1311 799 1311 799 1311 614 c 2,23,-1
 1311 2 l 1,0,-1
1169 140 m 1,24,-1
 1169 607 l 2,25,26
 1169 736 1169 736 1085 822 c 128,-1,27
 1001 908 1001 908 881 908 c 256,28,29
 761 908 761 908 678.5 821 c 128,-1,30
 596 734 596 734 596 604 c 2,31,-1
 596 140 l 1,32,-1
 1169 140 l 1,24,-1
EndSplineSet
Validated: 19457
EndChar

StartChar: uni0D68
Encoding: 3432 3432 169
Width: 1369
VWidth: 2450
GlyphClass: 2
Flags: MW
LayerCount: 2
Fore
SplineSet
1431 0 m 257,0,-1
 802 0 l 257,1,-1
 802 106 l 1,2,3
 1018 235 1018 235 1018 502 c 256,4,5
 1018 676 1018 676 911 792 c 128,-1,6
 804 908 804 908 640 908 c 256,7,8
 474 908 474 908 369.5 790 c 128,-1,9
 265 672 265 672 265 510 c 256,10,11
 265 348 265 348 339 233 c 128,-1,12
 413 118 413 118 546 72 c 1,13,-1
 457 -21 l 1,14,15
 305 48 305 48 223 185 c 128,-1,16
 141 322 141 322 141 498 c 256,17,18
 141 733 141 733 288.5 889 c 128,-1,19
 436 1045 436 1045 654 1045 c 256,20,21
 872 1045 872 1045 1010.5 892.5 c 128,-1,22
 1149 740 1149 740 1149 497 c 256,23,24
 1149 254 1149 254 1008 136 c 1,25,-1
 1431 136 l 1,26,-1
 1431 0 l 257,0,-1
EndSplineSet
Validated: 3073
EndChar

StartChar: uni0D69
Encoding: 3433 3433 170
Width: 1868
VWidth: 2450
GlyphClass: 2
Flags: MW
LayerCount: 2
Fore
SplineSet
1928 0 m 257,0,-1
 1298 0 l 257,1,-1
 1298 106 l 1,2,3
 1515 235 1515 235 1515 502 c 256,4,5
 1515 652 1515 652 1435.5 780 c 128,-1,6
 1356 908 1356 908 1220 908 c 256,7,8
 1114 908 1114 908 1045 833 c 128,-1,9
 976 758 976 758 976 647 c 2,10,-1
 976 0 l 257,11,-1
 834 0 l 257,12,-1
 834 647 l 2,13,14
 834 748 834 748 769 829 c 128,-1,15
 704 910 704 910 610 910 c 256,16,17
 465 910 465 910 373.5 793 c 128,-1,18
 282 676 282 676 282 524 c 256,19,20
 282 372 282 372 357 247.5 c 128,-1,21
 432 123 432 123 556 69 c 1,22,-1
 458 -29 l 1,23,24
 313 47 313 47 233 191 c 128,-1,25
 153 335 153 335 153 509 c 256,26,27
 153 733 153 733 279.5 889 c 128,-1,28
 406 1045 406 1045 613 1045 c 256,29,30
 704 1045 704 1045 785 1000 c 128,-1,31
 866 955 866 955 906 871 c 1,32,33
 940 957 940 957 1035.5 1001 c 128,-1,34
 1131 1045 1131 1045 1230 1045 c 260,35,36
 1426 1045 1426 1045 1538 883 c 0,37,38
 1650 720 1650 720 1650 508 c 256,39,40
 1650 296 1650 296 1522 136 c 1,41,-1
 1928 136 l 1,42,-1
 1928 0 l 257,0,-1
EndSplineSet
Validated: 19457
EndChar

StartChar: uni0D6A
Encoding: 3434 3434 171
Width: 1246
VWidth: 2430
GlyphClass: 2
Flags: MW
LayerCount: 2
Fore
SplineSet
1244 407 m 256,0,1
 1244 245 1244 245 1166.5 111.5 c 128,-1,2
 1089 -22 1089 -22 949 -22 c 256,3,4
 809 -22 809 -22 741.5 101 c 128,-1,5
 674 224 674 224 674 379 c 2,6,-1
 674 918 l 1,7,8
 505 908 505 908 393 770 c 128,-1,9
 281 632 281 632 281 451 c 256,10,11
 281 215 281 215 458 79 c 1,12,-1
 362 -16 l 1,13,14
 153 163 153 163 153 461 c 256,15,16
 153 698 153 698 302 871.5 c 128,-1,17
 451 1045 451 1045 674 1052 c 1,18,-1
 674 1296 l 1,19,-1
 812 1296 l 1,20,-1
 812 1040 l 1,21,22
 1033 1009 1033 1009 1138.5 826.5 c 128,-1,23
 1244 644 1244 644 1244 407 c 256,0,1
1105 409 m 256,24,25
 1105 581 1105 581 1034.5 720 c 152,-1,26
 964 859 964 859 812 897 c 1,27,-1
 812 381 l 2,28,29
 812 288 812 288 843 203.5 c 128,-1,30
 874 119 874 119 952 119 c 256,31,32
 1027 119 1027 119 1066 215 c 156,-1,33
 1105 311 1105 311 1105 409 c 256,24,25
EndSplineSet
Validated: 3073
EndChar

StartChar: uni0D6B
Encoding: 3435 3435 172
Width: 1748
VWidth: 2460
GlyphClass: 2
Flags: MW
LayerCount: 2
Fore
SplineSet
1750 531 m 256,0,1
 1750 239 1750 239 1590 -9 c 1,2,-1
 1482 55 l 1,3,4
 1610 269 1610 269 1610 519 c 256,5,6
 1610 812 1610 812 1431 1004.5 c 128,-1,7
 1252 1197 1252 1197 952 1197 c 256,8,9
 652 1197 652 1197 465 988.5 c 128,-1,10
 278 780 278 780 278 470 c 256,11,12
 278 98 278 98 454.5 -77 c 128,-1,13
 631 -252 631 -252 870 -252 c 256,14,15
 1013 -252 1013 -252 1125.5 -162.5 c 128,-1,16
 1238 -73 1238 -73 1238 84 c 256,17,18
 1238 301 1238 301 1042 301 c 2,19,-1
 922 301 l 1,20,-1
 922 447 l 1,21,-1
 1042 447 l 2,22,23
 1133 447 1133 447 1188 508 c 128,-1,24
 1243 569 1243 569 1243 673 c 256,25,26
 1243 777 1243 777 1162 847.5 c 128,-1,27
 1081 918 1081 918 964 918 c 256,28,29
 779 918 779 918 673.5 781 c 128,-1,30
 568 644 568 644 568 449 c 256,31,32
 568 254 568 254 661 35 c 1,33,-1
 541 -19 l 1,34,35
 438 234 438 234 438 474 c 256,36,37
 438 714 438 714 581.5 878.5 c 128,-1,38
 725 1043 725 1043 964 1043 c 256,39,40
 1140 1043 1140 1043 1260.5 939.5 c 128,-1,41
 1381 836 1381 836 1381 665 c 256,42,43
 1381 445 1381 445 1236 386 c 1,44,45
 1379 320 1379 320 1379 90 c 256,46,47
 1379 -140 1379 -140 1221.5 -265 c 128,-1,48
 1064 -390 1064 -390 841 -390 c 256,49,50
 575 -390 575 -390 360 -191.5 c 128,-1,51
 145 7 145 7 145 443 c 256,52,53
 145 827 145 827 365.5 1077.5 c 128,-1,54
 586 1328 586 1328 948 1328 c 256,55,56
 1310 1328 1310 1328 1530 1103 c 128,-1,57
 1750 878 1750 878 1750 531 c 256,0,1
EndSplineSet
Validated: 3073
EndChar

StartChar: uni0D6C
Encoding: 3436 3436 173
Width: 2269
VWidth: 2481
GlyphClass: 2
Flags: MW
LayerCount: 2
Fore
SplineSet
2271 420 m 256,0,1
 2271 89 2271 89 2071.5 -159.5 c 128,-1,2
 1872 -408 1872 -408 1572 -408 c 256,3,4
 1473 -408 1473 -408 1368 -368 c 1,5,-1
 1407 -236 l 1,6,7
 1485 -265 1485 -265 1572 -265 c 256,8,9
 1818 -265 1818 -265 1980 -58.5 c 128,-1,10
 2142 148 2142 148 2142 420 c 256,11,12
 2142 624 2142 624 2062 766.5 c 128,-1,13
 1982 909 1982 909 1813 909 c 256,14,15
 1717 909 1717 909 1653 835.5 c 128,-1,16
 1589 762 1589 762 1589 659 c 2,17,-1
 1589 0 l 1,18,-1
 1446 0 l 1,19,-1
 1446 681 l 2,20,21
 1446 779 1446 779 1377.5 843.5 c 128,-1,22
 1309 908 1309 908 1213 908 c 256,23,24
 1117 908 1117 908 1047 845 c 128,-1,25
 977 782 977 782 977 681 c 2,26,-1
 977 0 l 1,27,-1
 834 0 l 1,28,-1
 834 659 l 2,29,30
 834 760 834 760 769 838.5 c 128,-1,31
 704 917 704 917 611 917 c 256,32,33
 465 917 465 917 380.5 797.5 c 128,-1,34
 296 678 296 678 296 524 c 256,35,36
 296 371 296 371 364 247.5 c 152,-1,37
 432 124 432 124 557 71 c 1,38,-1
 458 -27 l 1,39,40
 313 50 313 50 233 194 c 128,-1,41
 153 338 153 338 153 512 c 256,42,43
 153 735 153 735 280 890 c 128,-1,44
 407 1045 407 1045 613 1045 c 256,45,46
 704 1045 704 1045 785 1004.5 c 128,-1,47
 866 964 866 964 906 882 c 1,48,49
 966 1045 966 1045 1206 1045 c 256,50,51
 1444 1045 1444 1045 1518 882 c 1,52,53
 1560 964 1560 964 1639.5 1004.5 c 128,-1,54
 1719 1045 1719 1045 1809 1045 c 256,55,56
 2039 1045 2039 1045 2155 863 c 128,-1,57
 2271 681 2271 681 2271 420 c 256,0,1
EndSplineSet
Validated: 19457
EndChar

StartChar: uni0D6D
Encoding: 3437 3437 174
Width: 1266
VWidth: 2482
GlyphClass: 2
Flags: MW
LayerCount: 2
Fore
SplineSet
1269 419 m 256,0,1
 1269 86 1269 86 1065 -162.5 c 128,-1,2
 861 -411 861 -411 561 -411 c 256,3,4
 463 -411 463 -411 362 -369 c 1,5,-1
 402 -244 l 1,6,7
 477 -268 477 -268 561 -268 c 256,8,9
 807 -268 807 -268 970.5 -63 c 128,-1,10
 1134 142 1134 142 1134 414 c 256,11,12
 1134 617 1134 617 1018 764 c 0,13,14
 904 908 904 908 714 908 c 256,15,16
 524 908 524 908 409 790 c 128,-1,17
 294 672 294 672 284 484 c 1,18,19
 306 553 306 553 376 588 c 152,-1,20
 446 623 446 623 524 623 c 256,21,22
 657 623 657 623 748.5 532.5 c 128,-1,23
 840 442 840 442 840 297 c 256,24,25
 840 152 840 152 746.5 65 c 128,-1,26
 653 -22 653 -22 507 -22 c 256,27,28
 327 -22 327 -22 238 106 c 152,-1,29
 149 234 149 234 149 435 c 256,30,31
 149 700 149 700 303.5 871.5 c 128,-1,32
 458 1043 458 1043 712 1043 c 260,33,34
 966 1043 966 1043 1117.5 861.5 c 128,-1,35
 1269 680 1269 680 1269 419 c 256,0,1
627.5 165 m 128,-1,37
 677 218 677 218 677 298 c 256,38,39
 677 378 677 378 627.5 436 c 128,-1,40
 578 494 578 494 503 494 c 256,41,42
 428 494 428 494 373 437 c 128,-1,43
 318 380 318 380 318 300 c 256,44,45
 318 220 318 220 372 166 c 128,-1,46
 426 112 426 112 503 112 c 256,47,36
 578 112 578 112 627.5 165 c 128,-1,37
EndSplineSet
Validated: 19457
EndChar

StartChar: uni0D6E
Encoding: 3438 3438 175
Width: 1554
VWidth: 2482
GlyphClass: 2
Flags: MW
LayerCount: 2
Fore
SplineSet
1557 0 m 1,0,-1
 1553 -17 l 2,1,2
 1503 -230 1503 -230 1339 -319.5 c 128,-1,3
 1175 -409 1175 -409 939 -409 c 256,4,5
 851 -409 851 -409 748 -370 c 1,6,-1
 788 -240 l 1,7,8
 863 -266 863 -266 988 -266 c 256,9,10
 1113 -266 1113 -266 1244 -212 c 0,11,12
 1374 -159 1374 -159 1399 -17 c 2,13,-1
 1402 0 l 1,14,-1
 812 0 l 1,15,-1
 812 107 l 1,16,17
 1028 235 1028 235 1028 503 c 256,18,19
 1028 679 1028 679 920 794.5 c 128,-1,20
 812 910 812 910 648 910 c 256,21,22
 484 910 484 910 377.5 792 c 128,-1,23
 271 674 271 674 271 496 c 256,24,25
 271 181 271 181 544 80 c 1,26,-1
 467 -20 l 1,27,28
 153 124 153 124 153 498 c 256,29,30
 153 733 153 733 299.5 888 c 128,-1,31
 446 1043 446 1043 664 1043 c 256,32,33
 882 1043 882 1043 1020.5 891.5 c 128,-1,34
 1159 740 1159 740 1159 497 c 256,35,36
 1159 254 1159 254 1009 137 c 1,37,-1
 1414 137 l 1,38,-1
 1414 1028 l 1,39,-1
 1557 1028 l 1,40,-1
 1557 0 l 1,0,-1
EndSplineSet
Validated: 3073
EndChar

StartChar: uni0D6F
Encoding: 3439 3439 176
Width: 1758
VWidth: 2417
GlyphClass: 2
Flags: MW
LayerCount: 2
Fore
SplineSet
1761 405 m 256,0,1
 1761 243 1761 243 1683 110 c 128,-1,2
 1605 -23 1605 -23 1467 -23 c 256,3,4
 1329 -23 1329 -23 1259.5 100 c 128,-1,5
 1190 223 1190 223 1190 378 c 2,6,-1
 1190 908 l 1,7,8
 1089 900 1089 900 1031.5 832.5 c 128,-1,9
 974 765 974 765 974 657 c 2,10,-1
 974 1 l 257,11,-1
 834 1 l 257,12,-1
 834 657 l 2,13,14
 834 755 834 755 768 831.5 c 128,-1,15
 702 908 702 908 608 908 c 256,16,17
 463 908 463 908 378.5 792 c 128,-1,18
 294 676 294 676 294 528 c 256,19,20
 294 380 294 380 360 257 c 128,-1,21
 426 134 426 134 549 80 c 1,22,-1
 456 -21 l 1,23,24
 310 54 310 54 230.5 199 c 128,-1,25
 151 344 151 344 151 512 c 256,26,27
 151 735 151 735 277.5 889.5 c 128,-1,28
 404 1044 404 1044 602 1044 c 256,29,30
 800 1044 800 1044 903 870 c 1,31,32
 997 1037 997 1037 1190 1042 c 1,33,-1
 1190 1445 l 1,34,-1
 1328 1445 l 1,35,-1
 1328 1030 l 1,36,37
 1549 999 1549 999 1655 816.5 c 128,-1,38
 1761 634 1761 634 1761 405 c 256,0,1
1621 408 m 256,39,40
 1621 575 1621 575 1550.5 712 c 128,-1,41
 1480 849 1480 849 1328 887 c 1,42,-1
 1328 380 l 2,43,44
 1328 294 1328 294 1360.5 205.5 c 128,-1,45
 1393 117 1393 117 1469 117 c 256,46,47
 1545 117 1545 117 1583 214.5 c 128,-1,48
 1621 312 1621 312 1621 408 c 256,39,40
EndSplineSet
Validated: 3073
EndChar

StartChar: ZWNJ
Encoding: 8204 8204 177
Width: 321
VWidth: 2428
GlyphClass: 2
Flags: MW
LayerCount: 2
Fore
SplineSet
66 1032 m 5,0,-1
 225 1032 l 5,1,-1
 225 43 l 5,2,-1
 66 43 l 5,3,-1
 66 1032 l 5,0,-1
EndSplineSet
Validated: 3073
EndChar

StartChar: ZWJ
Encoding: 8205 8205 178
Width: 321
VWidth: 2395
GlyphClass: 2
Flags: MW
LayerCount: 2
Fore
SplineSet
148 1012 m 1,0,-1
 14 804 l 1,1,-1
 -90 804 l 1,2,-1
 96 1076 l 1,3,-1
 -76 1324 l 1,4,-1
 33 1324 l 1,5,-1
 111 1203 l 2,6,7
 120 1189 120 1189 145 1144 c 1,8,-1
 270 1324 l 1,9,-1
 377 1324 l 1,10,-1
 199 1080 l 1,11,-1
 387 804 l 1,12,-1
 283 804 l 1,13,-1
 148 1012 l 1,0,-1
70 888 m 9,14,-1
 224 888 l 17,15,-1
 224 13 l 1,16,-1
 70 13 l 1,17,-1
 70 888 l 9,14,-1
EndSplineSet
Validated: 3073
EndChar

StartChar: uni25CC
Encoding: 9676 9676 179
Width: 1131
VWidth: 2445
GlyphClass: 2
Flags: MW
LayerCount: 2
Fore
SplineSet
1038 784 m 1,0,-1
 930 710 l 1,1,2
 897 765 897 765 856 804 c 0,3,4
 827 831 827 831 794 843 c 1,5,-1
 868 944 l 1,6,7
 948 892 948 892 980 860 c 1,8,-1
 984 858 l 1,9,10
 1022 811 1022 811 1038 784 c 1,0,-1
686 1017 m 1,11,-1
 666 897 l 1,12,13
 602 907 602 907 568 907 c 128,-1,14
 534 907 534 907 470 897 c 1,15,-1
 450 1017 l 1,16,17
 521 1033 521 1033 570 1033 c 128,-1,18
 619 1033 619 1033 686 1017 c 1,11,-1
1098 630 m 1,19,20
 1112 573 1112 573 1112 517.5 c 128,-1,21
 1112 462 1112 462 1098 405 c 1,22,-1
 972 426 l 1,23,24
 981 486 981 486 981 516 c 0,25,26
 981 543 981 543 972 609 c 1,27,-1
 1098 630 l 1,19,20
1038 250 m 1,28,29
 980 170 980 170 954 142 c 1,30,-1
 952 142 l 1,31,32
 950 140 950 140 868 91 c 1,33,-1
 794 192 l 1,34,35
 866 236 866 236 888 260 c 1,36,37
 924 312 924 312 930 325 c 1,38,-1
 1038 250 l 1,28,29
348 843 m 1,39,40
 264 796 264 796 252 771 c 1,41,-1
 212 710 l 1,42,-1
 104 784 l 1,43,44
 156 860 156 860 186 888 c 1,45,46
 198 897 198 897 270 944 c 1,47,-1
 348 843 l 1,39,40
170 426 m 1,48,-1
 42 405 l 1,49,50
 30 461 30 461 30 517 c 128,-1,51
 30 573 30 573 42 630 c 1,52,-1
 170 609 l 1,53,54
 158 576 158 576 158 517.5 c 128,-1,55
 158 459 158 459 170 426 c 1,48,-1
686 18 m 1,56,57
 640 4 640 4 571 4 c 128,-1,58
 502 4 502 4 450 18 c 1,59,-1
 470 138 l 1,60,61
 535 128 535 128 568.5 128 c 128,-1,62
 602 128 602 128 666 138 c 1,63,-1
 686 18 l 1,56,57
348 192 m 1,64,-1
 270 91 l 1,65,66
 178 150 178 150 158 175 c 1,67,-1
 156 175 l 1,68,-1
 104 250 l 1,69,-1
 212 325 l 1,70,71
 262 248 262 248 284 234 c 1,72,73
 294 226 294 226 348 192 c 1,64,-1
EndSplineSet
Validated: 3073
EndChar

StartChar: y2u1
Encoding: 65539 -1 180
Width: 533
VWidth: 2530
GlyphClass: 2
Flags: MW
LayerCount: 2
Fore
SplineSet
702 -424 m 128,-1,1
 750 -494 750 -494 750 -594 c 256,2,3
 750 -694 750 -694 670.5 -775 c 128,-1,4
 591 -856 591 -856 477 -856 c 256,5,6
 363 -856 363 -856 283 -775 c 128,-1,7
 203 -694 203 -694 203 -593 c 256,8,9
 203 -492 203 -492 252 -420 c 1,10,11
 38 -387 38 -387 38 -209 c 256,12,13
 38 -108 38 -108 152 -54 c 0,14,15
 194 -34 194 -34 196 7 c 2,16,-1
 198 42 l 1,17,-1
 318 42 l 1,18,-1
 318 21 l 2,19,20
 318 -75 318 -75 247 -115 c 128,-1,21
 176 -155 176 -155 176 -209 c 256,22,23
 176 -300 176 -300 311 -300 c 256,24,25
 389 -300 389 -300 448.5 -256 c 128,-1,26
 508 -212 508 -212 508 -125 c 256,27,28
 508 -38 508 -38 421 73 c 0,29,30
 214 337 214 337 208 497 c 0,31,32
 207 515 207 515 203 920 c 1,33,-1
 338 920 l 1,34,35
 337 856 337 856 337 763 c 256,36,37
 337 670 337 670 342 553 c 0,38,39
 349 407 349 407 576 78 c 24,40,41
 652 -32 652 -32 652 -139 c 256,42,43
 652 -246 652 -246 576 -324 c 1,44,0
 654 -354 654 -354 702 -424 c 128,-1,1
591 -695 m 0,45,46
 638 -648 638 -648 638 -580 c 256,47,48
 638 -512 638 -512 591 -465 c 128,-1,49
 544 -418 544 -418 477 -418 c 256,50,51
 410 -418 410 -418 362 -465 c 128,-1,52
 314 -512 314 -512 314 -580 c 256,53,54
 314 -648 314 -648 362 -695.5 c 128,-1,55
 410 -743 410 -743 477 -743 c 256,56,57
 544 -743 544 -743 591 -695 c 0,45,46
EndSplineSet
Validated: 1
Ligature2: "Meera-Post Base Substitutions in Malay+AQEA-lam lookup 6 subtable" y2 u1
EndChar

StartChar: y2u2
Encoding: 65540 -1 181
Width: 541
VWidth: 2534
GlyphClass: 3
Flags: MW
LayerCount: 2
Fore
SplineSet
735.5 -426.5 m 128,-1,1
 793 -505 793 -505 793 -618 c 256,2,3
 793 -731 793 -731 705 -821 c 128,-1,4
 617 -911 617 -911 490 -911 c 256,5,6
 363 -911 363 -911 273 -821 c 128,-1,7
 183 -731 183 -731 183 -617 c 256,8,9
 183 -503 183 -503 248 -421 c 1,10,11
 38 -383 38 -383 38 -210 c 256,12,13
 38 -109 38 -109 152 -55 c 0,14,15
 195 -35 195 -35 197 6 c 2,16,-1
 199 41 l 1,17,-1
 319 41 l 1,18,-1
 319 21 l 2,19,20
 319 -75 319 -75 247.5 -115.5 c 128,-1,21
 176 -156 176 -156 176 -210 c 256,22,23
 176 -301 176 -301 312 -301 c 256,24,25
 390 -301 390 -301 449.5 -256.5 c 128,-1,26
 509 -212 509 -212 509 -129 c 256,27,28
 509 -46 509 -46 434 55 c 0,29,30
 216 347 216 347 209 498 c 0,31,32
 207 553 207 553 204 920 c 1,33,-1
 338 920 l 1,34,35
 337 862 337 862 337 771 c 256,36,37
 337 680 337 680 342 576 c 0,38,39
 350 407 350 407 577 77 c 24,40,41
 653 -33 653 -33 653 -138 c 256,42,43
 653 -242 653 -242 587 -315 c 1,44,0
 678 -348 678 -348 735.5 -426.5 c 128,-1,1
554 -580 m 128,-1,46
 584 -552 584 -552 584 -511 c 256,47,48
 584 -470 584 -470 554 -442 c 128,-1,49
 524 -414 524 -414 484 -414 c 256,50,51
 444 -414 444 -414 415.5 -442 c 128,-1,52
 387 -470 387 -470 387 -511 c 256,53,54
 387 -552 387 -552 415.5 -580 c 128,-1,55
 444 -608 444 -608 484 -608 c 256,56,45
 524 -608 524 -608 554 -580 c 128,-1,46
626.5 -741 m 128,-1,58
 683 -684 683 -684 683 -618 c 256,59,60
 683 -552 683 -552 653 -505 c 1,61,62
 653 -580 653 -580 604 -629.5 c 128,-1,63
 555 -679 555 -679 486 -679 c 256,64,65
 417 -679 417 -679 369 -631.5 c 128,-1,66
 321 -584 321 -584 319 -517 c 1,67,68
 296 -560 296 -560 296 -622 c 256,69,70
 296 -684 296 -684 353 -741 c 128,-1,71
 410 -798 410 -798 490 -798 c 256,72,57
 570 -798 570 -798 626.5 -741 c 128,-1,58
EndSplineSet
Validated: 1
Ligature2: "Meera-Post Base Substitutions in Malay+AQEA-lam lookup 6 subtable" y2 u2
EndChar

StartChar: v2
Encoding: 65541 -1 182
Width: 428
VWidth: 2459
GlyphClass: 3
Flags: MW
LayerCount: 2
Fore
SplineSet
430 0 m 1,0,-1
 59 0 l 1,1,-1
 59 125 l 1,2,-1
 289 125 l 1,3,-1
 289 920 l 5,4,-1
 430 920 l 5,5,-1
 430 0 l 1,0,-1
EndSplineSet
Validated: 1
Ligature2: "Meera-Post Base Forms in Malay+AQEA-lam lookup 8 subtable" v1 xx
Ligature2: "Meera-Post Base Forms in Malay+AQEA-lam2 lookup 8 subtable" xx v1
EndChar

StartChar: r4.alt2
Encoding: 65544 -1 183
Width: 0
VWidth: 2395
GlyphClass: 3
Flags: MW
LayerCount: 2
Fore
SplineSet
-727 974 m 1,0,1
 -800 1109 -800 1109 -800 1143 c 0,2,3
 -800 1220 -800 1220 -727.5 1220 c 128,-1,4
 -655 1220 -655 1220 -655 1145 c 0,5,6
 -655 1105 -655 1105 -727 974 c 1,0,1
EndSplineSet
EndChar

StartChar: k1cil
Encoding: 65545 -1 184
Width: 1607
VWidth: 2429
GlyphClass: 2
Flags: MW
LayerCount: 2
Fore
SplineSet
1610 275 m 256,0,1
 1610 149 1610 149 1542 63.5 c 128,-1,2
 1474 -22 1474 -22 1351 -22 c 256,3,4
 1186 -22 1186 -22 1144 114 c 1,5,6
 1078 -22 1078 -22 876 -22 c 256,7,8
 674 -22 674 -22 609 114 c 1,9,10
 567 -22 567 -22 403 -22 c 256,11,12
 278 -22 278 -22 211.5 63.5 c 128,-1,13
 145 149 145 149 145 275 c 256,14,15
 145 419 145 419 234 495.5 c 128,-1,16
 323 572 323 572 482 572 c 2,17,-1
 538 572 l 1,18,19
 538 737 538 737 625 840 c 128,-1,20
 712 943 712 943 873 943 c 260,21,22
 1000 943 1000 943 1083.5 887.5 c 128,-1,23
 1167 832 1167 832 1196 724 c 1,24,25
 1211 746 1211 746 1313.5 845 c 128,-1,26
 1416 944 1416 944 1416 1024 c 256,27,28
 1416 1087 1416 1087 1374 1134.5 c 128,-1,29
 1332 1182 1332 1182 1273 1182 c 256,30,31
 1167 1182 1167 1182 1052 1067 c 1,32,-1
 982 1159 l 1,33,34
 1078 1303 1078 1303 1282 1303 c 256,35,36
 1416 1303 1416 1303 1484 1224 c 128,-1,37
 1552 1145 1552 1145 1552 1033 c 256,38,39
 1552 921 1552 921 1428.5 796.5 c 128,-1,40
 1305 672 1305 672 1284 634 c 0,41,42
 1264 600 1264 600 1256 572 c 1,43,44
 1417 572 1417 572 1513.5 511 c 128,-1,45
 1610 450 1610 450 1610 275 c 256,0,1
1489 278 m 256,46,47
 1489 450 1489 450 1280 450 c 2,48,-1
 1226 450 l 1,49,50
 1226 432 1226 432 1215 358.5 c 128,-1,51
 1204 285 1204 285 1204 238 c 128,-1,52
 1204 191 1204 191 1241 143 c 128,-1,53
 1278 95 1278 95 1344 95 c 256,54,55
 1409 95 1409 95 1449 150 c 128,-1,56
 1489 205 1489 205 1489 278 c 256,46,47
1086 572 m 1,57,-1
 1086 602 l 2,58,59
 1086 695 1086 695 1028 759 c 128,-1,60
 970 823 970 823 878 823 c 256,61,62
 786 823 786 823 727 759 c 128,-1,63
 668 695 668 695 668 602 c 2,64,-1
 668 572 l 1,65,-1
 1086 572 l 1,57,-1
1088 450 m 1,66,-1
 668 450 l 1,67,-1
 668 412 l 2,68,69
 668 93 668 93 882 93 c 256,70,71
 1088 93 1088 93 1088 412 c 2,72,-1
 1088 450 l 1,66,-1
546 251 m 1,73,-1
 538 450 l 1,74,-1
 474 450 l 2,75,76
 265 450 265 450 265 278 c 256,77,78
 265 206 265 206 304.5 150.5 c 128,-1,79
 344 95 344 95 411 95 c 256,80,81
 477 95 477 95 511.5 142 c 128,-1,82
 546 189 546 189 546 251 c 1,73,-1
EndSplineSet
Ligature2: "Meera-Akhand in Malay+AQEA-lam2 lookup 0 subtable" k1 xx ZWJ
Ligature2: "Meera-Akhand in Malay+AQEA-lam lookup 1 subtable" k1 xx ZWJ
Ligature2: "Meera-Halant Forms in Malay+AQEA-lam lookup 7 subtable" k1 xx ZWJ
Ligature2: "Meera-Half Forms in Malay+AQEA-lam lookup 2 subtable" k1 xx ZWJ
EndChar

StartChar: nhcil
Encoding: 65546 -1 185
Width: 2355
VWidth: 2428
GlyphClass: 2
Flags: MW
LayerCount: 2
Fore
SplineSet
1987 1303 m 256,0,1
 2113 1303 2113 1303 2177.5 1224.5 c 128,-1,2
 2242 1146 2242 1146 2242 1018 c 256,3,4
 2242 935 2242 935 2163 834 c 1,5,6
 2357 672 2357 672 2357 372 c 256,7,8
 2357 217 2357 217 2272.5 98.5 c 128,-1,9
 2188 -20 2188 -20 2039 -20 c 256,10,11
 1891 -20 1891 -20 1811 100 c 128,-1,12
 1731 220 1731 220 1731 377 c 256,13,14
 1731 608 1731 608 1952 803 c 1,15,16
 1914 823 1914 823 1829 823 c 256,17,18
 1743 823 1743 823 1683 756 c 128,-1,19
 1623 689 1623 689 1623 594 c 2,20,-1
 1623 0 l 1,21,-1
 1487 0 l 1,22,-1
 1487 594 l 2,23,24
 1487 695 1487 695 1422.5 759 c 128,-1,25
 1358 823 1358 823 1257 823 c 256,26,27
 1156 823 1156 823 1094.5 759 c 128,-1,28
 1033 695 1033 695 1033 594 c 2,29,-1
 1033 0 l 1,30,-1
 887 0 l 1,31,-1
 887 594 l 2,32,33
 887 823 887 823 608 823 c 256,34,35
 466 823 466 823 369.5 705.5 c 128,-1,36
 273 588 273 588 263 439 c 1,37,38
 308 557 308 557 463 557 c 0,39,40
 580 557 580 557 654 476 c 0,41,42
 728 396 728 396 728 274 c 256,43,44
 728 152 728 152 649.5 65 c 128,-1,45
 571 -22 571 -22 448 -22 c 256,46,47
 298 -22 298 -22 220.5 107 c 128,-1,48
 143 236 143 236 143 395 c 256,49,50
 143 627 143 627 278 785 c 128,-1,51
 413 943 413 943 630 943 c 256,52,53
 847 943 847 943 957 815 c 1,54,55
 1036 942 1036 942 1256 942 c 256,56,57
 1482 942 1482 942 1553 815 c 1,58,59
 1653 943 1653 943 1832 943 c 260,60,61
 1968 943 1968 943 2053 903 c 1,62,63
 2114 960 2114 960 2114 1024 c 256,64,65
 2114 1088 2114 1088 2076 1135 c 128,-1,66
 2038 1182 2038 1182 1982 1182 c 256,67,68
 1885 1182 1885 1182 1792 1080 c 1,69,-1
 1714 1159 l 1,70,71
 1801 1303 1801 1303 1987 1303 c 256,0,1
2217 374 m 256,72,73
 2217 611 2217 611 2062 746 c 1,74,75
 1856 578 1856 578 1856 381 c 256,76,77
 1856 284 1856 284 1902.5 192 c 128,-1,78
 1949 100 1949 100 2040 100 c 256,79,80
 2131 100 2131 100 2174 188.5 c 128,-1,81
 2217 277 2217 277 2217 374 c 256,72,73
555 149.5 m 128,-1,83
 598 201 598 201 598 271 c 256,84,85
 598 341 598 341 556 393.5 c 128,-1,86
 514 446 514 446 444 446 c 128,-1,87
 374 446 374 446 332 396 c 0,88,89
 290 344 290 344 289 274 c 256,90,91
 289 204 289 204 331.5 151 c 128,-1,92
 374 98 374 98 443 98 c 256,93,82
 512 98 512 98 555 149.5 c 128,-1,83
EndSplineSet
Ligature2: "Meera-Akhand in Malay+AQEA-lam2 lookup 0 subtable" nh xx ZWJ
Ligature2: "Meera-Akhand in Malay+AQEA-lam lookup 1 subtable" nh xx ZWJ
Ligature2: "Meera-Halant Forms in Malay+AQEA-lam lookup 7 subtable" nh xx ZWJ
Ligature2: "Meera-Half Forms in Malay+AQEA-lam lookup 2 subtable" nh xx ZWJ
EndChar

StartChar: n1cil
Encoding: 65547 -1 186
Width: 1668
VWidth: 2429
GlyphClass: 3
Flags: MW
LayerCount: 2
Fore
SplineSet
1671 368 m 256,0,1
 1671 218 1671 218 1586 98 c 0,2,3
 1500 -22 1500 -22 1352 -22 c 256,4,5
 1204 -22 1204 -22 1124 97 c 128,-1,6
 1044 216 1044 216 1044 370 c 256,7,8
 1044 604 1044 604 1266 799 c 1,9,10
 1215 823 1215 823 1127 823 c 256,11,12
 1038 823 1038 823 984.5 750.5 c 128,-1,13
 931 678 931 678 931 592 c 2,14,-1
 931 0 l 1,15,-1
 796 0 l 1,16,-1
 796 592 l 2,17,18
 796 682 796 682 734.5 752.5 c 128,-1,19
 673 823 673 823 582 823 c 256,20,21
 451 823 451 823 367 717.5 c 128,-1,22
 283 612 283 612 283 474 c 256,23,24
 283 336 283 336 347.5 224 c 128,-1,25
 412 112 412 112 530 63 c 1,26,-1
 438 -24 l 1,27,28
 300 44 300 44 222.5 174 c 128,-1,29
 145 304 145 304 145 462 c 256,30,31
 145 661 145 661 266.5 802 c 128,-1,32
 388 943 388 943 582 943 c 256,33,34
 776 943 776 943 862 811 c 1,35,36
 951 943 951 943 1142 943 c 256,37,38
 1275 943 1275 943 1366 900 c 1,39,40
 1428 954 1428 954 1428 1020 c 256,41,42
 1428 1086 1428 1086 1389.5 1134 c 128,-1,43
 1351 1182 1351 1182 1297 1182 c 256,44,45
 1196 1182 1196 1182 1104 1082 c 1,46,-1
 1027 1159 l 1,47,48
 1118 1303 1118 1303 1305 1303 c 256,49,50
 1428 1303 1428 1303 1491.5 1223 c 128,-1,51
 1555 1143 1555 1143 1555 1035 c 256,52,53
 1555 928 1555 928 1479 830 c 1,54,55
 1671 666 1671 666 1671 368 c 256,0,1
1533 370 m 256,56,57
 1533 604 1533 604 1376 739 c 1,58,59
 1172 572 1172 572 1172 375 c 256,60,61
 1172 274 1172 274 1216 186 c 0,62,63
 1262 98 1262 98 1352 98 c 256,64,65
 1442 98 1442 98 1487.5 184 c 128,-1,66
 1533 270 1533 270 1533 370 c 256,56,57
EndSplineSet
Ligature2: "Meera-Akhand in Malay+AQEA-lam2 lookup 0 subtable" n1 xx ZWJ
Ligature2: "Meera-Akhand in Malay+AQEA-lam lookup 1 subtable" n1 xx ZWJ
Ligature2: "Meera-Halant Forms in Malay+AQEA-lam lookup 7 subtable" n1 xx ZWJ
Ligature2: "Meera-Half Forms in Malay+AQEA-lam lookup 2 subtable" n1 xx ZWJ
EndChar

StartChar: l3cil
Encoding: 65548 -1 187
Width: 1872
VWidth: 2429
GlyphClass: 3
Flags: MW
LayerCount: 2
Fore
SplineSet
1875 369 m 256,0,1
 1875 217 1875 217 1790 97.5 c 128,-1,2
 1705 -22 1705 -22 1558 -22 c 256,3,4
 1411 -22 1411 -22 1329.5 94.5 c 128,-1,5
 1248 211 1248 211 1248 343 c 0,6,7
 1248 476 1248 476 1305 566.5 c 128,-1,8
 1362 657 1362 657 1475 765 c 1,9,10
 1399 823 1399 823 1257 823 c 256,11,12
 1114 823 1114 823 1001 790 c 1,13,14
 1088 724 1088 724 1147.5 599.5 c 128,-1,15
 1207 475 1207 475 1207 347 c 256,16,17
 1207 219 1207 219 1112.5 98.5 c 128,-1,18
 1018 -22 1018 -22 869 -22 c 256,19,20
 720 -22 720 -22 634 89.5 c 128,-1,21
 548 201 548 201 548 364 c 256,22,23
 548 619 548 619 757 791 c 1,24,25
 675 823 675 823 626 823 c 256,26,27
 474 823 474 823 372 708 c 128,-1,28
 270 593 270 593 270 439 c 256,29,30
 270 182 270 182 459 54 c 1,31,-1
 378 -24 l 1,32,33
 143 130 143 130 143 451 c 256,34,35
 143 652 143 652 284.5 797.5 c 128,-1,36
 426 943 426 943 673 943 c 256,37,38
 792 943 792 943 887 871 c 1,39,40
 996 943 996 943 1205 943 c 256,41,42
 1411 943 1411 943 1550 875 c 1,43,44
 1620 936 1620 936 1620 1010 c 256,45,46
 1620 1084 1620 1084 1589.5 1133 c 128,-1,47
 1559 1182 1559 1182 1501 1182 c 256,48,49
 1406 1182 1406 1182 1313 1082 c 1,50,-1
 1231 1159 l 1,51,52
 1322 1303 1322 1303 1512 1303 c 256,53,54
 1759 1303 1759 1303 1759 1013 c 256,55,56
 1759 917 1759 917 1669 797 c 1,57,58
 1875 613 1875 613 1875 369 c 256,0,1
1695 184 m 128,-1,60
 1741 270 1741 270 1741 391 c 0,61,62
 1741 560 1741 560 1587 699 c 1,63,64
 1375 519 1375 519 1375 341 c 0,65,66
 1375 253 1375 253 1419 175.5 c 128,-1,67
 1463 98 1463 98 1555 98 c 0,68,59
 1649 98 1649 98 1695 184 c 128,-1,60
1064 364 m 256,69,70
 1064 580 1064 580 872 723 c 1,71,72
 680 587 680 587 680 364 c 256,73,74
 680 93 680 93 877 93 c 256,75,76
 970 93 970 93 1017 177.5 c 128,-1,77
 1064 262 1064 262 1064 364 c 256,69,70
EndSplineSet
Ligature2: "Meera-Akhand in Malay+AQEA-lam2 lookup 0 subtable" l3 xx ZWJ
Ligature2: "Meera-Akhand in Malay+AQEA-lam lookup 1 subtable" l3 xx ZWJ
Ligature2: "Meera-Halant Forms in Malay+AQEA-lam lookup 7 subtable" l3 xx ZWJ
Ligature2: "Meera-Half Forms in Malay+AQEA-lam lookup 2 subtable" l3 xx ZWJ
EndChar

StartChar: lhcil
Encoding: 65549 -1 188
Width: 1689
VWidth: 2428
GlyphClass: 3
Flags: MW
LayerCount: 2
Fore
SplineSet
525 103 m 256,0,1
 752 103 752 103 757 378 c 2,2,3
 761 563 l 2,4,5
 764 723 764 723 875.5 833 c 128,-1,6
 987 943 987 943 1163 943 c 256,7,8
 1285 943 1285 943 1388 891 c 1,9,10
 1447 950 1447 950 1447 1018 c 256,11,12
 1447 1086 1447 1086 1409.5 1133 c 128,-1,13
 1372 1180 1372 1180 1318 1180 c 256,14,15
 1219 1180 1219 1180 1121 1072 c 1,16,-1
 1048 1158 l 1,17,18
 1140 1303 1140 1303 1327 1303 c 256,19,20
 1449 1303 1449 1303 1512.5 1224 c 128,-1,21
 1576 1145 1576 1145 1576 1034 c 256,22,23
 1576 923 1576 923 1499 820 c 1,24,25
 1691 648 1691 648 1691 368 c 256,26,27
 1691 204 1691 204 1606 90.5 c 128,-1,28
 1521 -23 1521 -23 1375 -23 c 256,29,30
 1227 -23 1227 -23 1145.5 95 c 128,-1,31
 1064 213 1064 213 1064 370 c 256,32,33
 1064 585 1064 585 1288 789 c 1,34,35
 1243 823 1243 823 1174 823 c 256,36,37
 893 823 893 823 893 449 c 2,38,-1
 893 351 l 2,39,40
 893 192 893 192 789 84.5 c 128,-1,41
 685 -23 685 -23 507 -23 c 256,42,43
 330 -23 330 -23 237.5 112.5 c 128,-1,44
 145 248 145 248 145 452 c 256,45,46
 145 800 145 800 425 942 c 1,47,-1
 509 863 l 1,48,49
 281 751 281 751 281 471 c 256,50,51
 281 324 281 324 338.5 213.5 c 128,-1,52
 396 103 396 103 525 103 c 256,0,1
1509 182.5 m 128,-1,54
 1553 267 1553 267 1553 379 c 256,55,56
 1553 491 1553 491 1520 567.5 c 128,-1,57
 1487 644 1487 644 1398 724 c 1,58,59
 1192 550 1192 550 1192 375 c 256,60,61
 1192 269 1192 269 1236.5 183.5 c 128,-1,62
 1281 98 1281 98 1373 98 c 256,63,53
 1465 98 1465 98 1509 182.5 c 128,-1,54
EndSplineSet
Ligature2: "Meera-Akhand in Malay+AQEA-lam2 lookup 0 subtable" lh xx ZWJ
Ligature2: "Meera-Akhand in Malay+AQEA-lam lookup 1 subtable" lh xx ZWJ
Ligature2: "Meera-Halant Forms in Malay+AQEA-lam lookup 7 subtable" lh xx ZWJ
Ligature2: "Meera-Half Forms in Malay+AQEA-lam lookup 2 subtable" lh xx ZWJ
EndChar

StartChar: r3cil
Encoding: 65550 -1 189
Width: 1175
VWidth: 2428
GlyphClass: 3
Flags: MW
LayerCount: 2
Fore
SplineSet
1177 369 m 256,0,1
 1177 209 1177 209 1095 93.5 c 128,-1,2
 1013 -22 1013 -22 869 -22 c 256,3,4
 725 -22 725 -22 645 96.5 c 128,-1,5
 565 215 565 215 565 371 c 256,6,7
 565 607 565 607 783 801 c 1,8,9
 752 823 752 823 671 823 c 256,10,11
 492 823 492 823 381 699 c 128,-1,12
 270 575 270 575 270 382 c 256,13,14
 270 189 270 189 438 60 c 1,15,-1
 347 -20 l 1,16,17
 145 140 145 140 145 388 c 256,18,19
 145 636 145 636 287 789.5 c 128,-1,20
 429 943 429 943 666 943 c 256,21,22
 787 943 787 943 882 901 c 1,23,24
 941 958 941 958 941 1022 c 256,25,26
 941 1086 941 1086 904 1133 c 128,-1,27
 867 1180 867 1180 813 1180 c 256,28,29
 715 1180 715 1180 629 1084 c 1,30,-1
 551 1158 l 1,31,32
 638 1303 638 1303 821 1303 c 260,33,34
 951 1303 951 1303 1013.5 1223 c 128,-1,35
 1076 1143 1076 1143 1076 1020 c 256,36,37
 1076 944 1076 944 990 832 c 1,38,39
 1177 667 1177 667 1177 369 c 256,0,1
1041 371 m 256,40,41
 1041 606 1041 606 889 740 c 1,42,43
 696 578 696 578 696 376 c 256,44,45
 696 272 696 272 737.5 185 c 128,-1,46
 779 98 779 98 868 98 c 256,47,48
 957 98 957 98 999 182 c 128,-1,49
 1041 266 1041 266 1041 371 c 256,40,41
EndSplineSet
Ligature2: "Meera-Akhand in Malay+AQEA-lam2 lookup 0 subtable" r3 xx ZWJ
Ligature2: "Meera-Akhand in Malay+AQEA-lam lookup 1 subtable" r3 xx ZWJ
Ligature2: "Meera-Halant Forms in Malay+AQEA-lam lookup 7 subtable" r3 xx ZWJ
Ligature2: "Meera-Half Forms in Malay+AQEA-lam lookup 2 subtable" r3 xx ZWJ
EndChar

StartChar: k1u1
Encoding: 65551 -1 190
Width: 1584
GlyphClass: 3
Flags: MW
LayerCount: 2
Fore
SplineSet
1526 271 m 1,0,1
 1587 238 1587 238 1587 154 c 256,2,3
 1587 70 1587 70 1524.5 23.5 c 128,-1,4
 1462 -23 1462 -23 1372 -23 c 256,5,6
 1282 -23 1282 -23 1226 13 c 1,7,-1
 1273 109 l 1,8,9
 1312 85 1312 85 1361 85 c 256,10,11
 1466 85 1466 85 1466 157 c 256,12,13
 1466 216 1466 216 1407 216 c 2,14,-1
 1305 216 l 1,15,-1
 1305 334 l 1,16,-1
 1406 334 l 2,17,18
 1457 334 1457 334 1457 386 c 256,19,20
 1457 453 1457 453 1393 453 c 2,21,-1
 1204 453 l 1,22,-1
 1204 398 l 2,23,24
 1204 -23 1204 -23 874 -23 c 256,25,26
 675 -23 675 -23 611 109 c 1,27,28
 572 -23 572 -23 403 -23 c 256,29,30
 276 -23 276 -23 210.5 64 c 128,-1,31
 145 151 145 151 145 276 c 256,32,33
 145 409 145 409 228 492 c 128,-1,34
 311 575 311 575 447 575 c 2,35,-1
 538 575 l 1,36,-1
 538 617 l 2,37,38
 538 747 538 747 631.5 845 c 128,-1,39
 725 943 725 943 883 943 c 4,40,41
 1024 943 1024 943 1114 844 c 128,-1,42
 1204 745 1204 745 1204 617 c 2,43,-1
 1204 575 l 1,44,-1
 1343 575 l 2,45,46
 1467 575 1467 575 1527 532.5 c 128,-1,47
 1587 490 1587 490 1587 402 c 256,48,49
 1587 312 1587 312 1526 271 c 1,0,1
1069 575 m 1,50,-1
 1069 612 l 2,51,52
 1069 682 1069 682 1013.5 752.5 c 128,-1,53
 958 823 958 823 870 823 c 0,54,55
 781 823 781 823 724.5 756 c 128,-1,56
 668 689 668 689 668 607 c 2,57,-1
 668 575 l 1,58,-1
 1069 575 l 1,50,-1
1069 414 m 2,59,-1
 1069 453 l 1,60,-1
 668 453 l 1,61,-1
 668 411 l 2,62,63
 668 100 668 100 868 100 c 256,64,65
 1068 100 1068 100 1069 414 c 2,59,-1
538 409 m 1,66,-1
 538 453 l 1,67,-1
 473 453 l 2,68,69
 265 453 265 453 265 290 c 256,70,71
 265 211 265 211 300 155.5 c 128,-1,72
 335 100 335 100 406 100 c 256,73,74
 475 100 475 100 510 144.5 c 128,-1,75
 545 189 545 189 545 236 c 0,76,77
 545 238 545 238 538 409 c 1,66,-1
EndSplineSet
Ligature2: "Meera-Post Base Substitutions in Malay+AQEA-lam lookup 6 subtable" k1 u1
EndChar

StartChar: k1u2
Encoding: 65552 -1 191
Width: 1491
VWidth: 2487
GlyphClass: 3
Flags: MW
LayerCount: 2
Fore
SplineSet
1493 178 m 256,0,1
 1493 0 1493 0 1310 0 c 2,2,-1
 461 0 l 2,3,4
 398 0 398 0 352.5 -35.5 c 128,-1,5
 307 -71 307 -71 307 -128 c 256,6,7
 307 -185 307 -185 353.5 -214.5 c 128,-1,8
 400 -244 400 -244 461 -244 c 2,9,-1
 1465 -244 l 1,10,-1
 1465 -366 l 1,11,-1
 440 -366 l 2,12,13
 323 -366 323 -366 247 -305 c 128,-1,14
 171 -244 171 -244 171 -130 c 256,15,16
 171 -16 171 -16 248.5 50.5 c 128,-1,17
 326 117 326 117 440 117 c 2,18,-1
 1273 117 l 2,19,20
 1361 117 1361 117 1361 176 c 256,21,22
 1361 255 1361 255 1285 255 c 2,23,-1
 1179 255 l 1,24,-1
 1179 366 l 1,25,-1
 1277 366 l 2,26,27
 1361 366 1361 366 1361 432 c 0,28,29
 1361 520 1361 520 1223 520 c 0,30,31
 1221 520 1221 520 1103 520 c 1,32,-1
 1103 496 l 2,33,34
 1103 152 1103 152 803 152 c 260,35,36
 633 152 633 152 567 253 c 1,37,38
 520 152 520 152 393 152 c 256,39,40
 266 152 266 152 205.5 225 c 128,-1,41
 145 298 145 298 145 403 c 256,42,43
 145 508 145 508 225.5 573 c 128,-1,44
 306 638 306 638 422 638 c 2,45,-1
 494 638 l 1,46,-1
 494 663 l 2,47,48
 494 779 494 779 581 861 c 128,-1,49
 668 943 668 943 803 943 c 256,50,51
 938 943 938 943 1020.5 860 c 128,-1,52
 1103 777 1103 777 1103 663 c 2,53,-1
 1103 638 l 1,54,-1
 1273 638 l 2,55,56
 1386 638 1386 638 1438.5 590.5 c 128,-1,57
 1491 543 1491 543 1491 461 c 256,58,59
 1491 342 1491 342 1427 307 c 1,60,61
 1493 282 1493 282 1493 178 c 256,0,1
968 638 m 1,62,-1
 968 658 l 2,63,64
 968 724 968 724 919 774 c 128,-1,65
 870 824 870 824 796 824 c 256,66,67
 722 824 722 824 674 773.5 c 128,-1,68
 626 723 626 723 626 656 c 2,69,-1
 626 638 l 1,70,-1
 968 638 l 1,62,-1
968 501 m 2,71,-1
 968 520 l 1,72,-1
 626 520 l 1,73,-1
 626 501 l 2,74,75
 626 260 626 260 797 260 c 256,76,77
 968 260 968 260 968 501 c 2,71,-1
494 501 m 1,78,-1
 494 520 l 1,79,-1
 447 520 l 2,80,81
 269 520 269 520 269 403 c 256,82,83
 269 262 269 262 393 262 c 256,84,85
 442 262 442 262 472 295 c 128,-1,86
 502 328 502 328 502 368 c 0,87,-1
 494 501 l 1,78,-1
EndSplineSet
Ligature2: "Meera-Post Base Substitutions in Malay+AQEA-lam lookup 6 subtable" k1 u2
EndChar

StartChar: k1r1
Encoding: 65553 -1 192
Width: 1605
VWidth: 2492
GlyphClass: 3
Flags: MW
LayerCount: 2
Fore
SplineSet
1607 175 m 256,0,1
 1607 -99 1607 -99 1400.5 -263.5 c 128,-1,2
 1194 -428 1194 -428 917 -428 c 256,3,4
 786 -428 786 -428 666 -378 c 128,-1,5
 546 -328 546 -328 546 -215 c 256,6,7
 546 -126 546 -126 638 -86 c 128,-1,8
 730 -46 730 -46 843 -46 c 256,9,10
 956 -46 956 -46 1079 -95 c 128,-1,11
 1202 -144 1202 -144 1212 -238 c 1,12,13
 1342 -174 1342 -174 1412 -57 c 128,-1,14
 1482 60 1482 60 1482 176 c 256,15,16
 1482 292 1482 292 1399.5 370.5 c 128,-1,17
 1317 449 1317 449 1205 449 c 1,18,19
 1205 -4 1205 -4 875 -4 c 256,20,21
 673 -4 673 -4 610 126 c 1,22,23
 588 62 588 62 530 19.5 c 128,-1,24
 472 -23 472 -23 403 -23 c 256,25,26
 279 -23 279 -23 212 63 c 128,-1,27
 145 149 145 149 145 276 c 256,28,29
 145 445 145 445 250.5 508.5 c 128,-1,30
 356 572 356 572 497 572 c 2,31,-1
 539 572 l 1,32,33
 539 739 539 739 625 841 c 128,-1,34
 711 943 711 943 876 943 c 256,35,36
 1040 943 1040 943 1122.5 839 c 128,-1,37
 1205 735 1205 735 1205 572 c 1,38,39
 1380 564 1380 564 1493.5 462 c 128,-1,40
 1607 360 1607 360 1607 175 c 256,0,1
1069 572 m 1,41,-1
 1069 609 l 2,42,43
 1069 693 1069 693 1010.5 758 c 128,-1,44
 952 823 952 823 868 823 c 256,45,46
 782 823 782 823 725 757.5 c 128,-1,47
 668 692 668 692 668 604 c 2,48,-1
 668 572 l 1,49,-1
 1069 572 l 1,41,-1
1069 449 m 1,50,-1
 668 449 l 1,51,-1
 668 412 l 2,52,53
 668 114 668 114 868 114 c 256,54,55
 1068 114 1068 114 1069 449 c 1,50,-1
546 234 m 1,56,-1
 538 419 l 2,57,58
 538 434 538 434 539 449 c 1,59,-1
 474 449 l 2,60,61
 265 449 265 449 265 278 c 256,62,63
 265 205 265 205 303.5 153.5 c 128,-1,64
 342 102 342 102 408 102 c 256,65,66
 474 102 474 102 510 147 c 128,-1,67
 546 192 546 192 546 234 c 1,56,-1
1084 -252 m 0,68,69
 1084 -210 1084 -210 997 -188 c 128,-1,70
 910 -166 910 -166 848 -166 c 256,71,72
 680 -166 680 -166 680 -220 c 256,73,74
 680 -262 680 -262 763 -287.5 c 128,-1,75
 846 -313 846 -313 905 -313 c 256,76,77
 1084 -313 1084 -313 1084 -252 c 0,68,69
EndSplineSet
Ligature2: "Meera-Post Base Substitutions in Malay+AQEA-lam lookup 6 subtable" k1 r1
EndChar

StartChar: k1r2
Encoding: 65554 -1 193
Width: 1611
VWidth: 2493
GlyphClass: 3
Flags: MW
LayerCount: 2
Fore
SplineSet
1477 170 m 256,0,1
 1477 286 1477 286 1397 367.5 c 128,-1,2
 1317 449 1317 449 1205 449 c 1,3,4
 1205 -4 1205 -4 875 -4 c 256,5,6
 673 -4 673 -4 610 126 c 1,7,8
 588 62 588 62 530 19.5 c 128,-1,9
 472 -23 472 -23 403 -23 c 256,10,11
 279 -23 279 -23 212 63 c 128,-1,12
 145 149 145 149 145 276 c 256,13,14
 145 445 145 445 250.5 508.5 c 128,-1,15
 356 572 356 572 497 572 c 2,16,-1
 539 572 l 1,17,18
 539 739 539 739 625 841 c 128,-1,19
 711 943 711 943 876 943 c 256,20,21
 1040 943 1040 943 1122.5 839 c 128,-1,22
 1205 735 1205 735 1205 572 c 1,23,24
 1379 564 1379 564 1494 460 c 128,-1,25
 1609 356 1609 356 1610 164 c 1,26,27
 1610 -106 1610 -106 1425 -268 c 0,28,29
 1239 -432 1239 -432 966 -432 c 256,30,31
 546 -432 546 -432 546 -218 c 256,32,33
 546 -138 546 -138 617 -91 c 128,-1,34
 688 -44 688 -44 778 -44 c 256,35,36
 933 -44 933 -44 990 -138 c 1,37,38
 1029 -42 1029 -42 1163 -42 c 256,39,40
 1297 -42 1297 -42 1357 -166 c 1,41,42
 1477 -42 1477 -42 1477 170 c 256,0,1
1069 572 m 1,43,-1
 1069 609 l 2,44,45
 1069 693 1069 693 1010.5 758 c 128,-1,46
 952 823 952 823 868 823 c 256,47,48
 782 823 782 823 725 757.5 c 128,-1,49
 668 692 668 692 668 604 c 2,50,-1
 668 572 l 1,51,-1
 1069 572 l 1,43,-1
1069 449 m 1,52,-1
 668 449 l 1,53,-1
 668 412 l 2,54,55
 668 114 668 114 868 114 c 256,56,57
 1068 114 1068 114 1069 449 c 1,52,-1
546 234 m 1,58,-1
 538 419 l 2,59,60
 538 434 538 434 539 449 c 1,61,-1
 474 449 l 2,62,63
 265 449 265 449 265 278 c 256,64,65
 265 205 265 205 303.5 153.5 c 128,-1,66
 342 102 342 102 408 102 c 256,67,68
 474 102 474 102 510 147 c 128,-1,69
 546 192 546 192 546 234 c 1,58,-1
1266 -246 m 1,70,71
 1254 -154 1254 -154 1164 -154 c 256,72,73
 1116 -154 1116 -154 1084 -183.5 c 128,-1,74
 1052 -213 1052 -213 1052 -255 c 2,75,-1
 1052 -283 l 1,76,-1
 938 -283 l 1,77,-1
 938 -243 l 1,78,79
 936 -201 936 -201 889.5 -177.5 c 128,-1,80
 843 -154 843 -154 799 -154 c 256,81,82
 678 -154 678 -154 678 -220 c 256,83,84
 678 -324 678 -324 949 -324 c 256,85,86
 1142 -324 1142 -324 1266 -246 c 1,70,71
EndSplineSet
Ligature2: "Meera-Post Base Substitutions in Malay+AQEA-lam lookup 6 subtable" k1 r2
EndChar

